G04*
G04 #@! TF.GenerationSoftware,Altium Limited,Altium Designer,19.1.8 (144)*
G04*
G04 Layer_Physical_Order=1*
G04 Layer_Color=255*
%FSLAX25Y25*%
%MOIN*%
G70*
G01*
G75*
%ADD18R,0.21654X0.08465*%
%ADD19R,0.04331X0.02559*%
%ADD20R,0.03543X0.03150*%
%ADD21R,0.02362X0.03150*%
%ADD22R,0.03937X0.03937*%
%ADD23R,0.02559X0.02756*%
%ADD24R,0.01772X0.01968*%
%ADD25R,0.02362X0.02165*%
%ADD26R,0.02953X0.03347*%
%ADD27R,0.01260X0.01417*%
%ADD28R,0.05118X0.03937*%
%ADD29R,0.05906X0.06102*%
%ADD30R,0.06102X0.05906*%
%ADD31R,0.02047X0.02205*%
%ADD32R,0.01929X0.02047*%
%ADD33R,0.02756X0.03347*%
%ADD34R,0.07874X0.03150*%
%ADD35R,0.03347X0.02756*%
%ADD36R,0.01575X0.01181*%
%ADD37R,0.01181X0.01575*%
%ADD38R,0.00984X0.01083*%
%ADD39R,0.01083X0.00984*%
%ADD67C,0.01500*%
%ADD68C,0.00350*%
%ADD69C,0.02100*%
%ADD70C,0.01000*%
%ADD71C,0.05906*%
%ADD72R,0.05906X0.05906*%
%ADD73C,0.08268*%
%ADD74C,0.07874*%
%ADD75C,0.05000*%
%ADD76C,0.03937*%
G36*
X803Y803D02*
X13976D01*
X14346Y1117D01*
Y2648D01*
X12074Y4920D01*
X10253D01*
Y2747D01*
X2747D01*
Y10253D01*
X10253D01*
Y8080D01*
X12728D01*
X12870Y8196D01*
Y9678D01*
X12990Y10282D01*
X13332Y10795D01*
X15705Y13168D01*
X16218Y13510D01*
X16822Y13630D01*
X20697D01*
X20949Y13580D01*
X22150D01*
X22754Y13460D01*
X23267Y13117D01*
X24545Y11839D01*
X28241D01*
Y7680D01*
X27238D01*
Y5720D01*
X28067D01*
X28484Y5920D01*
X28484Y5920D01*
X28484Y5920D01*
X29961D01*
Y3247D01*
X30961D01*
Y2247D01*
X33437D01*
Y803D01*
X109697D01*
Y129697D01*
X803D01*
Y803D01*
D02*
G37*
%LPC*%
G36*
X5500Y120355D02*
Y117500D01*
X2645D01*
X2649Y117532D01*
X3047Y118493D01*
X3681Y119319D01*
X4507Y119953D01*
X5468Y120351D01*
X5500Y120355D01*
D02*
G37*
G36*
X7500D02*
X7532Y120351D01*
X8493Y119953D01*
X9319Y119319D01*
X9953Y118493D01*
X10351Y117532D01*
X10355Y117500D01*
X7500D01*
Y120355D01*
D02*
G37*
G36*
X71979Y118199D02*
Y114153D01*
X67933D01*
X67978Y114493D01*
X68495Y115742D01*
X69318Y116814D01*
X70390Y117637D01*
X71639Y118154D01*
X71979Y118199D01*
D02*
G37*
G36*
X73980D02*
X74320Y118154D01*
X75569Y117637D01*
X76641Y116814D01*
X77464Y115742D01*
X77981Y114493D01*
X78026Y114153D01*
X73980D01*
Y118199D01*
D02*
G37*
G36*
X91979D02*
Y114153D01*
X87933D01*
X87978Y114493D01*
X88495Y115742D01*
X89318Y116814D01*
X90390Y117637D01*
X91639Y118154D01*
X91979Y118199D01*
D02*
G37*
G36*
X93980D02*
X94320Y118154D01*
X95569Y117637D01*
X96641Y116814D01*
X97464Y115742D01*
X97981Y114493D01*
X98026Y114153D01*
X93980D01*
Y118199D01*
D02*
G37*
G36*
X100145Y116000D02*
X103000D01*
Y113145D01*
X102968Y113149D01*
X102007Y113547D01*
X101181Y114181D01*
X100547Y115007D01*
X100149Y115968D01*
X100145Y116000D01*
D02*
G37*
G36*
X2645Y115500D02*
X5500D01*
Y112645D01*
X5468Y112649D01*
X4507Y113047D01*
X3681Y113681D01*
X3047Y114507D01*
X2649Y115468D01*
X2645Y115500D01*
D02*
G37*
G36*
X7500D02*
X10355D01*
X10351Y115468D01*
X9953Y114507D01*
X9319Y113681D01*
X8493Y113047D01*
X7532Y112649D01*
X7500Y112645D01*
Y115500D01*
D02*
G37*
G36*
X44449Y112496D02*
X47500D01*
Y109543D01*
X44449D01*
Y112496D01*
D02*
G37*
G36*
X49500D02*
X52551D01*
Y109543D01*
X49500D01*
Y112496D01*
D02*
G37*
G36*
X67933Y112153D02*
X71979D01*
Y108106D01*
X71639Y108151D01*
X70390Y108668D01*
X69318Y109491D01*
X68495Y110564D01*
X67978Y111812D01*
X67933Y112153D01*
D02*
G37*
G36*
X73980D02*
X78026D01*
X77981Y111812D01*
X77464Y110564D01*
X76641Y109491D01*
X75569Y108668D01*
X74320Y108151D01*
X73980Y108106D01*
Y112153D01*
D02*
G37*
G36*
X87933D02*
X91979D01*
Y108106D01*
X91639Y108151D01*
X90390Y108668D01*
X89318Y109491D01*
X88495Y110564D01*
X87978Y111812D01*
X87933Y112153D01*
D02*
G37*
G36*
X93980D02*
X98026D01*
X97981Y111812D01*
X97464Y110564D01*
X96641Y109491D01*
X95569Y108668D01*
X94320Y108151D01*
X93980Y108106D01*
Y112153D01*
D02*
G37*
G36*
X6500Y110285D02*
X7480Y110156D01*
X8393Y109778D01*
X9177Y109177D01*
X9778Y108393D01*
X10156Y107480D01*
X10285Y106500D01*
X10156Y105520D01*
X9778Y104607D01*
X9177Y103823D01*
X8393Y103222D01*
X7480Y102844D01*
X6500Y102715D01*
X5520Y102844D01*
X4607Y103222D01*
X3824Y103823D01*
X3222Y104607D01*
X2844Y105520D01*
X2715Y106500D01*
X2844Y107480D01*
X3222Y108393D01*
X3824Y109177D01*
X4607Y109778D01*
X5520Y110156D01*
X6500Y110285D01*
D02*
G37*
G36*
X48000Y123494D02*
X105000D01*
X105380Y123418D01*
X105703Y123203D01*
X108703Y120203D01*
X108918Y119880D01*
X108994Y119500D01*
Y101000D01*
X108918Y100620D01*
X108703Y100297D01*
X107284Y98878D01*
X107656Y97980D01*
X107785Y97000D01*
X107656Y96020D01*
X107278Y95107D01*
X106676Y94323D01*
X105893Y93722D01*
X104980Y93344D01*
X104000Y93215D01*
X103020Y93344D01*
X102107Y93722D01*
X101323Y94323D01*
X100722Y95107D01*
X100344Y96020D01*
X100215Y97000D01*
X100344Y97980D01*
X100722Y98893D01*
X101323Y99677D01*
X102107Y100278D01*
X103020Y100656D01*
X104000Y100785D01*
X104980Y100656D01*
X105878Y100284D01*
X107006Y101412D01*
Y103970D01*
X106506Y104193D01*
X105893Y103722D01*
X104980Y103344D01*
X104000Y103215D01*
X103020Y103344D01*
X102107Y103722D01*
X101323Y104323D01*
X100722Y105107D01*
X100344Y106020D01*
X100215Y107000D01*
X100344Y107980D01*
X100722Y108893D01*
X101323Y109677D01*
X102107Y110278D01*
X103020Y110656D01*
X104000Y110785D01*
X104980Y110656D01*
X105893Y110278D01*
X106506Y109807D01*
X107006Y110030D01*
Y113694D01*
X106506Y113941D01*
X105993Y113547D01*
X105032Y113149D01*
X105000Y113145D01*
Y117000D01*
X104000D01*
Y118000D01*
X100145D01*
X100149Y118032D01*
X100547Y118993D01*
X101181Y119819D01*
X102007Y120453D01*
X102968Y120851D01*
X103929Y120977D01*
X104087Y121179D01*
X104216Y121463D01*
X104189Y121506D01*
X48412D01*
X36797Y109891D01*
X36988Y109429D01*
X37980D01*
Y108839D01*
X36193D01*
Y106839D01*
X37980D01*
Y106274D01*
X39720D01*
X40101Y106198D01*
X40423Y105982D01*
X43955Y102451D01*
X44649D01*
Y104591D01*
X44449D01*
Y107543D01*
X52551D01*
Y104591D01*
X52351D01*
Y97704D01*
X44649D01*
Y100463D01*
X43543D01*
X43163Y100538D01*
X42840Y100754D01*
X39309Y104286D01*
X37780D01*
Y100606D01*
X37960Y100337D01*
X38080Y99732D01*
Y98223D01*
X37960Y97618D01*
X37617Y97106D01*
X36739Y96227D01*
X36226Y95884D01*
X35621Y95764D01*
X34919D01*
Y86339D01*
X34799Y85734D01*
X34456Y85221D01*
X33117Y83882D01*
X32954Y83773D01*
X33075Y83253D01*
X33362Y83215D01*
X34032Y82938D01*
X34797Y83703D01*
X35120Y83918D01*
X35500Y83994D01*
X35783D01*
Y86259D01*
X44628D01*
X44835Y86759D01*
X42032Y89562D01*
X41361Y89285D01*
X40500Y89171D01*
X39639Y89285D01*
X38836Y89617D01*
X38146Y90146D01*
X37617Y90836D01*
X37285Y91638D01*
X37172Y92500D01*
X37285Y93362D01*
X37617Y94164D01*
X38146Y94854D01*
X38836Y95383D01*
X39639Y95715D01*
X40500Y95828D01*
X41361Y95715D01*
X42164Y95383D01*
X42854Y94854D01*
X43382Y94164D01*
X43715Y93362D01*
X43828Y92500D01*
X43715Y91638D01*
X43437Y90968D01*
X49832Y84574D01*
X50422Y84691D01*
X50617Y85164D01*
X51146Y85854D01*
X51836Y86383D01*
X52639Y86715D01*
X53500Y86829D01*
X54361Y86715D01*
X55164Y86383D01*
X55854Y85854D01*
X56383Y85164D01*
X56715Y84361D01*
X56828Y83500D01*
X56715Y82639D01*
X56383Y81836D01*
X55854Y81146D01*
X55818Y81119D01*
X55786Y80620D01*
X64822Y71584D01*
X65139Y71715D01*
X66000Y71829D01*
X66861Y71715D01*
X67664Y71383D01*
X68354Y70854D01*
X68883Y70164D01*
X69215Y69362D01*
X69328Y68500D01*
X69215Y67638D01*
X68883Y66836D01*
X68674Y66564D01*
X68989Y66153D01*
X69138Y66215D01*
X70000Y66329D01*
X70862Y66215D01*
X71664Y65883D01*
X71841Y65747D01*
X71958Y65864D01*
X72281Y66080D01*
X72661Y66155D01*
X73263D01*
Y68517D01*
Y72648D01*
X73063D01*
Y74222D01*
X78000D01*
X82937D01*
Y72648D01*
X82737D01*
Y68517D01*
Y64186D01*
Y59856D01*
Y55525D01*
Y51194D01*
Y46863D01*
X73263D01*
Y51010D01*
X72763Y51180D01*
X72354Y50646D01*
X71664Y50117D01*
X70994Y49840D01*
Y46000D01*
X70918Y45620D01*
X70703Y45297D01*
X68494Y43088D01*
Y39412D01*
X73679Y34227D01*
X74141Y34418D01*
Y38567D01*
X73941Y38984D01*
X73941Y39233D01*
Y40953D01*
X81059D01*
Y38984D01*
X80859Y38567D01*
Y36747D01*
X81321Y36556D01*
X82468Y37703D01*
X82791Y37918D01*
X83171Y37994D01*
X83588D01*
X84812Y39218D01*
X85135Y39434D01*
X85457Y39498D01*
Y39498D01*
X85515Y39510D01*
X85656D01*
Y39808D01*
X86998D01*
Y41160D01*
X85755D01*
Y41484D01*
X85457D01*
Y41976D01*
X85755D01*
Y43843D01*
X86129D01*
X86150Y43949D01*
X86365Y44271D01*
X88031Y45937D01*
Y57602D01*
X88107Y57982D01*
X88322Y58305D01*
X102905Y72888D01*
X102839Y73419D01*
X102107Y73722D01*
X101323Y74323D01*
X100722Y75107D01*
X100344Y76020D01*
X100215Y77000D01*
X100344Y77980D01*
X100722Y78893D01*
X101323Y79677D01*
X102107Y80278D01*
X103020Y80656D01*
X104000Y80785D01*
X104980Y80656D01*
X105893Y80278D01*
X106676Y79677D01*
X107278Y78893D01*
X107656Y77980D01*
X107785Y77000D01*
X107656Y76020D01*
X107278Y75107D01*
X106676Y74323D01*
X105893Y73722D01*
X104994Y73350D01*
Y72577D01*
X104918Y72196D01*
X104703Y71874D01*
X104105Y71276D01*
X104284Y70748D01*
X104980Y70656D01*
X105893Y70278D01*
X106676Y69677D01*
X107278Y68893D01*
X107656Y67980D01*
X107785Y67000D01*
X107656Y66020D01*
X107278Y65107D01*
X106676Y64324D01*
X105893Y63722D01*
X104980Y63344D01*
X104000Y63215D01*
X103020Y63344D01*
X102122Y63716D01*
X96994Y58588D01*
Y58081D01*
X97494Y57835D01*
X97620Y57918D01*
X98000Y57994D01*
X100350D01*
X100722Y58893D01*
X101323Y59676D01*
X102107Y60278D01*
X103020Y60656D01*
X104000Y60785D01*
X104980Y60656D01*
X105893Y60278D01*
X106676Y59676D01*
X107278Y58893D01*
X107656Y57980D01*
X107785Y57000D01*
X107656Y56020D01*
X107278Y55107D01*
X106676Y54324D01*
X105893Y53722D01*
X104980Y53344D01*
X104000Y53215D01*
X103020Y53344D01*
X102107Y53722D01*
X101323Y54324D01*
X100722Y55107D01*
X100350Y56006D01*
X98494D01*
Y41500D01*
X98418Y41120D01*
X98203Y40797D01*
X95218Y37812D01*
X94896Y37597D01*
X94515Y37521D01*
X94343D01*
Y37223D01*
X94245D01*
Y36562D01*
X101143Y29665D01*
X101323Y29676D01*
X102107Y30278D01*
X103020Y30656D01*
X104000Y30785D01*
X104980Y30656D01*
X105893Y30278D01*
X106676Y29676D01*
X107278Y28893D01*
X107656Y27980D01*
X107785Y27000D01*
X107656Y26020D01*
X107278Y25107D01*
X106676Y24324D01*
X105893Y23722D01*
X104980Y23344D01*
X104000Y23215D01*
X103020Y23344D01*
X102107Y23722D01*
X101323Y24324D01*
X100722Y25107D01*
X100344Y26020D01*
X100215Y27000D01*
X100306Y27690D01*
X96956Y31040D01*
X96494Y30848D01*
Y30160D01*
X97164Y29882D01*
X97854Y29354D01*
X98383Y28664D01*
X98715Y27861D01*
X98829Y27000D01*
X98715Y26138D01*
X98383Y25336D01*
X97854Y24646D01*
X97164Y24117D01*
X96362Y23785D01*
X95500Y23672D01*
X94639Y23785D01*
X93836Y24117D01*
X93146Y24646D01*
X92617Y25336D01*
X92285Y26138D01*
X92172Y27000D01*
X92285Y27861D01*
X92429Y28210D01*
X92372Y28299D01*
X92035Y28564D01*
X91361Y28285D01*
X90500Y28172D01*
X89639Y28285D01*
X88836Y28618D01*
X88541Y28843D01*
X88041Y28597D01*
Y24864D01*
X94912Y17994D01*
X100350D01*
X100722Y18893D01*
X101323Y19677D01*
X102107Y20278D01*
X103020Y20656D01*
X104000Y20785D01*
X104980Y20656D01*
X105893Y20278D01*
X106676Y19677D01*
X107278Y18893D01*
X107656Y17980D01*
X107785Y17000D01*
X107656Y16020D01*
X107278Y15107D01*
X106676Y14323D01*
X105893Y13722D01*
X104980Y13344D01*
X104000Y13215D01*
X103020Y13344D01*
X102107Y13722D01*
X101323Y14323D01*
X100722Y15107D01*
X100350Y16006D01*
X94500D01*
X94120Y16082D01*
X93797Y16297D01*
X86344Y23750D01*
X86129Y24072D01*
X86053Y24453D01*
Y28627D01*
X85672Y29007D01*
X85164Y28618D01*
X84361Y28285D01*
X83500Y28172D01*
X82639Y28285D01*
X81836Y28618D01*
X81146Y29146D01*
X80617Y29836D01*
X80285Y30639D01*
X80172Y31500D01*
X80285Y32362D01*
X80458Y32779D01*
X80124Y33279D01*
X77969D01*
X77800Y32779D01*
X78354Y32354D01*
X78883Y31664D01*
X79215Y30861D01*
X79329Y30000D01*
X79215Y29138D01*
X78883Y28336D01*
X78354Y27646D01*
X77664Y27117D01*
X77649Y27111D01*
X77748Y26611D01*
X84691D01*
Y18781D01*
X94892Y8580D01*
X100247D01*
Y10753D01*
X107753D01*
Y3247D01*
X100247D01*
Y5420D01*
X94237D01*
X93633Y5540D01*
X93120Y5883D01*
X82456Y16546D01*
X61437D01*
Y17920D01*
X51186D01*
Y15668D01*
Y12716D01*
X51080D01*
Y11740D01*
X51579D01*
Y8200D01*
X51780D01*
Y6822D01*
X49500D01*
X47221D01*
Y8200D01*
X47420D01*
Y11740D01*
X47920D01*
Y12716D01*
X47814D01*
Y13560D01*
X47114D01*
X46607Y13661D01*
X46355Y13829D01*
X45952Y13498D01*
X46215Y12862D01*
X46328Y12000D01*
X46215Y11139D01*
X45882Y10336D01*
X45354Y9646D01*
X44664Y9117D01*
X43861Y8785D01*
X43000Y8671D01*
X42138Y8785D01*
X41336Y9117D01*
X40646Y9646D01*
X40117Y10336D01*
X39785Y11139D01*
X39671Y12000D01*
X39779Y12815D01*
X38352Y14242D01*
X37890Y14051D01*
Y11220D01*
X37690D01*
Y8751D01*
X37709Y8655D01*
Y6197D01*
X39912Y3994D01*
X47221D01*
Y4822D01*
X49500D01*
X51780D01*
Y3994D01*
X61437D01*
Y11454D01*
X84691D01*
Y1389D01*
X61437D01*
Y2006D01*
X39500D01*
X39120Y2082D01*
X38797Y2297D01*
X36012Y5082D01*
X35796Y5405D01*
X35721Y5785D01*
Y7680D01*
X31759D01*
Y11220D01*
X31559D01*
Y12500D01*
X34724D01*
Y14500D01*
X31559D01*
Y15779D01*
X31759D01*
Y19006D01*
X29333D01*
X28241Y17914D01*
Y15161D01*
X22310D01*
Y19320D01*
X26835D01*
X28218Y20703D01*
X28541Y20918D01*
X28921Y20994D01*
X29587D01*
X30004Y21194D01*
Y24245D01*
X33957D01*
Y26245D01*
X30004D01*
Y28506D01*
X25412D01*
X24658Y27752D01*
Y26998D01*
X24582Y26618D01*
X24366Y26295D01*
X23639Y25567D01*
Y23527D01*
X19283D01*
Y28473D01*
X22731D01*
X22745Y28544D01*
X22961Y28866D01*
X24297Y30203D01*
X24620Y30418D01*
X25000Y30494D01*
X47500D01*
X47880Y30418D01*
X48203Y30203D01*
X50697Y27709D01*
X50912Y27387D01*
X50988Y27006D01*
Y26375D01*
X52981D01*
Y21625D01*
X51316D01*
X51049Y21125D01*
X51079Y21080D01*
X54171D01*
X54528Y21425D01*
X54528Y21580D01*
Y23000D01*
X56709D01*
X58890D01*
Y21580D01*
X58890Y21425D01*
X59247Y21080D01*
X61437D01*
Y26611D01*
X63920D01*
Y28618D01*
X63332Y29205D01*
X62990Y29718D01*
X62870Y30322D01*
Y37927D01*
X62370Y38135D01*
X59618Y35383D01*
X59105Y35040D01*
X58500Y34920D01*
X57209D01*
Y33391D01*
X54437D01*
X51665D01*
Y34920D01*
X51500D01*
X50895Y35040D01*
X50383Y35383D01*
X49597Y36168D01*
X49135Y35977D01*
Y33756D01*
X43991D01*
Y35343D01*
X38794D01*
X38697Y35362D01*
X34231D01*
Y40900D01*
X39768D01*
Y37332D01*
X43991D01*
Y38506D01*
X46839D01*
X47030Y38968D01*
X42578Y43420D01*
X30917D01*
X30882Y43336D01*
X30354Y42646D01*
X29664Y42118D01*
X28861Y41785D01*
X28000Y41671D01*
X27139Y41785D01*
X27019Y41834D01*
X26666Y41481D01*
X26715Y41361D01*
X26829Y40500D01*
X26715Y39639D01*
X26382Y38836D01*
X25867Y38164D01*
X25894Y37985D01*
X26003Y37664D01*
X27538D01*
Y40900D01*
X33075D01*
Y35362D01*
X27538D01*
Y35676D01*
X24582D01*
X23203Y34297D01*
X22880Y34082D01*
X22500Y34006D01*
X20473D01*
Y32861D01*
X15527D01*
X15494Y32375D01*
Y29247D01*
X16267Y28473D01*
X18717D01*
Y23527D01*
X15635D01*
X15443Y23065D01*
X18397Y20111D01*
X19930D01*
Y18106D01*
X20130D01*
Y17398D01*
X19930D01*
Y17094D01*
X17070D01*
Y17398D01*
X16870D01*
Y18106D01*
X17070D01*
Y18627D01*
X16392Y19305D01*
X15930Y19113D01*
Y18106D01*
X16130D01*
Y17398D01*
X15930D01*
Y17094D01*
X13070D01*
Y17398D01*
X12870D01*
Y17608D01*
X10615D01*
X10205Y17108D01*
X10285Y16500D01*
X10156Y15520D01*
X9778Y14607D01*
X9177Y13824D01*
X8393Y13222D01*
X7480Y12844D01*
X6500Y12715D01*
X5520Y12844D01*
X4607Y13222D01*
X3824Y13824D01*
X3222Y14607D01*
X2844Y15520D01*
X2715Y16500D01*
X2844Y17480D01*
X3222Y18393D01*
X3824Y19176D01*
X4607Y19778D01*
X5520Y20156D01*
X6500Y20285D01*
X7480Y20156D01*
X8393Y19778D01*
X8958Y19344D01*
X9222Y19521D01*
X9602Y19597D01*
X13070D01*
Y20111D01*
X14932D01*
X15124Y20573D01*
X12191Y23506D01*
X8763D01*
X8393Y23222D01*
X7480Y22844D01*
X6500Y22715D01*
X5520Y22844D01*
X4607Y23222D01*
X3824Y23823D01*
X3222Y24607D01*
X2844Y25520D01*
X2715Y26500D01*
X2844Y27480D01*
X3222Y28393D01*
X3824Y29177D01*
X4607Y29778D01*
X5520Y30156D01*
X6500Y30285D01*
X7480Y30156D01*
X8393Y29778D01*
X9177Y29177D01*
X9778Y28393D01*
X10156Y27480D01*
X10285Y26500D01*
X10219Y25994D01*
X10657Y25494D01*
X11608D01*
Y38549D01*
X11146Y38741D01*
X10077Y37671D01*
X10156Y37480D01*
X10285Y36500D01*
X10156Y35520D01*
X9778Y34607D01*
X9177Y33823D01*
X8393Y33222D01*
X7480Y32844D01*
X6500Y32715D01*
X5520Y32844D01*
X4607Y33222D01*
X3824Y33823D01*
X3222Y34607D01*
X2844Y35520D01*
X2715Y36500D01*
X2844Y37480D01*
X3222Y38393D01*
X3824Y39176D01*
X4607Y39778D01*
X5520Y40156D01*
X6500Y40285D01*
X7480Y40156D01*
X8393Y39778D01*
X8947Y39353D01*
X18556Y48962D01*
Y55497D01*
X18094Y55688D01*
X10077Y47671D01*
X10156Y47480D01*
X10285Y46500D01*
X10156Y45520D01*
X9778Y44607D01*
X9177Y43824D01*
X8393Y43222D01*
X7480Y42844D01*
X6500Y42715D01*
X5520Y42844D01*
X4607Y43222D01*
X3824Y43824D01*
X3222Y44607D01*
X2844Y45520D01*
X2715Y46500D01*
X2844Y47480D01*
X3222Y48393D01*
X3824Y49176D01*
X4607Y49778D01*
X5520Y50156D01*
X6500Y50285D01*
X7480Y50156D01*
X8393Y49778D01*
X8947Y49353D01*
X26063Y66468D01*
X25785Y67138D01*
X25671Y68000D01*
X25785Y68862D01*
X26118Y69664D01*
X26380Y70006D01*
X26133Y70506D01*
X24130D01*
Y70295D01*
X23930D01*
Y69991D01*
X22500D01*
X21070D01*
Y70295D01*
X20870D01*
Y71004D01*
X21070D01*
Y73009D01*
X21100D01*
Y74595D01*
X18681D01*
X18435Y74095D01*
X18588Y73894D01*
X19824D01*
Y71102D01*
X20024D01*
Y70000D01*
X18000D01*
X15976D01*
Y71102D01*
X16176D01*
Y71659D01*
X13383Y74453D01*
X13040Y74966D01*
X12920Y75571D01*
X13040Y76175D01*
X13383Y76688D01*
X13420Y76725D01*
Y77583D01*
X13336Y77617D01*
X12646Y78146D01*
X12117Y78836D01*
X11785Y79638D01*
X11671Y80500D01*
X11785Y81362D01*
X12117Y82164D01*
X12646Y82854D01*
X13336Y83383D01*
X14139Y83715D01*
X15000Y83829D01*
X15861Y83715D01*
X16664Y83383D01*
X17354Y82854D01*
X17883Y82164D01*
X18073Y81704D01*
X18609Y81460D01*
X19214Y81580D01*
X21063D01*
X21233Y82080D01*
X21146Y82146D01*
X20617Y82836D01*
X20285Y83639D01*
X20172Y84500D01*
X20285Y85361D01*
X20617Y86164D01*
X21146Y86854D01*
X21836Y87383D01*
X22638Y87715D01*
X23500Y87828D01*
X24315Y87721D01*
X25271Y88677D01*
X24988Y89101D01*
X24861Y89049D01*
X24000Y88935D01*
X23138Y89049D01*
X22336Y89381D01*
X21721Y89853D01*
X21460Y89768D01*
X21249Y89607D01*
X21328Y89000D01*
X21215Y88139D01*
X20883Y87336D01*
X20354Y86646D01*
X19664Y86117D01*
X18861Y85785D01*
X18000Y85672D01*
X17139Y85785D01*
X16336Y86117D01*
X15646Y86646D01*
X15117Y87336D01*
X14785Y88139D01*
X14672Y89000D01*
X14785Y89862D01*
X15117Y90664D01*
X15646Y91354D01*
X16336Y91883D01*
X17139Y92215D01*
X17706Y92290D01*
X21858Y96442D01*
X22180Y96657D01*
X22561Y96733D01*
X23681D01*
X24271Y97322D01*
Y98771D01*
X21220D01*
Y100638D01*
X20720Y100845D01*
X20437Y100563D01*
X20007Y100275D01*
X19500Y100174D01*
X13549D01*
X10237Y96863D01*
X10285Y96500D01*
X10156Y95520D01*
X9778Y94607D01*
X9177Y93823D01*
X8393Y93222D01*
X7480Y92844D01*
X6500Y92715D01*
X5520Y92844D01*
X4607Y93222D01*
X3824Y93823D01*
X3222Y94607D01*
X2844Y95520D01*
X2715Y96500D01*
X2844Y97480D01*
X3222Y98393D01*
X3824Y99177D01*
X4607Y99778D01*
X5520Y100156D01*
X6500Y100285D01*
X7480Y100156D01*
X8393Y99778D01*
X8965Y99339D01*
X12063Y102437D01*
X12493Y102725D01*
X13000Y102825D01*
X14278D01*
X14509Y103325D01*
X14117Y103836D01*
X13785Y104639D01*
X13671Y105500D01*
X13785Y106361D01*
X14117Y107164D01*
X14646Y107854D01*
X15336Y108382D01*
X16138Y108715D01*
X17000Y108828D01*
X17862Y108715D01*
X18664Y108382D01*
X19354Y107854D01*
X19883Y107164D01*
X20160Y106494D01*
X21220D01*
Y109229D01*
X24271D01*
Y112280D01*
X34729D01*
Y111288D01*
X35191Y111097D01*
X47297Y123203D01*
X47620Y123418D01*
X48000Y123494D01*
D02*
G37*
G36*
X71979Y98199D02*
Y94153D01*
X67933D01*
X67978Y94493D01*
X68495Y95742D01*
X69318Y96814D01*
X70390Y97637D01*
X71639Y98154D01*
X71979Y98199D01*
D02*
G37*
G36*
X91979D02*
Y94153D01*
X87933D01*
X87978Y94493D01*
X88495Y95742D01*
X89318Y96814D01*
X90390Y97637D01*
X91639Y98154D01*
X91979Y98199D01*
D02*
G37*
G36*
X93980D02*
X94320Y98154D01*
X95569Y97637D01*
X96641Y96814D01*
X97464Y95742D01*
X97981Y94493D01*
X98026Y94153D01*
X93980D01*
Y98199D01*
D02*
G37*
G36*
X67933Y92153D02*
X71979D01*
Y88106D01*
X71639Y88151D01*
X70390Y88668D01*
X69318Y89491D01*
X68495Y90564D01*
X67978Y91812D01*
X67933Y92153D01*
D02*
G37*
G36*
X82980Y107931D02*
X84216Y107768D01*
X85368Y107290D01*
X86358Y106531D01*
X87117Y105542D01*
X87595Y104389D01*
X87757Y103153D01*
X87595Y101916D01*
X87117Y100764D01*
X86358Y99774D01*
X85368Y99015D01*
X84216Y98537D01*
X82980Y98375D01*
X82762Y98403D01*
X82386Y98074D01*
Y94281D01*
X87834Y88834D01*
X88243Y88222D01*
X88386Y87500D01*
Y81230D01*
X88243Y80508D01*
X87834Y79896D01*
X86421Y78483D01*
X85809Y78075D01*
X85087Y77931D01*
X83382D01*
X82937Y77797D01*
Y76222D01*
X78000D01*
X73063D01*
Y77142D01*
X67756D01*
X67035Y77286D01*
X66423Y77695D01*
X65548Y78569D01*
X64862Y78285D01*
X64000Y78171D01*
X63139Y78285D01*
X62336Y78617D01*
X61646Y79146D01*
X61117Y79836D01*
X60785Y80638D01*
X60672Y81500D01*
X60785Y82362D01*
X61117Y83164D01*
X61646Y83854D01*
X62336Y84383D01*
X63139Y84715D01*
X64000Y84829D01*
X64862Y84715D01*
X65664Y84383D01*
X66354Y83854D01*
X66883Y83164D01*
X67215Y82362D01*
X67234Y82218D01*
X68538Y80915D01*
X72808D01*
X73063Y81309D01*
Y82884D01*
X78000D01*
X82937D01*
Y81703D01*
X84306D01*
X84614Y82011D01*
Y86719D01*
X79166Y92166D01*
X78757Y92778D01*
X78716Y92987D01*
X78183Y93161D01*
X78155Y93131D01*
X78158Y93153D01*
X78171Y93165D01*
X78158Y93153D01*
X78129Y92934D01*
X77981Y91812D01*
X77464Y90564D01*
X76641Y89491D01*
X75569Y88668D01*
X74320Y88151D01*
X73980Y88106D01*
Y93153D01*
Y98199D01*
X74320Y98154D01*
X75569Y97637D01*
X76641Y96814D01*
X77464Y95742D01*
X77981Y94493D01*
X78077Y93768D01*
X78114Y93741D01*
X78498Y93893D01*
X78614Y93997D01*
Y100673D01*
X78700Y101106D01*
X78364Y101916D01*
X78202Y103153D01*
X78364Y104389D01*
X78842Y105542D01*
X79601Y106531D01*
X80590Y107290D01*
X81743Y107768D01*
X82980Y107931D01*
D02*
G37*
G36*
X87933Y92153D02*
X91979D01*
Y88106D01*
X91639Y88151D01*
X90390Y88668D01*
X89318Y89491D01*
X88495Y90564D01*
X87978Y91812D01*
X87933Y92153D01*
D02*
G37*
G36*
X93980D02*
X98026D01*
X97981Y91812D01*
X97464Y90564D01*
X96641Y89491D01*
X95569Y88668D01*
X94320Y88151D01*
X93980Y88106D01*
Y92153D01*
D02*
G37*
G36*
X73063Y86459D02*
X77000D01*
Y84884D01*
X73063D01*
Y86459D01*
D02*
G37*
G36*
X79000D02*
X82937D01*
Y84884D01*
X79000D01*
Y86459D01*
D02*
G37*
G36*
X104000Y90785D02*
X104980Y90656D01*
X105893Y90278D01*
X106676Y89676D01*
X107278Y88893D01*
X107656Y87980D01*
X107785Y87000D01*
X107656Y86020D01*
X107278Y85107D01*
X106676Y84324D01*
X105893Y83722D01*
X104980Y83344D01*
X104000Y83215D01*
X103020Y83344D01*
X102107Y83722D01*
X101323Y84324D01*
X100722Y85107D01*
X100344Y86020D01*
X100215Y87000D01*
X100344Y87980D01*
X100722Y88893D01*
X101323Y89676D01*
X102107Y90278D01*
X103020Y90656D01*
X104000Y90785D01*
D02*
G37*
G36*
X6500Y90285D02*
X7480Y90156D01*
X8393Y89778D01*
X9177Y89176D01*
X9778Y88393D01*
X10156Y87480D01*
X10285Y86500D01*
X10156Y85520D01*
X9778Y84607D01*
X9177Y83824D01*
X8393Y83222D01*
X7480Y82844D01*
X6500Y82715D01*
X5520Y82844D01*
X4607Y83222D01*
X3824Y83824D01*
X3222Y84607D01*
X2844Y85520D01*
X2715Y86500D01*
X2844Y87480D01*
X3222Y88393D01*
X3824Y89176D01*
X4607Y89778D01*
X5520Y90156D01*
X6500Y90285D01*
D02*
G37*
G36*
Y80285D02*
X7480Y80156D01*
X8393Y79778D01*
X9177Y79176D01*
X9778Y78393D01*
X10156Y77480D01*
X10285Y76500D01*
X10156Y75520D01*
X9778Y74607D01*
X9177Y73823D01*
X8393Y73222D01*
X7480Y72844D01*
X6500Y72715D01*
X5520Y72844D01*
X4607Y73222D01*
X3824Y73823D01*
X3222Y74607D01*
X2844Y75520D01*
X2715Y76500D01*
X2844Y77480D01*
X3222Y78393D01*
X3824Y79176D01*
X4607Y79778D01*
X5520Y80156D01*
X6500Y80285D01*
D02*
G37*
G36*
X20870Y68295D02*
X21500D01*
Y67586D01*
X20870D01*
Y68295D01*
D02*
G37*
G36*
X23500D02*
X24130D01*
Y67586D01*
X23500D01*
Y68295D01*
D02*
G37*
G36*
X15976Y68000D02*
X17000D01*
Y66898D01*
X15976D01*
Y68000D01*
D02*
G37*
G36*
X19000D02*
X20024D01*
Y66898D01*
X19000D01*
Y68000D01*
D02*
G37*
G36*
X6500Y70285D02*
X7480Y70156D01*
X8393Y69778D01*
X9177Y69177D01*
X9778Y68393D01*
X10156Y67480D01*
X10285Y66500D01*
X10156Y65520D01*
X9778Y64607D01*
X9177Y63823D01*
X8393Y63222D01*
X7480Y62844D01*
X6500Y62715D01*
X5520Y62844D01*
X4607Y63222D01*
X3824Y63823D01*
X3222Y64607D01*
X2844Y65520D01*
X2715Y66500D01*
X2844Y67480D01*
X3222Y68393D01*
X3824Y69177D01*
X4607Y69778D01*
X5520Y70156D01*
X6500Y70285D01*
D02*
G37*
G36*
Y60285D02*
X7480Y60156D01*
X8393Y59778D01*
X9177Y59176D01*
X9778Y58393D01*
X10156Y57480D01*
X10285Y56500D01*
X10156Y55520D01*
X9778Y54607D01*
X9177Y53824D01*
X8393Y53222D01*
X7480Y52844D01*
X6500Y52715D01*
X5520Y52844D01*
X4607Y53222D01*
X3824Y53824D01*
X3222Y54607D01*
X2844Y55520D01*
X2715Y56500D01*
X2844Y57480D01*
X3222Y58393D01*
X3824Y59176D01*
X4607Y59778D01*
X5520Y60156D01*
X6500Y60285D01*
D02*
G37*
G36*
X104000Y50785D02*
X104980Y50656D01*
X105893Y50278D01*
X106676Y49676D01*
X107278Y48893D01*
X107656Y47980D01*
X107785Y47000D01*
X107656Y46020D01*
X107278Y45107D01*
X106676Y44324D01*
X105893Y43722D01*
X104980Y43344D01*
X104000Y43215D01*
X103020Y43344D01*
X102107Y43722D01*
X101323Y44324D01*
X100722Y45107D01*
X100344Y46020D01*
X100215Y47000D01*
X100344Y47980D01*
X100722Y48893D01*
X101323Y49676D01*
X102107Y50278D01*
X103020Y50656D01*
X104000Y50785D01*
D02*
G37*
G36*
X73941Y44921D02*
X76500D01*
Y42953D01*
X73941D01*
Y44921D01*
D02*
G37*
G36*
X78500D02*
X81059D01*
Y42953D01*
X78500D01*
Y44921D01*
D02*
G37*
G36*
X104000Y40785D02*
X104980Y40656D01*
X105893Y40278D01*
X106676Y39676D01*
X107278Y38893D01*
X107656Y37980D01*
X107785Y37000D01*
X107656Y36020D01*
X107278Y35107D01*
X106676Y34323D01*
X105893Y33722D01*
X104980Y33344D01*
X104000Y33215D01*
X103020Y33344D01*
X102107Y33722D01*
X101323Y34323D01*
X100722Y35107D01*
X100344Y36020D01*
X100215Y37000D01*
X100344Y37980D01*
X100722Y38893D01*
X101323Y39676D01*
X102107Y40278D01*
X103020Y40656D01*
X104000Y40785D01*
D02*
G37*
G36*
X51665Y31391D02*
X53437D01*
Y29816D01*
X51665D01*
Y31391D01*
D02*
G37*
G36*
X55437D02*
X57209D01*
Y29816D01*
X55437D01*
Y31391D01*
D02*
G37*
G36*
X54528Y26575D02*
X55709D01*
Y25000D01*
X54528D01*
Y26575D01*
D02*
G37*
G36*
X57709D02*
X58890D01*
Y25000D01*
X57709D01*
Y26575D01*
D02*
G37*
G36*
X16870Y15398D02*
X17500D01*
Y14689D01*
X16870D01*
Y15398D01*
D02*
G37*
G36*
X19500D02*
X20130D01*
Y14689D01*
X19500D01*
Y15398D01*
D02*
G37*
G36*
X12870Y15398D02*
X13500D01*
Y14689D01*
X12870D01*
Y15398D01*
D02*
G37*
G36*
X15500D02*
X16130D01*
Y14689D01*
X15500D01*
Y15398D01*
D02*
G37*
G36*
X31961Y5920D02*
X33437D01*
Y4247D01*
X31961D01*
Y5920D01*
D02*
G37*
%LPD*%
G36*
X28325Y106270D02*
X27772Y105443D01*
X26190Y102803D01*
X26587Y102493D01*
X32738Y108644D01*
X32546Y109106D01*
X30428D01*
X28325Y106270D01*
D02*
G37*
G36*
X26364Y99458D02*
X26269Y99394D01*
X26272Y99207D01*
X26420Y98894D01*
X33223D01*
X33376Y98925D01*
X34606D01*
Y101330D01*
Y106248D01*
X34406D01*
Y106846D01*
X33944Y107038D01*
X26364Y99458D01*
D02*
G37*
G36*
X26849Y93971D02*
X26882Y93928D01*
X27215Y93125D01*
X27329Y92264D01*
X27215Y91402D01*
X27163Y91276D01*
X27586Y90992D01*
X29785Y93191D01*
Y95720D01*
X28598D01*
X26849Y93971D01*
D02*
G37*
G36*
X26030Y86624D02*
X26382Y86164D01*
X26715Y85361D01*
X26829Y84500D01*
X26794Y84236D01*
X27267Y84002D01*
X29383Y86118D01*
X29895Y86460D01*
X30500Y86580D01*
X31345D01*
X31758Y86993D01*
Y91645D01*
X31258Y91852D01*
X26030Y86624D01*
D02*
G37*
G36*
X34854Y77646D02*
X34171Y77123D01*
X34168Y77100D01*
X34277Y76623D01*
X35783D01*
Y78044D01*
X35283Y78206D01*
X34854Y77646D01*
D02*
G37*
G36*
X26618Y78882D02*
X26105Y78540D01*
X25500Y78420D01*
X24285D01*
X23859Y78242D01*
Y76649D01*
X24359Y76479D01*
X24646Y76854D01*
X25336Y77383D01*
X26138Y77715D01*
X27000Y77829D01*
X27861Y77715D01*
X28664Y77383D01*
X29354Y76854D01*
X29531Y76623D01*
X30724D01*
X30832Y77100D01*
X30829Y77123D01*
X30146Y77646D01*
X29618Y78336D01*
X29285Y79138D01*
X29171Y80000D01*
X29282Y80840D01*
X29251Y80878D01*
X28842Y81107D01*
X26618Y78882D01*
D02*
G37*
G36*
X30329Y74500D02*
X30215Y73638D01*
X29948Y72994D01*
X30194Y72494D01*
X35783D01*
Y74635D01*
X30446D01*
X30329Y74500D01*
D02*
G37*
G36*
X50494Y81175D02*
Y79912D01*
X62207Y68199D01*
X62680Y68433D01*
X62672Y68500D01*
X62785Y69362D01*
X63117Y70164D01*
X63253Y70341D01*
X53411Y80183D01*
X52639Y80285D01*
X51836Y80617D01*
X51146Y81146D01*
X50994Y81345D01*
X50494Y81175D01*
D02*
G37*
G36*
X31620Y70006D02*
X31883Y69664D01*
X32215Y68862D01*
X32329Y68000D01*
X32262Y67494D01*
X32665Y66994D01*
X35783D01*
Y70506D01*
X31867D01*
X31620Y70006D01*
D02*
G37*
G36*
X66861Y65285D02*
X66000Y65171D01*
X65933Y65180D01*
X65699Y64707D01*
X66332Y64074D01*
X66922Y64191D01*
X67117Y64664D01*
X67326Y64936D01*
X67011Y65347D01*
X66861Y65285D01*
D02*
G37*
G36*
X25512Y63106D02*
X25703Y62644D01*
X27153D01*
X28714Y64205D01*
X28534Y64733D01*
X28139Y64785D01*
X27468Y65062D01*
X25512Y63106D01*
D02*
G37*
G36*
X28751Y61431D02*
X28943Y60969D01*
X35783D01*
Y65006D01*
X32326D01*
X28751Y61431D01*
D02*
G37*
G36*
X72354Y60646D02*
X72155Y60494D01*
X72325Y59994D01*
X73263D01*
Y61010D01*
X72763Y61180D01*
X72354Y60646D01*
D02*
G37*
G36*
X92111Y59282D02*
X92344Y58808D01*
X92500Y58829D01*
X93362Y58715D01*
X94164Y58383D01*
X94506Y58120D01*
X95006Y58367D01*
Y59000D01*
X95082Y59380D01*
X95297Y59703D01*
X100716Y65122D01*
X100344Y66020D01*
X100252Y66716D01*
X99724Y66895D01*
X92111Y59282D01*
D02*
G37*
G36*
X70662Y56746D02*
X70858Y56224D01*
X70889Y56204D01*
X71664Y55883D01*
X72354Y55354D01*
X72763Y54820D01*
X73263Y54990D01*
Y56906D01*
X70777D01*
X70662Y56746D01*
D02*
G37*
G36*
X31640Y58481D02*
X31883Y58164D01*
X32215Y57362D01*
X32329Y56500D01*
X32215Y55638D01*
X31883Y54836D01*
X31601Y54469D01*
X31848Y53969D01*
X33939D01*
X34320Y53893D01*
X34642Y53678D01*
X34801Y53519D01*
X35783D01*
Y55525D01*
Y58773D01*
X35476Y58978D01*
X35473Y58981D01*
X31886D01*
X31640Y58481D01*
D02*
G37*
G36*
X45257Y55525D02*
Y51813D01*
X45457D01*
Y50238D01*
X40520D01*
X35583D01*
Y51531D01*
X34389D01*
X34009Y51607D01*
X33687Y51822D01*
X33528Y51981D01*
X31472D01*
X28286Y48795D01*
X28466Y48267D01*
X28861Y48215D01*
X29664Y47883D01*
X30354Y47354D01*
X30882Y46664D01*
X30917Y46580D01*
X35117D01*
X35583Y46663D01*
Y48238D01*
X40520D01*
X45457D01*
Y46663D01*
X44433D01*
X44281Y46163D01*
X44350Y46117D01*
X51117Y39350D01*
X51365Y38979D01*
X51865Y39131D01*
Y42246D01*
X53443D01*
Y54651D01*
X46858Y61236D01*
X45257D01*
Y55525D01*
D02*
G37*
G36*
X67469Y50152D02*
Y45528D01*
X67931Y45337D01*
X69006Y46412D01*
Y49840D01*
X68336Y50117D01*
X67969Y50399D01*
X67469Y50152D01*
D02*
G37*
G36*
X90019Y52614D02*
Y45525D01*
X89943Y45145D01*
X89728Y44822D01*
X89411Y44505D01*
X89603Y44043D01*
X90508D01*
X90920Y44256D01*
Y52583D01*
X90836Y52617D01*
X90519Y52860D01*
X90019Y52614D01*
D02*
G37*
G36*
X94164Y52617D02*
X94080Y52583D01*
Y43843D01*
X94245D01*
Y43346D01*
X94389Y43131D01*
X94393Y43109D01*
X94954Y42851D01*
X94977Y42864D01*
X95006Y42913D01*
Y46250D01*
Y52633D01*
X94506Y52880D01*
X94164Y52617D01*
D02*
G37*
G36*
X45257Y85630D02*
Y81509D01*
Y77178D01*
Y72848D01*
Y68517D01*
Y63225D01*
X47270D01*
X47650Y63149D01*
X47973Y62933D01*
X55140Y55766D01*
X55355Y55443D01*
X55431Y55063D01*
Y42246D01*
X57009D01*
Y38080D01*
X57845D01*
X60883Y41118D01*
X61395Y41460D01*
X62000Y41580D01*
X62870D01*
Y49189D01*
X62138Y49285D01*
X61336Y49617D01*
X60646Y50146D01*
X60117Y50836D01*
X59785Y51639D01*
X59671Y52500D01*
X59785Y53361D01*
X60117Y54164D01*
X60646Y54854D01*
X61336Y55383D01*
X62138Y55715D01*
X63000Y55828D01*
X63862Y55715D01*
X64664Y55383D01*
X65136Y55021D01*
X65736Y55072D01*
X65753Y55081D01*
X65788Y55108D01*
X68378Y57699D01*
X68382Y58227D01*
X68326Y58354D01*
X65822Y60858D01*
X65607Y61180D01*
X65531Y61561D01*
Y62063D01*
X48797Y78797D01*
X48582Y79120D01*
X48506Y79500D01*
Y83088D01*
X45757Y85838D01*
X45257Y85630D01*
D02*
G37*
G36*
X90508Y40961D02*
X89324D01*
X88539Y40176D01*
Y38992D01*
X88339D01*
Y37839D01*
X91625D01*
X91661Y37848D01*
Y39192D01*
Y41161D01*
X90508D01*
Y40961D01*
D02*
G37*
D18*
X73064Y6421D02*
D03*
Y21579D02*
D03*
D19*
X25276Y17240D02*
D03*
Y9760D02*
D03*
X34724D02*
D03*
Y13500D02*
D03*
Y17240D02*
D03*
D20*
X54437Y39871D02*
D03*
Y32391D02*
D03*
X46563Y36131D02*
D03*
D21*
X56709Y24000D02*
D03*
X51000D02*
D03*
D22*
X30307Y38131D02*
D03*
X37000D02*
D03*
D23*
X49500Y5822D02*
D03*
Y9562D02*
D03*
D24*
Y17453D02*
D03*
Y14500D02*
D03*
D25*
X19673Y3000D02*
D03*
X16327D02*
D03*
D26*
X26039Y3247D02*
D03*
X30961D02*
D03*
D27*
X14500Y16398D02*
D03*
Y18602D02*
D03*
X18500Y16398D02*
D03*
Y18602D02*
D03*
X22500Y71500D02*
D03*
Y69295D02*
D03*
D28*
X77500Y41953D02*
D03*
Y36047D02*
D03*
D29*
X41043Y25245D02*
D03*
X33957D02*
D03*
D30*
X48500Y108543D02*
D03*
Y101457D02*
D03*
D31*
X18000Y71992D02*
D03*
Y69000D02*
D03*
D32*
X22094Y76418D02*
D03*
X18905D02*
D03*
D33*
X21461Y26000D02*
D03*
X16539D02*
D03*
D34*
X40520Y49238D02*
D03*
Y53569D02*
D03*
Y57900D02*
D03*
Y62230D02*
D03*
Y66561D02*
D03*
Y70892D02*
D03*
Y75222D02*
D03*
Y79553D02*
D03*
Y83884D02*
D03*
X78000Y49238D02*
D03*
Y53569D02*
D03*
Y57900D02*
D03*
Y62230D02*
D03*
Y66561D02*
D03*
Y70892D02*
D03*
Y75222D02*
D03*
Y79553D02*
D03*
Y83884D02*
D03*
D35*
X18000Y35039D02*
D03*
Y39961D02*
D03*
D36*
X22807Y100161D02*
D03*
Y102720D02*
D03*
Y105280D02*
D03*
Y107839D02*
D03*
X36193D02*
D03*
Y105280D02*
D03*
Y102720D02*
D03*
Y100161D02*
D03*
D37*
X25661Y97307D02*
D03*
X28220D02*
D03*
X30780D02*
D03*
X33339D02*
D03*
Y110693D02*
D03*
X30780D02*
D03*
X28220D02*
D03*
X25661D02*
D03*
D38*
X92953Y36498D02*
D03*
X90984D02*
D03*
X89016D02*
D03*
X87047D02*
D03*
Y42502D02*
D03*
X89016D02*
D03*
X90984D02*
D03*
X92953D02*
D03*
D39*
X86998Y38515D02*
D03*
Y40484D02*
D03*
X93002D02*
D03*
Y38515D02*
D03*
D67*
X50000Y38232D02*
X43233Y45000D01*
X28000D01*
X15000Y77500D02*
Y80500D01*
Y76071D02*
Y77500D01*
X32881Y49119D02*
X32500Y49500D01*
X40400Y49119D02*
X32881D01*
X12000Y121000D02*
X6500Y115500D01*
X18274Y68726D02*
Y69241D01*
X18699Y16199D02*
X18000Y15500D01*
X92479Y113653D02*
X71979D01*
X72006Y113105D02*
X71979Y113653D01*
X72493Y103122D02*
X72006Y113105D01*
X72979Y93153D02*
X72493Y103122D01*
X93072Y113491D02*
X92479Y113653D01*
X94313Y113153D02*
X93072Y113491D01*
X93525Y113477D02*
X92479Y113653D01*
X94499Y93524D02*
X93525Y113477D01*
X94499Y93524D02*
X93480Y93153D01*
X16082Y76418D02*
X15000Y77500D01*
Y76071D02*
X14500Y75571D01*
X18000Y72071D02*
X14500Y75571D01*
X50000Y38000D02*
Y38232D01*
X18905Y76418D02*
X16082D01*
X64450Y51050D02*
X63000Y52500D01*
X64450Y30322D02*
Y51050D01*
X27000Y24500D02*
Y25500D01*
Y24500D02*
X24000Y21500D01*
X14951Y4278D02*
X12728Y6500D01*
X16822Y12050D02*
X14450Y9678D01*
X20697Y12050D02*
X16822D01*
X20747Y12000D02*
X20697Y12050D01*
X22150Y12000D02*
X20747D01*
X15000Y4327D02*
Y5772D01*
X14450Y6322D01*
Y9678D01*
X18000Y15500D02*
X15398D01*
X14554Y16344D01*
X49500Y20000D02*
X45500Y24000D01*
X49500Y19500D02*
Y20000D01*
Y9562D02*
Y14500D01*
X70985Y19500D02*
X49500D01*
Y17453D02*
Y19500D01*
X43000Y12000D02*
Y13500D01*
X38500Y13060D02*
X38280Y13280D01*
X38500Y8000D02*
Y13060D01*
X38061Y13500D02*
X34724D01*
X30961Y13040D02*
Y13500D01*
Y3247D02*
Y13040D01*
X34724Y13500D02*
X30961D01*
X21700Y14300D02*
X21170Y14830D01*
X23102Y14300D02*
X21700D01*
X24363Y13040D02*
X23102Y14300D01*
X30961Y13040D02*
X24363D01*
X24390Y9760D02*
X22150Y12000D01*
X21170Y14830D02*
X19801Y16199D01*
X18699D01*
X21170Y14830D02*
Y18772D01*
X24000Y21500D02*
X23899D01*
X21170Y18772D01*
X40678Y5822D02*
X38500Y8000D01*
X49500Y5822D02*
X40678D01*
X48500Y108543D02*
X48003Y108046D01*
X36401D01*
X71979Y113653D02*
X53208Y113153D01*
X48598Y108543D01*
X48500D01*
X15896Y3333D02*
X14951Y4278D01*
X22446Y69241D02*
X18274D01*
Y68726D02*
X18000Y69000D01*
X33805Y32695D02*
X33500Y33000D01*
X54132Y32695D02*
X33805D01*
X54437Y32391D02*
X54132Y32695D01*
X60000Y30500D02*
X59330Y29830D01*
Y27015D02*
Y29830D01*
Y27015D02*
X56709Y24394D01*
X54437Y26665D01*
Y32391D01*
X71289Y41726D02*
X71062Y41500D01*
X77274Y41726D02*
X71289D01*
X77500Y41953D02*
X77274Y41726D01*
X84569Y46500D02*
X83138D01*
X86000Y47931D02*
X84569Y46500D01*
X85624Y40484D02*
X84207Y41901D01*
X84569Y46500D02*
X84207Y46138D01*
Y41901D02*
Y46138D01*
X86000Y47931D02*
Y59500D01*
X83138Y46500D02*
X78091Y41453D01*
X77500D01*
X92500Y42955D02*
Y55500D01*
X92929Y42526D02*
X92500Y42955D01*
X36193Y100161D02*
Y102720D01*
X36500Y98223D02*
X35621Y97344D01*
X36500Y98223D02*
Y99732D01*
X36193Y100039D01*
Y100161D01*
X35621Y97344D02*
X33376D01*
X33339Y97307D01*
Y86339D02*
X32000Y85000D01*
X19214Y80000D02*
X18905Y79692D01*
Y76418D02*
Y79692D01*
X25500Y80000D02*
X19214D01*
X30500Y85000D02*
X25500Y80000D01*
X32000Y85000D02*
X30500D01*
X33339Y86339D02*
Y97307D01*
X18000Y71992D02*
Y72071D01*
X51500Y36500D02*
X50000Y38000D01*
X58500Y36500D02*
X51500D01*
X62000Y40000D02*
X58500Y36500D01*
X63500Y40000D02*
X62000D01*
X65500Y29272D02*
X64450Y30322D01*
X65500Y25061D02*
Y29272D01*
X68982Y21579D02*
X65500Y25061D01*
X73064Y21579D02*
X68982D01*
X25276Y9760D02*
X24390D01*
X94237Y7000D02*
X79659Y21579D01*
X104000Y7000D02*
X94237D01*
X79659Y21579D02*
X73064D01*
X71985Y20500D02*
X70985Y19500D01*
X45500Y24000D02*
X42190D01*
X41043Y25147D01*
X39000Y121000D02*
X12000D01*
X15896Y3431D02*
X15000Y4327D01*
X16228Y3000D02*
X15896Y3333D01*
Y3431D01*
X16327Y3000D02*
X16228D01*
X12728Y6500D02*
X7500D01*
X6500Y5500D01*
X26039Y3247D02*
X25657Y3629D01*
Y9378D01*
X25276Y9760D01*
X98160Y117000D02*
X94313Y113153D01*
X104000Y117000D02*
X98160D01*
X78000Y88132D02*
X72979Y93153D01*
X78000Y83884D02*
Y88132D01*
D68*
X31061Y52975D02*
X23500Y45414D01*
Y40500D02*
Y45414D01*
X33939Y52975D02*
X31061D01*
X9602Y18602D02*
X6500Y15500D01*
X28500Y97027D02*
X24000Y92527D01*
X86025Y30061D02*
Y32939D01*
X69086Y59000D02*
X66525Y61561D01*
X76900Y59000D02*
X69086D01*
X66525Y62475D02*
X49500Y79500D01*
X66525Y61561D02*
Y62475D01*
X49500Y79500D02*
Y83500D01*
X47270Y62230D02*
X40520D01*
X54437Y55063D02*
X47270Y62230D01*
X54437Y39871D02*
Y55063D01*
X66000Y68500D02*
Y69000D01*
X53500Y81500D01*
Y83500D01*
X76000Y30000D02*
Y30500D01*
X67500Y39000D01*
X76500Y84000D02*
X70000D01*
X77808Y83692D02*
X77000Y84500D01*
X77722Y75500D02*
X76222Y74000D01*
X77000Y84500D02*
X76500Y84000D01*
X34389Y52525D02*
X33939Y52975D01*
X29000Y56126D02*
X21850Y48976D01*
X29000Y56126D02*
Y56500D01*
X20700Y48074D02*
Y55700D01*
X24975Y59975D02*
X20700Y55700D01*
X19550Y48550D02*
Y56176D01*
X25024Y61650D02*
X19550Y56176D01*
Y48550D02*
X6500Y35500D01*
X35884Y59975D02*
X24975D01*
X27564Y61650D02*
X25024D01*
X31914Y66000D02*
X27564Y61650D01*
X39476Y52525D02*
X34389D01*
X20700Y48074D02*
X12602Y39976D01*
X21850Y46476D02*
Y48976D01*
Y46476D02*
X19000Y43626D01*
Y41592D02*
Y43626D01*
X74250Y53000D02*
X70500D01*
X12602Y24500D02*
X6000D01*
X36179Y59681D02*
X35884Y59975D01*
X38739Y59681D02*
X36179D01*
X40520Y57900D02*
X38739Y59681D01*
X70500Y63000D02*
X70000D01*
X72661Y65161D02*
X70500Y63000D01*
X40520Y49238D02*
X40400Y49119D01*
X40520Y53569D02*
X39476Y52525D01*
X66475Y44101D02*
X66350Y43976D01*
X68500Y32000D02*
X66350Y34150D01*
X67500Y39000D02*
Y43500D01*
X75750Y52500D02*
X75250Y53000D01*
X71000Y52500D02*
X70500Y53000D01*
X76222Y74000D02*
X75222Y75000D01*
X76600Y65161D02*
X72661D01*
X70500Y53000D02*
X70000D01*
X78000Y57900D02*
X76900Y59000D01*
X70000Y46000D02*
X67500Y43500D01*
X76819Y53569D02*
X75750Y52500D01*
X78000Y83884D02*
X77808Y83692D01*
X75222Y75000D02*
X66000D01*
X69985Y57900D02*
X66475Y54389D01*
X40520Y83884D02*
X39636Y83000D01*
X78000Y57900D02*
X69985D01*
X66475Y44101D02*
Y54389D01*
X49500Y83500D02*
X40500Y92500D01*
X74750Y52500D02*
X74250Y53000D01*
X70000Y46000D02*
Y53000D01*
X35500Y83000D02*
X32500Y80000D01*
X78000Y75222D02*
X77722Y75500D01*
X66350Y34150D02*
Y43976D01*
X75250Y53000D02*
X74750Y52500D01*
X39636Y83000D02*
X35500D01*
X40520Y75222D02*
Y79553D01*
X78000Y66561D02*
X76600Y65161D01*
X27000Y74500D02*
X23954D01*
X23663Y26998D02*
Y28163D01*
X25000Y29500D02*
X23663Y28163D01*
X47500Y29500D02*
X25000D01*
X19673Y3000D02*
X18500Y4173D01*
Y8000D01*
X26161Y17240D02*
X25276D01*
X28921Y20000D02*
X26161Y17240D01*
X42000Y20000D02*
X28921D01*
X89025Y45525D02*
Y57602D01*
X104000Y72577D02*
X89025Y57602D01*
X91486Y35996D02*
X90984Y36498D01*
X91486Y35553D02*
Y35996D01*
X92057Y34982D02*
X91486Y35553D01*
X92501Y34982D02*
X92057D01*
X95500Y31982D02*
X92501Y34982D01*
X95500Y27000D02*
Y31982D01*
X89258Y32742D02*
Y36256D01*
X90500Y31500D02*
X89258Y32742D01*
X12602Y24500D02*
Y39976D01*
X17966Y19136D02*
X12602Y24500D01*
X18500Y18602D02*
Y18681D01*
X18045Y19136D02*
X17966D01*
X18500Y18681D02*
X18045Y19136D01*
X43000Y12000D02*
X42000D01*
X37500Y16500D01*
X38280Y13280D02*
X38061Y13500D01*
X18699Y16199D02*
X18500Y16398D01*
X36401Y108046D02*
X36193Y107839D01*
X22500Y69295D02*
X22446D01*
X56709Y24000D02*
Y24394D01*
X89016Y42502D02*
X88699Y42185D01*
Y41741D02*
Y42185D01*
X86998Y40484D02*
X85624D01*
X92953Y42502D02*
X92929Y42526D01*
X92953Y42502D02*
X90984D01*
X30780Y92780D02*
X23500Y85500D01*
Y84500D02*
Y85500D01*
X18000Y89000D02*
Y91178D01*
X22561Y95739D02*
X18000Y91178D01*
X30780Y92780D02*
Y97307D01*
X24093Y95739D02*
X22561D01*
X25661Y97307D02*
X24093Y95739D01*
X24000Y92264D02*
Y92527D01*
X17151Y75849D02*
X17000Y76000D01*
X14500Y18602D02*
X9602D01*
X87047Y33962D02*
X86025Y32939D01*
X87047Y29038D02*
X86025Y30061D01*
X89025Y45525D02*
X87068Y43568D01*
X104000Y72577D02*
Y77000D01*
X39959Y66000D02*
X31914D01*
X22500Y35000D02*
X18039D01*
X18000Y35039D01*
X24170Y36670D02*
X22500Y35000D01*
X28846Y36670D02*
X24170D01*
X40113Y75629D02*
X26000D01*
X29000Y68000D02*
X6500Y45500D01*
X39911Y71500D02*
X22500D01*
X40520Y70892D02*
X39911Y71500D01*
X23954Y74500D02*
X22094Y76359D01*
Y71905D02*
Y76359D01*
Y76418D01*
X40520Y75222D02*
X40113Y75629D01*
X40520Y66561D02*
X39959Y66000D01*
X49994Y27006D02*
X47500Y29500D01*
X30310Y21500D02*
X24000D01*
X33957Y25147D02*
X30310Y21500D01*
X28500Y97027D02*
X28220Y97307D01*
X105000Y122500D02*
X48000D01*
X108000Y101000D02*
Y119500D01*
X105000Y122500D01*
X108000Y101000D02*
X104000Y97000D01*
X48000Y122500D02*
X25661Y100161D01*
X22807D01*
X48500Y101457D02*
X43543D01*
X39720Y105280D01*
X36193D01*
X22807D02*
X22587Y105500D01*
X17000D01*
X22500Y71500D02*
X22094Y71905D01*
X37500Y16500D02*
X35465D01*
X39500Y3000D02*
X36715Y5785D01*
X69643Y3000D02*
X39500D01*
X35465Y16500D02*
X34724Y17240D01*
X38794Y36338D02*
X37000Y38131D01*
X46356Y36338D02*
X38794D01*
X46563Y36131D02*
X46356Y36338D01*
X73064Y21579D02*
X71985Y20500D01*
X49994Y25006D02*
Y27006D01*
X51000Y24000D02*
X49994Y25006D01*
X23663Y26998D02*
X22461Y25795D01*
Y25500D02*
Y25795D01*
X30307Y38131D02*
X28846Y36670D01*
X15094Y40389D02*
X14500Y39795D01*
X17797Y40389D02*
X15094D01*
X19000Y41592D02*
X17797Y40389D01*
X14500Y28835D02*
Y39795D01*
X17539Y25795D02*
X14500Y28835D01*
X17539Y25500D02*
Y25795D01*
X73064Y6421D02*
X69643Y3000D01*
X36715Y5785D02*
Y8655D01*
X35610Y9760D01*
X34724D01*
X87068Y42523D02*
Y43568D01*
Y42523D02*
X87047Y42502D01*
X96000Y46250D02*
Y59000D01*
Y42000D02*
Y46250D01*
X84000Y37000D02*
X83171D01*
X80671Y34500D01*
X85515Y38515D02*
X84000Y37000D01*
X87047Y33962D02*
Y36498D01*
X80671Y34500D02*
X78547D01*
X78000Y35047D01*
X86998Y38515D02*
X85515D01*
X102402Y27000D02*
X92953Y36449D01*
X104000Y27000D02*
X102402D01*
X87047Y24453D02*
Y29038D01*
X94500Y17000D02*
X87047Y24453D01*
X104000Y17000D02*
X94500D01*
X89258Y36256D02*
X89016Y36498D01*
X92953Y36449D02*
Y36498D01*
X88699Y41741D02*
X87758Y40801D01*
X87315D02*
X86998Y40484D01*
X87758Y40801D02*
X87315D01*
X94515Y38515D02*
X93002D01*
X97500Y41500D02*
X94515Y38515D01*
X97500Y41500D02*
Y56500D01*
X98000Y57000D02*
X97500Y56500D01*
X104000Y57000D02*
X98000D01*
X94484Y40484D02*
X93002D01*
X96000Y42000D02*
X94484Y40484D01*
X104000Y67000D02*
X96000Y59000D01*
D69*
X82980Y103153D02*
X80500Y100673D01*
Y93500D02*
Y100673D01*
X86500Y87500D02*
X80500Y93500D01*
X65285Y81500D02*
X64000D01*
X86500Y81230D02*
Y87500D01*
X67756Y79028D02*
X65285Y81500D01*
X78000Y79553D02*
X77475Y79028D01*
X67756D01*
X86500Y81230D02*
X85087Y79817D01*
X78264D01*
X78000Y79553D01*
D70*
X47114Y14886D02*
X42000Y20000D01*
X49114Y14886D02*
X47114D01*
X49500Y14500D02*
X49114Y14886D01*
X20630Y102630D02*
X19500Y101500D01*
X13000D02*
X6000Y94500D01*
X19500Y101500D02*
X13000D01*
X22716Y102630D02*
X20630D01*
X22807Y102720D02*
X22716Y102630D01*
D71*
X6500Y116500D02*
D03*
Y106500D02*
D03*
Y96500D02*
D03*
Y86500D02*
D03*
Y76500D02*
D03*
Y66500D02*
D03*
Y56500D02*
D03*
Y46500D02*
D03*
Y36500D02*
D03*
Y26500D02*
D03*
Y16500D02*
D03*
X104000Y117000D02*
D03*
Y107000D02*
D03*
Y97000D02*
D03*
Y87000D02*
D03*
Y77000D02*
D03*
Y67000D02*
D03*
Y57000D02*
D03*
Y47000D02*
D03*
Y37000D02*
D03*
Y27000D02*
D03*
Y17000D02*
D03*
D72*
X6500Y6500D02*
D03*
X104000Y7000D02*
D03*
D73*
X92980Y93153D02*
D03*
X72979D02*
D03*
Y113153D02*
D03*
X92980D02*
D03*
D74*
X82980Y103153D02*
D03*
D75*
X28000Y45000D02*
D03*
X23500Y40500D02*
D03*
X83500Y31500D02*
D03*
X66000Y68500D02*
D03*
X76000Y30000D02*
D03*
X32500Y49500D02*
D03*
X70000Y84000D02*
D03*
X29000Y56500D02*
D03*
X70000Y63000D02*
D03*
X64000Y81500D02*
D03*
X15000Y80500D02*
D03*
X66000Y75000D02*
D03*
X32500Y80000D02*
D03*
X68500Y32000D02*
D03*
X70000Y53000D02*
D03*
X40500Y92500D02*
D03*
X27000Y74500D02*
D03*
X63000Y52500D02*
D03*
X27000Y25500D02*
D03*
X53500Y83500D02*
D03*
X18500Y8000D02*
D03*
X90500Y31500D02*
D03*
X43000Y12000D02*
D03*
X71062Y41500D02*
D03*
X23500Y84500D02*
D03*
X18000Y89000D02*
D03*
X24000Y92264D02*
D03*
X60000Y30500D02*
D03*
X86000Y59500D02*
D03*
X29000Y68000D02*
D03*
X33500Y33000D02*
D03*
X39000Y121000D02*
D03*
X17000Y105500D02*
D03*
X92500Y55500D02*
D03*
X95500Y27000D02*
D03*
D76*
X76500Y106500D02*
D03*
X46563Y126153D02*
D03*
X19500Y63500D02*
D03*
X46606Y115319D02*
D03*
X56500Y127500D02*
D03*
X103500Y127000D02*
D03*
X62429Y126605D02*
D03*
X87976Y126724D02*
D03*
X93925Y125537D02*
D03*
X60000Y97500D02*
D03*
X67942Y125523D02*
D03*
X72805Y127554D02*
D03*
X65000Y99000D02*
D03*
X86340Y118796D02*
D03*
X79500Y119500D02*
D03*
X87000Y66500D02*
D03*
X51192Y53095D02*
D03*
X54736Y90760D02*
D03*
X63000Y105000D02*
D03*
X66072Y109619D02*
D03*
X97482Y106110D02*
D03*
X97610Y100475D02*
D03*
X97000Y85000D02*
D03*
X95500Y74000D02*
D03*
X91500Y70000D02*
D03*
X70000Y103000D02*
D03*
X94500Y79500D02*
D03*
X86500Y73000D02*
D03*
X49000Y66500D02*
D03*
Y75500D02*
D03*
X90500Y106000D02*
D03*
X89500Y100000D02*
D03*
X85000Y96000D02*
D03*
X91500Y84500D02*
D03*
X89500Y77500D02*
D03*
X52500Y62000D02*
D03*
X52000Y71000D02*
D03*
X83000Y110500D02*
D03*
M02*
