G04*
G04 #@! TF.GenerationSoftware,Altium Limited,Altium Designer,19.1.8 (144)*
G04*
G04 Layer_Color=16711935*
%FSLAX25Y25*%
%MOIN*%
G70*
G01*
G75*
%ADD12C,0.00394*%
%ADD84C,0.00500*%
%ADD86R,0.01067X0.02165*%
D12*
X39575Y50222D02*
G03*
X39575Y50222I1969J0D01*
G01*
X83300Y2583D02*
X62828D01*
X83300Y25417D02*
X62828D01*
X83300Y2583D02*
Y25417D01*
X62828Y2583D02*
Y25417D01*
X33346Y7594D02*
X26654D01*
X33346Y19406D02*
X26654D01*
Y7594D02*
Y19406D01*
X33346Y7594D02*
Y19406D01*
X53059Y30383D02*
Y41879D01*
X47941Y30383D02*
Y41879D01*
X53059D02*
X47941D01*
X53059Y30383D02*
X47941D01*
X57004Y25575D02*
X50705D01*
X57004Y22425D02*
Y25575D01*
X50705Y22425D02*
Y25575D01*
X57004Y22425D02*
X50705D01*
X50583Y5625D02*
X48417D01*
X50583Y9759D02*
X48417D01*
X50583Y5625D02*
Y9759D01*
X48417Y5625D02*
Y9759D01*
Y13909D02*
Y18043D01*
X50583Y13909D02*
Y18043D01*
X48417D01*
X50583Y13909D02*
X48417D01*
X20067Y1917D02*
Y4083D01*
X15933Y1917D02*
Y4083D01*
X20067D02*
X15933D01*
X20067Y1917D02*
X15933D01*
X31846Y1475D02*
X25154D01*
X31846Y5019D02*
X25154D01*
Y1475D02*
Y5019D01*
X31846Y1475D02*
Y5019D01*
X15150Y16260D02*
Y18740D01*
X13850Y16260D02*
Y18740D01*
X15150Y16260D02*
X13850D01*
X15150Y18740D02*
X13850D01*
X19150Y16260D02*
Y18740D01*
X17850Y16260D02*
Y18740D01*
X19150Y16260D02*
X17850D01*
X19150Y18740D02*
X17850D01*
X80157Y43134D02*
X74843D01*
X80157Y34866D02*
X74843D01*
Y43134D01*
X80157Y34866D02*
Y43134D01*
X41831Y28099D02*
X33169D01*
X41831Y22391D02*
X33169D01*
X41831D02*
Y28099D01*
X33169Y22391D02*
Y28099D01*
X51354Y109331D02*
X45646D01*
X51354Y100669D02*
X45646D01*
Y109331D01*
X51354Y100669D02*
Y109331D01*
X16917Y68429D02*
Y72563D01*
X19083Y68429D02*
Y72563D01*
X16917D01*
X19083Y68429D02*
X16917D01*
X22567Y77501D02*
X18433D01*
X22567Y75336D02*
X18433D01*
X22567D02*
Y77501D01*
X18433Y75336D02*
Y77501D01*
X21850Y69157D02*
Y71638D01*
X23149Y69157D02*
Y71638D01*
X21850D01*
X23149Y69157D02*
X21850D01*
X22445Y24130D02*
Y27870D01*
X15555Y24130D02*
Y27870D01*
X22445D02*
X15555D01*
X22445Y24130D02*
X15555D01*
X61100Y87150D02*
X58620D01*
X61100Y85850D02*
X58620D01*
Y87150D01*
X61100Y85850D02*
Y87150D01*
X71650Y69260D02*
Y71740D01*
X70350Y69260D02*
Y71740D01*
X71650D02*
X70350D01*
X71650Y69260D02*
X70350D01*
X38000Y46679D02*
Y86443D01*
X80520Y46679D02*
Y86443D01*
Y46679D02*
X38000D01*
X80520Y86443D02*
X38000D01*
X19870Y34055D02*
X16130D01*
X19870Y40945D02*
X16130D01*
X19870Y34055D02*
Y40945D01*
X16130Y34055D02*
Y40945D01*
X58531Y90311D02*
Y91689D01*
X61091Y90311D02*
Y91689D01*
X58531D01*
X61091Y90311D02*
X58531D01*
X37374Y96126D02*
Y111874D01*
X21626Y96126D02*
Y111874D01*
X37374D02*
X21626D01*
X37374Y96126D02*
X21626D01*
X93937Y35563D02*
Y43437D01*
Y35563D02*
X86063D01*
X93937Y43437D02*
X86063D01*
Y35563D02*
Y43437D01*
X95578Y90554D02*
Y115751D01*
Y90554D02*
X70381D01*
Y115751D01*
X95578D02*
X70381D01*
D84*
X60516Y51890D02*
Y77795D01*
Y51890D02*
X40713D01*
X60516Y77795D02*
X40713D01*
Y51890D02*
Y77795D01*
D86*
X22033Y76418D02*
D03*
M02*
