M48
;Layer_Color=9474304
;FILE_FORMAT=2:5
INCH,LZ
;TYPE=PLATED
T1F00S00C0.01968
T2F00S00C0.02800
T3F00S00C0.03543
T4F00S00C0.05906
T5F00S00C0.06299
%
T01
X0059308Y0053095
X0058Y0062
X00615Y00665
X00585Y0071
X00615Y00755
X0091Y00635
X0063894Y0115319
X0063937Y0126153
X0054Y01275
X0048071Y0126605
X0042558Y0125523
X0037695Y0127554
X0031Y01195
X002416Y0118796
X0022524Y0126724
X0016575Y0125537
X0007Y0127
X0013018Y010611
X001289Y0100475
X0021Y01
X002Y0106
X00275Y01105
X0034Y01065
X00405Y0103
X00455Y0099
X00505Y00975
X00475Y0105
X0044428Y0109619
X0055764Y009076
X00255Y0096
X0019Y00845
X00135Y0085
X0016Y00795
X0015Y0074
X0019Y007
X00235Y00665
X0024Y0073
X0021Y00775
T02
X0015Y0027
X002Y00315
X0027
X00345Y003
X0042Y0032
X00505Y00305
X0039437Y00415
X00405Y0053
X00475Y00525
X0018Y00555
X0078Y00495
X00825Y0045
X0087Y00405
X0077Y0033
X00835Y00255
X0092Y0008
X00675Y0012
X00815Y00565
Y0068
X00835Y00745
X0078Y008
X0087Y00845
X00865Y0092264
X00925Y0089
X00955Y00805
X00935Y01055
X007Y00925
X0057Y00835
X00715Y0121
X00465Y00815
X00405Y0084
X00445Y0075
Y00685
X00405Y0063
X00245Y00595
T03
X00065Y0007
Y0017
Y0027
Y0037
Y0047
X0104Y00465
Y00365
Y00265
Y00165
Y00065
Y00565
Y00665
Y00765
Y00865
Y00965
Y01065
Y01165
X00065Y0117
Y0107
Y0097
Y0087
Y0077
Y0067
Y0057
T04
X002752Y0103153
T05
X0017521Y0093153
X0037521
Y0113153
X0017521
M30
