G04*
G04 #@! TF.GenerationSoftware,Altium Limited,Altium Designer,19.1.8 (144)*
G04*
G04 Layer_Color=16711935*
%FSLAX25Y25*%
%MOIN*%
G70*
G01*
G75*
%ADD48R,0.02060X0.02217*%
%ADD61C,0.06706*%
%ADD62R,0.06706X0.06706*%
%ADD63C,0.09068*%
%ADD64C,0.08674*%
%ADD65C,0.05800*%
%ADD66C,0.04737*%
%ADD81R,0.02217X0.02060*%
%ADD82R,0.06627X0.21115*%
%ADD83R,0.01757X0.01981*%
D48*
X71000Y71602D02*
D03*
Y69398D02*
D03*
D61*
X6500Y116500D02*
D03*
Y106500D02*
D03*
Y96500D02*
D03*
Y86500D02*
D03*
Y76500D02*
D03*
Y66500D02*
D03*
Y56500D02*
D03*
Y46500D02*
D03*
Y36500D02*
D03*
Y26500D02*
D03*
Y16500D02*
D03*
X104000Y117000D02*
D03*
Y107000D02*
D03*
Y97000D02*
D03*
Y87000D02*
D03*
Y77000D02*
D03*
Y67000D02*
D03*
Y57000D02*
D03*
Y47000D02*
D03*
Y37000D02*
D03*
Y27000D02*
D03*
Y17000D02*
D03*
D62*
X6500Y6500D02*
D03*
X104000Y7000D02*
D03*
D63*
X92980Y93153D02*
D03*
X72979D02*
D03*
Y113153D02*
D03*
X92980D02*
D03*
D64*
X82980Y103153D02*
D03*
D65*
X28000Y45000D02*
D03*
X23500Y40500D02*
D03*
X83500Y31500D02*
D03*
X66000Y68500D02*
D03*
X76000Y30000D02*
D03*
X32500Y49500D02*
D03*
X70000Y84000D02*
D03*
X29000Y56500D02*
D03*
X70000Y63000D02*
D03*
X64000Y81500D02*
D03*
X15000Y80500D02*
D03*
X66000Y75000D02*
D03*
X32500Y80000D02*
D03*
X68500Y32000D02*
D03*
X70000Y53000D02*
D03*
X40500Y92500D02*
D03*
X27000Y74500D02*
D03*
X63000Y52500D02*
D03*
X27000Y25500D02*
D03*
X53500Y83500D02*
D03*
X18500Y8000D02*
D03*
X90500Y31500D02*
D03*
X43000Y12000D02*
D03*
X71062Y41500D02*
D03*
X23500Y84500D02*
D03*
X18000Y89000D02*
D03*
X24000Y92264D02*
D03*
X60000Y30500D02*
D03*
X86000Y59500D02*
D03*
X29000Y68000D02*
D03*
X33500Y33000D02*
D03*
X39000Y121000D02*
D03*
X17000Y105500D02*
D03*
X92500Y55500D02*
D03*
X95500Y27000D02*
D03*
D66*
X76500Y106500D02*
D03*
X46563Y126153D02*
D03*
X19500Y63500D02*
D03*
X46606Y115319D02*
D03*
X56500Y127500D02*
D03*
X103500Y127000D02*
D03*
X62429Y126605D02*
D03*
X87976Y126724D02*
D03*
X93925Y125537D02*
D03*
X60000Y97500D02*
D03*
X67942Y125523D02*
D03*
X72805Y127554D02*
D03*
X65000Y99000D02*
D03*
X86340Y118796D02*
D03*
X79500Y119500D02*
D03*
X87000Y66500D02*
D03*
X51192Y53095D02*
D03*
X54736Y90760D02*
D03*
X63000Y105000D02*
D03*
X66072Y109619D02*
D03*
X97482Y106110D02*
D03*
X97610Y100475D02*
D03*
X97000Y85000D02*
D03*
X95500Y74000D02*
D03*
X91500Y70000D02*
D03*
X70000Y103000D02*
D03*
X94500Y79500D02*
D03*
X86500Y73000D02*
D03*
X49000Y66500D02*
D03*
Y75500D02*
D03*
X90500Y106000D02*
D03*
X89500Y100000D02*
D03*
X85000Y96000D02*
D03*
X91500Y84500D02*
D03*
X89500Y77500D02*
D03*
X52500Y62000D02*
D03*
X52000Y71000D02*
D03*
X83000Y110500D02*
D03*
D81*
X58758Y86500D02*
D03*
X60963D02*
D03*
D82*
X59000Y70000D02*
D03*
X41953Y59685D02*
D03*
D83*
X59122Y91000D02*
D03*
X60500D02*
D03*
M02*
