G04*
G04 #@! TF.GenerationSoftware,Altium Limited,Altium Designer,19.1.8 (144)*
G04*
G04 Layer_Color=8388736*
%FSLAX25Y25*%
%MOIN*%
G70*
G01*
G75*
%ADD22R,0.03937X0.03937*%
%ADD40R,0.22453X0.09265*%
%ADD41R,0.05131X0.03359*%
%ADD42R,0.04343X0.03950*%
%ADD43R,0.03162X0.03950*%
%ADD44R,0.03359X0.03556*%
%ADD45R,0.02572X0.02769*%
%ADD46R,0.03162X0.02965*%
%ADD47R,0.03753X0.04147*%
%ADD48R,0.02060X0.02217*%
%ADD49R,0.05918X0.04737*%
%ADD50R,0.06706X0.06902*%
%ADD51R,0.06902X0.06706*%
%ADD52R,0.02847X0.03005*%
%ADD53R,0.02729X0.02847*%
%ADD54R,0.03556X0.04147*%
%ADD55R,0.08674X0.03950*%
%ADD56R,0.04147X0.03556*%
%ADD57R,0.02362X0.01968*%
%ADD58R,0.01968X0.02362*%
%ADD59R,0.01784X0.01883*%
%ADD60R,0.01883X0.01784*%
%ADD61C,0.06706*%
%ADD62R,0.06706X0.06706*%
%ADD63C,0.09068*%
%ADD64C,0.08674*%
%ADD65C,0.05800*%
%ADD66C,0.04737*%
D22*
X30307Y38131D02*
D03*
X37000D02*
D03*
D40*
X73064Y6421D02*
D03*
Y21579D02*
D03*
D41*
X25276Y17240D02*
D03*
Y9760D02*
D03*
X34724D02*
D03*
Y13500D02*
D03*
Y17240D02*
D03*
D42*
X54437Y39871D02*
D03*
Y32391D02*
D03*
X46563Y36131D02*
D03*
D43*
X56709Y24000D02*
D03*
X51000D02*
D03*
D44*
X49500Y5822D02*
D03*
Y9562D02*
D03*
D45*
Y17453D02*
D03*
Y14500D02*
D03*
D46*
X19673Y3000D02*
D03*
X16327D02*
D03*
D47*
X26039Y3247D02*
D03*
X30961D02*
D03*
D48*
X14500Y16398D02*
D03*
Y18602D02*
D03*
X18500Y16398D02*
D03*
Y18602D02*
D03*
X22500Y71500D02*
D03*
Y69295D02*
D03*
D49*
X77500Y41953D02*
D03*
Y36047D02*
D03*
D50*
X41043Y25245D02*
D03*
X33957D02*
D03*
D51*
X48500Y108543D02*
D03*
Y101457D02*
D03*
D52*
X18000Y71992D02*
D03*
Y69000D02*
D03*
D53*
X22094Y76418D02*
D03*
X18905D02*
D03*
D54*
X21461Y26000D02*
D03*
X16539D02*
D03*
D55*
X40520Y49238D02*
D03*
Y53569D02*
D03*
Y57900D02*
D03*
Y62230D02*
D03*
Y66561D02*
D03*
Y70892D02*
D03*
Y75222D02*
D03*
Y79553D02*
D03*
Y83884D02*
D03*
X78000Y49238D02*
D03*
Y53569D02*
D03*
Y57900D02*
D03*
Y62230D02*
D03*
Y66561D02*
D03*
Y70892D02*
D03*
Y75222D02*
D03*
Y79553D02*
D03*
Y83884D02*
D03*
D56*
X18000Y35039D02*
D03*
Y39961D02*
D03*
D57*
X22807Y100161D02*
D03*
Y102720D02*
D03*
Y105280D02*
D03*
Y107839D02*
D03*
X36193D02*
D03*
Y105280D02*
D03*
Y102720D02*
D03*
Y100161D02*
D03*
D58*
X25661Y97307D02*
D03*
X28220D02*
D03*
X30780D02*
D03*
X33339D02*
D03*
Y110693D02*
D03*
X30780D02*
D03*
X28220D02*
D03*
X25661D02*
D03*
D59*
X92953Y36498D02*
D03*
X90984D02*
D03*
X89016D02*
D03*
X87047D02*
D03*
Y42502D02*
D03*
X89016D02*
D03*
X90984D02*
D03*
X92953D02*
D03*
D60*
X86998Y38515D02*
D03*
Y40484D02*
D03*
X93002D02*
D03*
Y38515D02*
D03*
D61*
X6500Y116500D02*
D03*
Y106500D02*
D03*
Y96500D02*
D03*
Y86500D02*
D03*
Y76500D02*
D03*
Y66500D02*
D03*
Y56500D02*
D03*
Y46500D02*
D03*
Y36500D02*
D03*
Y26500D02*
D03*
Y16500D02*
D03*
X104000Y117000D02*
D03*
Y107000D02*
D03*
Y97000D02*
D03*
Y87000D02*
D03*
Y77000D02*
D03*
Y67000D02*
D03*
Y57000D02*
D03*
Y47000D02*
D03*
Y37000D02*
D03*
Y27000D02*
D03*
Y17000D02*
D03*
D62*
X6500Y6500D02*
D03*
X104000Y7000D02*
D03*
D63*
X92980Y93153D02*
D03*
X72979D02*
D03*
Y113153D02*
D03*
X92980D02*
D03*
D64*
X82980Y103153D02*
D03*
D65*
X28000Y45000D02*
D03*
X23500Y40500D02*
D03*
X83500Y31500D02*
D03*
X66000Y68500D02*
D03*
X76000Y30000D02*
D03*
X32500Y49500D02*
D03*
X70000Y84000D02*
D03*
X29000Y56500D02*
D03*
X70000Y63000D02*
D03*
X64000Y81500D02*
D03*
X15000Y80500D02*
D03*
X66000Y75000D02*
D03*
X32500Y80000D02*
D03*
X68500Y32000D02*
D03*
X70000Y53000D02*
D03*
X40500Y92500D02*
D03*
X27000Y74500D02*
D03*
X63000Y52500D02*
D03*
X27000Y25500D02*
D03*
X53500Y83500D02*
D03*
X18500Y8000D02*
D03*
X90500Y31500D02*
D03*
X43000Y12000D02*
D03*
X71062Y41500D02*
D03*
X23500Y84500D02*
D03*
X18000Y89000D02*
D03*
X24000Y92264D02*
D03*
X60000Y30500D02*
D03*
X86000Y59500D02*
D03*
X29000Y68000D02*
D03*
X33500Y33000D02*
D03*
X39000Y121000D02*
D03*
X17000Y105500D02*
D03*
X92500Y55500D02*
D03*
X95500Y27000D02*
D03*
D66*
X76500Y106500D02*
D03*
X46563Y126153D02*
D03*
X19500Y63500D02*
D03*
X46606Y115319D02*
D03*
X56500Y127500D02*
D03*
X103500Y127000D02*
D03*
X62429Y126605D02*
D03*
X87976Y126724D02*
D03*
X93925Y125537D02*
D03*
X60000Y97500D02*
D03*
X67942Y125523D02*
D03*
X72805Y127554D02*
D03*
X65000Y99000D02*
D03*
X86340Y118796D02*
D03*
X79500Y119500D02*
D03*
X87000Y66500D02*
D03*
X51192Y53095D02*
D03*
X54736Y90760D02*
D03*
X63000Y105000D02*
D03*
X66072Y109619D02*
D03*
X97482Y106110D02*
D03*
X97610Y100475D02*
D03*
X97000Y85000D02*
D03*
X95500Y74000D02*
D03*
X91500Y70000D02*
D03*
X70000Y103000D02*
D03*
X94500Y79500D02*
D03*
X86500Y73000D02*
D03*
X49000Y66500D02*
D03*
Y75500D02*
D03*
X90500Y106000D02*
D03*
X89500Y100000D02*
D03*
X85000Y96000D02*
D03*
X91500Y84500D02*
D03*
X89500Y77500D02*
D03*
X52500Y62000D02*
D03*
X52000Y71000D02*
D03*
X83000Y110500D02*
D03*
M02*
