G04*
G04 #@! TF.GenerationSoftware,Altium Limited,Altium Designer,19.1.8 (144)*
G04*
G04 Layer_Color=32768*
%FSLAX25Y25*%
%MOIN*%
G70*
G01*
G75*
%ADD12C,0.00394*%
%ADD84C,0.00500*%
%ADD85C,0.00197*%
%ADD87C,0.00600*%
D12*
X84285Y-665D02*
X61844D01*
X84285Y28665D02*
X61844D01*
X84285Y-665D02*
Y28665D01*
X61844Y-665D02*
Y28665D01*
X73064Y12032D02*
Y15969D01*
X75033Y14000D02*
X71096D01*
X30000Y11532D02*
Y15469D01*
X31968Y13500D02*
X28031D01*
X52468Y36131D02*
X48531D01*
X50500Y34163D02*
Y38100D01*
X53854Y23016D02*
Y24984D01*
X54839Y24000D02*
X52870D01*
X49500Y6609D02*
Y8775D01*
X50583Y7692D02*
X48417D01*
X50583Y15976D02*
X48417D01*
X49500Y14894D02*
Y17059D01*
X19083Y3000D02*
X16917D01*
X18000Y1917D02*
Y4083D01*
X28500Y1475D02*
Y5019D01*
X30272Y3247D02*
X26728D01*
X15150Y17500D02*
X13850D01*
X14500Y16850D02*
Y18150D01*
X19150Y17500D02*
X17850D01*
X18500Y16850D02*
Y18150D01*
X77500Y37032D02*
Y40969D01*
X79469Y39000D02*
X75531D01*
X37500Y23277D02*
Y27214D01*
X39468Y25245D02*
X35531D01*
X48500Y103032D02*
Y106969D01*
X50469Y105000D02*
X46532D01*
X19083Y70496D02*
X16917D01*
X18000Y69413D02*
Y71579D01*
X20500Y75336D02*
Y77501D01*
X21583Y76418D02*
X19417D01*
X23149Y70398D02*
X21850D01*
X22500Y69748D02*
Y71047D01*
X20870Y26000D02*
X17130D01*
X19000Y24130D02*
Y27870D01*
X59860Y85850D02*
Y87150D01*
X60510Y86500D02*
X59211D01*
X71650Y70500D02*
X70350D01*
X71000Y69850D02*
Y71150D01*
X51264Y64842D02*
X49689D01*
X50476Y64055D02*
Y65630D01*
X61228Y66561D02*
X57291D01*
X59260Y64593D02*
Y68530D01*
X18000Y35630D02*
Y39370D01*
X19870Y37500D02*
X16130D01*
X60500Y91000D02*
X59122D01*
X59811Y90311D02*
Y91689D01*
X31468Y104000D02*
X27531D01*
X29500Y102032D02*
Y105969D01*
X90000Y37531D02*
Y41468D01*
X91969Y39500D02*
X88032D01*
X84948Y103153D02*
X81011D01*
X82980Y101184D02*
Y105121D01*
D84*
X63980Y48543D02*
Y81142D01*
Y48543D02*
X36972D01*
Y81142D01*
X63980D02*
X36972D01*
D85*
X37874Y6610D02*
X22126D01*
X37874Y20390D02*
X22126D01*
Y6610D02*
Y20390D01*
X37874Y6610D02*
Y20390D01*
X56602Y29989D02*
Y42273D01*
X44398Y29989D02*
Y42273D01*
X56602D02*
X44398D01*
X56602Y29989D02*
X44398D01*
X58284Y22031D02*
Y25968D01*
X49425D01*
Y22031D02*
Y25968D01*
X58284Y22000D02*
X49425D01*
X51665Y3558D02*
X47335D01*
X51665Y11826D02*
X47335D01*
X51665Y3558D02*
Y11826D01*
X47335Y3558D02*
Y11826D01*
X47925Y13024D02*
Y18929D01*
X51075Y13024D02*
Y18929D01*
X47925D01*
X51075Y13024D02*
X47925D01*
X21543Y1228D02*
Y4772D01*
X14457Y1228D02*
Y4772D01*
X21543D02*
X14457D01*
X21543Y1228D02*
X14457D01*
X32831Y1082D02*
X24169D01*
X32831Y5412D02*
X24169D01*
Y1082D02*
Y5412D01*
X32831Y1082D02*
Y5412D01*
X15681Y15138D02*
Y19862D01*
X13319Y15138D02*
Y19862D01*
X15681Y15138D02*
X13319D01*
X15681Y19862D02*
X13319D01*
X19681Y15138D02*
Y19862D01*
X17319Y15138D02*
Y19862D01*
X19681Y15138D02*
X17319D01*
X19681Y19862D02*
X17319D01*
X80650Y44315D02*
X74350D01*
X80650Y33685D02*
X74350D01*
Y44315D01*
X80650Y33685D02*
Y44315D01*
X45965Y30363D02*
X29035D01*
X45965Y20127D02*
X29035D01*
X45965D02*
Y30363D01*
X29035Y20127D02*
Y30363D01*
X53618Y113465D02*
X43382D01*
X53618Y96535D02*
X43382D01*
Y113465D01*
X53618Y96535D02*
Y113465D01*
X16425Y67346D02*
Y73646D01*
X19575Y67346D02*
Y73646D01*
X16425D01*
X19575Y67346D02*
X16425D01*
X23453Y77993D02*
X17547D01*
X23453Y74843D02*
X17547D01*
X23453D02*
Y77993D01*
X17547Y74843D02*
Y77993D01*
X21319Y68035D02*
Y72760D01*
X23681Y68035D02*
Y72760D01*
X21319D01*
X23681Y68035D02*
X21319D01*
X23331Y23638D02*
Y28362D01*
X14669Y23638D02*
Y28362D01*
X23331D02*
X14669D01*
X23331Y23638D02*
X14669D01*
X62222Y87681D02*
X57498D01*
X62222Y85319D02*
X57498D01*
Y87681D01*
X62222Y85319D02*
Y87681D01*
X72181Y68138D02*
Y72862D01*
X69819Y68138D02*
Y72862D01*
X72181D02*
X69819D01*
X72181Y68138D02*
X69819D01*
X35697Y45695D02*
Y87427D01*
X82823Y45695D02*
Y87427D01*
Y45695D02*
X35697D01*
X82823Y87427D02*
X35697D01*
X20362Y33169D02*
X15638D01*
X20362Y41831D02*
X15638D01*
X20362Y33169D02*
Y41831D01*
X15638Y33169D02*
Y41831D01*
X55480Y89228D02*
Y92772D01*
X64142Y89228D02*
Y92772D01*
X55480D01*
X64142Y89228D02*
X55480D01*
X37768Y95732D02*
Y112268D01*
X21232D01*
X37768Y95732D02*
X21232D01*
Y112268D01*
X94331Y35169D02*
X85669D01*
X94331Y43831D02*
X85669D01*
X94331Y35169D02*
Y43831D01*
X85669Y35169D02*
Y43831D01*
X97507Y88625D02*
X68452D01*
X97507D02*
Y117680D01*
X68452D01*
Y88625D02*
Y117680D01*
D87*
X50476Y67842D02*
Y64842D01*
X52476D01*
X55475D02*
X53475D01*
X55475Y66842D01*
Y67342D01*
X54975Y67842D01*
X53975D01*
X53475Y67342D01*
M02*
