G04*
G04 #@! TF.GenerationSoftware,Altium Limited,Altium Designer,19.1.8 (144)*
G04*
G04 Layer_Color=32896*
%FSLAX25Y25*%
%MOIN*%
G70*
G01*
G75*
%ADD12C,0.00394*%
%ADD84C,0.00500*%
D12*
X59312Y84640D02*
X58984Y84968D01*
X58328D01*
X58000Y84640D01*
Y83328D01*
X58328Y83000D01*
X58984D01*
X59312Y83328D01*
X61280Y84968D02*
X60624Y84640D01*
X59968Y83984D01*
Y83328D01*
X60296Y83000D01*
X60952D01*
X61280Y83328D01*
Y83656D01*
X60952Y83984D01*
X59968D01*
X69812Y75538D02*
X69484Y75866D01*
X68828D01*
X68500Y75538D01*
Y74226D01*
X68828Y73898D01*
X69484D01*
X69812Y74226D01*
X70468Y75538D02*
X70796Y75866D01*
X71452D01*
X71780Y75538D01*
Y75210D01*
X71452Y74882D01*
X71124D01*
X71452D01*
X71780Y74554D01*
Y74226D01*
X71452Y73898D01*
X70796D01*
X70468Y74226D01*
X49011Y84640D02*
Y82672D01*
X50323D01*
X52291D02*
X50979D01*
X52291Y83984D01*
Y84312D01*
X51963Y84640D01*
X51307D01*
X50979Y84312D01*
X57968Y92000D02*
X56000D01*
Y91016D01*
X56328Y90688D01*
X57640D01*
X57968Y91016D01*
Y92000D01*
X56000Y90032D02*
Y89376D01*
Y89704D01*
X57968D01*
X57640Y90032D01*
D84*
X54413Y74350D02*
X37957D01*
X62996Y55335D02*
Y74350D01*
Y55335D02*
X46067D01*
X37957D02*
Y74350D01*
M02*
