G04*
G04 #@! TF.GenerationSoftware,Altium Limited,Altium Designer,19.1.8 (144)*
G04*
G04 Layer_Physical_Order=2*
G04 Layer_Color=16711680*
%FSLAX25Y25*%
%MOIN*%
G70*
G01*
G75*
%ADD27R,0.01260X0.01417*%
%ADD67C,0.01500*%
%ADD68C,0.00350*%
%ADD69C,0.02100*%
%ADD71C,0.05906*%
%ADD72R,0.05906X0.05906*%
%ADD73C,0.08268*%
%ADD74C,0.07874*%
%ADD75C,0.05000*%
%ADD76C,0.03937*%
%ADD77R,0.01417X0.01260*%
%ADD78R,0.05827X0.20315*%
%ADD79R,0.00957X0.01181*%
%ADD80C,0.02000*%
G36*
X803Y803D02*
X109697D01*
Y129697D01*
X803D01*
Y803D01*
D02*
G37*
%LPC*%
G36*
X103000Y120855D02*
Y118000D01*
X100145D01*
X100149Y118032D01*
X100547Y118993D01*
X101181Y119819D01*
X102007Y120453D01*
X102968Y120851D01*
X103000Y120855D01*
D02*
G37*
G36*
X105000D02*
X105032Y120851D01*
X105993Y120453D01*
X106819Y119819D01*
X107453Y118993D01*
X107851Y118032D01*
X107855Y118000D01*
X105000D01*
Y120855D01*
D02*
G37*
G36*
X5500Y120355D02*
Y117500D01*
X2645D01*
X2649Y117532D01*
X3047Y118493D01*
X3681Y119319D01*
X4507Y119953D01*
X5468Y120351D01*
X5500Y120355D01*
D02*
G37*
G36*
X7500D02*
X7532Y120351D01*
X8493Y119953D01*
X9319Y119319D01*
X9953Y118493D01*
X10351Y117532D01*
X10355Y117500D01*
X7500D01*
Y120355D01*
D02*
G37*
G36*
X71979Y118199D02*
Y114153D01*
X67933D01*
X67978Y114493D01*
X68495Y115742D01*
X69318Y116814D01*
X70390Y117637D01*
X71639Y118154D01*
X71979Y118199D01*
D02*
G37*
G36*
X73980D02*
X74320Y118154D01*
X75569Y117637D01*
X76641Y116814D01*
X77464Y115742D01*
X77981Y114493D01*
X78026Y114153D01*
X73980D01*
Y118199D01*
D02*
G37*
G36*
X91979D02*
Y114153D01*
X87933D01*
X87978Y114493D01*
X88495Y115742D01*
X89318Y116814D01*
X90390Y117637D01*
X91639Y118154D01*
X91979Y118199D01*
D02*
G37*
G36*
X93980D02*
X94320Y118154D01*
X95569Y117637D01*
X96641Y116814D01*
X97464Y115742D01*
X97981Y114493D01*
X98026Y114153D01*
X93980D01*
Y118199D01*
D02*
G37*
G36*
X100145Y116000D02*
X103000D01*
Y113145D01*
X102968Y113149D01*
X102007Y113547D01*
X101181Y114181D01*
X100547Y115007D01*
X100149Y115968D01*
X100145Y116000D01*
D02*
G37*
G36*
X105000D02*
X107855D01*
X107851Y115968D01*
X107453Y115007D01*
X106819Y114181D01*
X105993Y113547D01*
X105032Y113149D01*
X105000Y113145D01*
Y116000D01*
D02*
G37*
G36*
X2645Y115500D02*
X5500D01*
Y112645D01*
X5468Y112649D01*
X4507Y113047D01*
X3681Y113681D01*
X3047Y114507D01*
X2649Y115468D01*
X2645Y115500D01*
D02*
G37*
G36*
X7500D02*
X10355D01*
X10351Y115468D01*
X9953Y114507D01*
X9319Y113681D01*
X8493Y113047D01*
X7532Y112649D01*
X7500Y112645D01*
Y115500D01*
D02*
G37*
G36*
X67933Y112153D02*
X71979D01*
Y108106D01*
X71639Y108151D01*
X70390Y108668D01*
X69318Y109491D01*
X68495Y110564D01*
X67978Y111812D01*
X67933Y112153D01*
D02*
G37*
G36*
X73980D02*
X78026D01*
X77981Y111812D01*
X77464Y110564D01*
X76641Y109491D01*
X75569Y108668D01*
X74320Y108151D01*
X73980Y108106D01*
Y112153D01*
D02*
G37*
G36*
X87933D02*
X91979D01*
Y108106D01*
X91639Y108151D01*
X90390Y108668D01*
X89318Y109491D01*
X88495Y110564D01*
X87978Y111812D01*
X87933Y112153D01*
D02*
G37*
G36*
X93980D02*
X98026D01*
X97981Y111812D01*
X97464Y110564D01*
X96641Y109491D01*
X95569Y108668D01*
X94320Y108151D01*
X93980Y108106D01*
Y112153D01*
D02*
G37*
G36*
X104000Y110785D02*
X104980Y110656D01*
X105893Y110278D01*
X106676Y109677D01*
X107278Y108893D01*
X107656Y107980D01*
X107785Y107000D01*
X107656Y106020D01*
X107278Y105107D01*
X106676Y104323D01*
X105893Y103722D01*
X104980Y103344D01*
X104000Y103215D01*
X103020Y103344D01*
X102107Y103722D01*
X101323Y104323D01*
X100722Y105107D01*
X100344Y106020D01*
X100215Y107000D01*
X100344Y107980D01*
X100722Y108893D01*
X101323Y109677D01*
X102107Y110278D01*
X103020Y110656D01*
X104000Y110785D01*
D02*
G37*
G36*
X6500Y110285D02*
X7480Y110156D01*
X8393Y109778D01*
X9177Y109177D01*
X9778Y108393D01*
X10156Y107480D01*
X10285Y106500D01*
X10156Y105520D01*
X9778Y104607D01*
X9177Y103823D01*
X8393Y103222D01*
X7480Y102844D01*
X6500Y102715D01*
X5520Y102844D01*
X4607Y103222D01*
X3824Y103823D01*
X3222Y104607D01*
X2844Y105520D01*
X2715Y106500D01*
X2844Y107480D01*
X3222Y108393D01*
X3824Y109177D01*
X4607Y109778D01*
X5520Y110156D01*
X6500Y110285D01*
D02*
G37*
G36*
X82980Y107931D02*
X84216Y107768D01*
X85368Y107290D01*
X86358Y106531D01*
X87117Y105542D01*
X87595Y104389D01*
X87757Y103153D01*
X87595Y101916D01*
X87117Y100764D01*
X86358Y99774D01*
X85368Y99015D01*
X84216Y98537D01*
X82980Y98375D01*
X81743Y98537D01*
X80590Y99015D01*
X79601Y99774D01*
X78842Y100764D01*
X78364Y101916D01*
X78202Y103153D01*
X78364Y104389D01*
X78842Y105542D01*
X79601Y106531D01*
X80590Y107290D01*
X81743Y107768D01*
X82980Y107931D01*
D02*
G37*
G36*
X73980Y98199D02*
X74320Y98154D01*
X75569Y97637D01*
X76641Y96814D01*
X77464Y95742D01*
X77981Y94493D01*
X78026Y94153D01*
X73980D01*
Y98199D01*
D02*
G37*
G36*
X91979D02*
Y94153D01*
X87933D01*
X87978Y94493D01*
X88495Y95742D01*
X89318Y96814D01*
X90390Y97637D01*
X91639Y98154D01*
X91979Y98199D01*
D02*
G37*
G36*
X93980D02*
X94320Y98154D01*
X95569Y97637D01*
X96641Y96814D01*
X97464Y95742D01*
X97981Y94493D01*
X98026Y94153D01*
X93980D01*
Y98199D01*
D02*
G37*
G36*
X104000Y100785D02*
X104980Y100656D01*
X105893Y100278D01*
X106676Y99677D01*
X107278Y98893D01*
X107656Y97980D01*
X107785Y97000D01*
X107656Y96020D01*
X107278Y95107D01*
X106676Y94323D01*
X105893Y93722D01*
X104980Y93344D01*
X104000Y93215D01*
X103020Y93344D01*
X102107Y93722D01*
X101323Y94323D01*
X100722Y95107D01*
X100344Y96020D01*
X100215Y97000D01*
X100344Y97980D01*
X100722Y98893D01*
X101323Y99677D01*
X102107Y100278D01*
X103020Y100656D01*
X104000Y100785D01*
D02*
G37*
G36*
X6500Y100285D02*
X7480Y100156D01*
X8393Y99778D01*
X9177Y99177D01*
X9778Y98393D01*
X10156Y97480D01*
X10285Y96500D01*
X10156Y95520D01*
X9778Y94607D01*
X9177Y93823D01*
X8393Y93222D01*
X7480Y92844D01*
X6500Y92715D01*
X5520Y92844D01*
X4607Y93222D01*
X3824Y93823D01*
X3222Y94607D01*
X2844Y95520D01*
X2715Y96500D01*
X2844Y97480D01*
X3222Y98393D01*
X3824Y99177D01*
X4607Y99778D01*
X5520Y100156D01*
X6500Y100285D01*
D02*
G37*
G36*
X17000Y108828D02*
X17862Y108715D01*
X18664Y108382D01*
X19354Y107854D01*
X19883Y107164D01*
X20215Y106361D01*
X20328Y105500D01*
X20215Y104639D01*
X19883Y103836D01*
X19354Y103146D01*
X18664Y102618D01*
X17994Y102340D01*
Y93500D01*
X17918Y93120D01*
X17703Y92797D01*
X17699Y92793D01*
X17933Y92320D01*
X18000Y92329D01*
X18861Y92215D01*
X19664Y91883D01*
X20279Y91410D01*
X20540Y91495D01*
X20752Y91656D01*
X20672Y92264D01*
X20785Y93125D01*
X21117Y93928D01*
X21646Y94617D01*
X22336Y95146D01*
X23138Y95479D01*
X24000Y95592D01*
X24861Y95479D01*
X25664Y95146D01*
X26354Y94617D01*
X26882Y93928D01*
X27160Y93258D01*
X37271D01*
X37285Y93362D01*
X37617Y94164D01*
X38146Y94854D01*
X38836Y95383D01*
X39639Y95715D01*
X40500Y95828D01*
X41361Y95715D01*
X42164Y95383D01*
X42854Y94854D01*
X43382Y94164D01*
X43715Y93362D01*
X43763Y92997D01*
X44291Y92818D01*
X46176Y94703D01*
X46499Y94918D01*
X46879Y94994D01*
X64907D01*
X65288Y94918D01*
X65610Y94703D01*
X67372Y92941D01*
X67479Y92993D01*
X67809Y93211D01*
X67978Y94493D01*
X68495Y95742D01*
X69318Y96814D01*
X70390Y97637D01*
X71639Y98154D01*
X71979Y98199D01*
Y93153D01*
X72979D01*
Y92153D01*
X78026D01*
X77981Y91812D01*
X77464Y90564D01*
X76641Y89491D01*
X76610Y89468D01*
X76771Y88994D01*
X89188D01*
X89349Y89468D01*
X89318Y89491D01*
X88495Y90564D01*
X87978Y91812D01*
X87933Y92153D01*
X98026D01*
X97981Y91812D01*
X97464Y90564D01*
X96641Y89491D01*
X96610Y89468D01*
X96771Y88994D01*
X100800D01*
X101323Y89676D01*
X102107Y90278D01*
X103020Y90656D01*
X104000Y90785D01*
X104980Y90656D01*
X105893Y90278D01*
X106676Y89676D01*
X107278Y88893D01*
X107656Y87980D01*
X107785Y87000D01*
X107656Y86020D01*
X107278Y85107D01*
X106676Y84324D01*
X105893Y83722D01*
X104980Y83344D01*
X104000Y83215D01*
X103020Y83344D01*
X102107Y83722D01*
X101323Y84324D01*
X100722Y85107D01*
X100344Y86020D01*
X100215Y87000D01*
X100210Y87006D01*
X70907D01*
X70527Y87082D01*
X70204Y87297D01*
X64495Y93006D01*
X63728D01*
X63576Y92506D01*
X63834Y92334D01*
X65722Y90446D01*
X66131Y89834D01*
X66274Y89112D01*
Y87000D01*
X66223Y86744D01*
Y83954D01*
X66354Y83854D01*
X66883Y83164D01*
X67215Y82362D01*
X67329Y81500D01*
X67215Y80638D01*
X66883Y79836D01*
X66354Y79146D01*
X65664Y78617D01*
X64862Y78285D01*
X64000Y78171D01*
X63213Y78275D01*
X62973Y78185D01*
X62713Y78011D01*
Y70441D01*
X63213Y70289D01*
X63646Y70854D01*
X64336Y71383D01*
X65139Y71715D01*
X66000Y71829D01*
X66861Y71715D01*
X67664Y71383D01*
X68354Y70854D01*
X68708Y70392D01*
X69370D01*
Y70602D01*
X69570D01*
Y70907D01*
X72430D01*
Y70602D01*
X72630D01*
Y69894D01*
X72430D01*
Y67889D01*
X70994D01*
Y66160D01*
X71664Y65883D01*
X72354Y65354D01*
X72883Y64664D01*
X73215Y63862D01*
X73329Y63000D01*
X73215Y62138D01*
X72883Y61336D01*
X72354Y60646D01*
X71664Y60117D01*
X70862Y59785D01*
X70000Y59671D01*
X69138Y59785D01*
X68336Y60117D01*
X67646Y60646D01*
X67261Y61148D01*
X66661Y61255D01*
X62703Y57297D01*
X62380Y57082D01*
X62000Y57006D01*
X45666D01*
Y48728D01*
X46069Y48494D01*
X63505D01*
X63716Y48765D01*
X63476Y49234D01*
X63000Y49172D01*
X62138Y49285D01*
X61336Y49617D01*
X60646Y50146D01*
X60117Y50836D01*
X59785Y51639D01*
X59671Y52500D01*
X59785Y53361D01*
X60117Y54164D01*
X60646Y54854D01*
X61336Y55383D01*
X62138Y55715D01*
X63000Y55828D01*
X63862Y55715D01*
X63945Y55680D01*
X66432Y58167D01*
X66945Y58510D01*
X67550Y58630D01*
X75450D01*
X76055Y58510D01*
X76568Y58167D01*
X78324Y56411D01*
X89305D01*
X89617Y57164D01*
X90146Y57854D01*
X90836Y58383D01*
X91638Y58715D01*
X92500Y58829D01*
X93362Y58715D01*
X94164Y58383D01*
X94854Y57854D01*
X95383Y57164D01*
X95715Y56362D01*
X95828Y55500D01*
X95715Y54638D01*
X95383Y53836D01*
X94854Y53146D01*
X94164Y52617D01*
X93362Y52285D01*
X92500Y52171D01*
X91638Y52285D01*
X90836Y52617D01*
X90146Y53146D01*
X90067Y53250D01*
X77670D01*
X77065Y53370D01*
X76552Y53713D01*
X74795Y55470D01*
X72895D01*
X72648Y54970D01*
X72883Y54664D01*
X73215Y53861D01*
X73329Y53000D01*
X73215Y52139D01*
X72883Y51336D01*
X72354Y50646D01*
X71664Y50117D01*
X70862Y49785D01*
X70000Y49672D01*
X69138Y49785D01*
X68336Y50117D01*
X68159Y50253D01*
X64703Y46797D01*
X64380Y46582D01*
X64000Y46506D01*
X39500D01*
X39120Y46582D01*
X38797Y46797D01*
X33297Y52297D01*
X33082Y52620D01*
X33006Y53000D01*
Y71143D01*
X32506Y71350D01*
X31421Y70265D01*
X31883Y69664D01*
X32215Y68862D01*
X32329Y68000D01*
X32215Y67138D01*
X31883Y66336D01*
X31354Y65646D01*
X30664Y65117D01*
X29862Y64785D01*
X29000Y64671D01*
X28139Y64785D01*
X27336Y65117D01*
X27019Y65360D01*
X26519Y65114D01*
Y62387D01*
X29089Y59817D01*
X29862Y59715D01*
X30664Y59383D01*
X31354Y58854D01*
X31883Y58164D01*
X32215Y57362D01*
X32329Y56500D01*
X32215Y55638D01*
X31883Y54836D01*
X31354Y54146D01*
X30664Y53617D01*
X29862Y53285D01*
X29000Y53171D01*
X28139Y53285D01*
X27336Y53617D01*
X26646Y54146D01*
X26118Y54836D01*
X25785Y55638D01*
X25671Y56500D01*
X25785Y57362D01*
X26118Y58164D01*
X26646Y58854D01*
X26682Y58881D01*
X26715Y59380D01*
X24822Y61272D01*
X24607Y61595D01*
X24531Y61975D01*
Y72297D01*
X24117Y72836D01*
X23785Y73638D01*
X23672Y74500D01*
X23785Y75362D01*
X24117Y76164D01*
X24646Y76854D01*
X25336Y77383D01*
X26138Y77715D01*
X27000Y77829D01*
X27861Y77715D01*
X28664Y77383D01*
X29354Y76854D01*
X29882Y76164D01*
X30215Y75362D01*
X30329Y74500D01*
X30215Y73638D01*
X29882Y72836D01*
X29354Y72146D01*
X28934Y71824D01*
X28969Y71562D01*
X29093Y71316D01*
X29594Y71250D01*
X31506Y73162D01*
Y76840D01*
X30836Y77117D01*
X30146Y77646D01*
X29618Y78336D01*
X29285Y79138D01*
X29171Y80000D01*
X29285Y80862D01*
X29618Y81664D01*
X30146Y82354D01*
X30836Y82883D01*
X31134Y83006D01*
X31034Y83506D01*
X26660D01*
X26382Y82836D01*
X25854Y82146D01*
X25164Y81617D01*
X24362Y81285D01*
X23500Y81172D01*
X22638Y81285D01*
X21836Y81617D01*
X21146Y82146D01*
X20617Y82836D01*
X20285Y83639D01*
X20172Y84500D01*
X20285Y85361D01*
X20617Y86164D01*
X21146Y86854D01*
X21721Y87295D01*
X21589Y87795D01*
X21073D01*
X20883Y87336D01*
X20354Y86646D01*
X19664Y86117D01*
X18861Y85785D01*
X18000Y85672D01*
X17139Y85785D01*
X16336Y86117D01*
X15646Y86646D01*
X15117Y87336D01*
X14785Y88139D01*
X14672Y89000D01*
X14680Y89067D01*
X14207Y89301D01*
X10681Y85775D01*
X10358Y85559D01*
X10156Y85519D01*
X9778Y84607D01*
X9177Y83824D01*
X8393Y83222D01*
X7480Y82844D01*
X6500Y82715D01*
X5520Y82844D01*
X4607Y83222D01*
X3824Y83824D01*
X3222Y84607D01*
X2844Y85520D01*
X2715Y86500D01*
X2844Y87480D01*
X3222Y88393D01*
X3824Y89176D01*
X4607Y89778D01*
X5520Y90156D01*
X6500Y90285D01*
X7480Y90156D01*
X8393Y89778D01*
X9177Y89176D01*
X9778Y88393D01*
X9813Y88307D01*
X10304Y88210D01*
X16006Y93912D01*
Y102340D01*
X15336Y102618D01*
X14646Y103146D01*
X14117Y103836D01*
X13785Y104639D01*
X13671Y105500D01*
X13785Y106361D01*
X14117Y107164D01*
X14646Y107854D01*
X15336Y108382D01*
X16138Y108715D01*
X17000Y108828D01*
D02*
G37*
G36*
X104000Y80785D02*
X104980Y80656D01*
X105893Y80278D01*
X106676Y79677D01*
X107278Y78893D01*
X107656Y77980D01*
X107785Y77000D01*
X107656Y76020D01*
X107278Y75107D01*
X106676Y74323D01*
X105893Y73722D01*
X104980Y73344D01*
X104000Y73215D01*
X103020Y73344D01*
X102107Y73722D01*
X101323Y74323D01*
X100722Y75107D01*
X100344Y76020D01*
X100215Y77000D01*
X100344Y77980D01*
X100722Y78893D01*
X101323Y79677D01*
X102107Y80278D01*
X103020Y80656D01*
X104000Y80785D01*
D02*
G37*
G36*
X6500Y80285D02*
X7480Y80156D01*
X8393Y79778D01*
X9177Y79176D01*
X9778Y78393D01*
X10156Y77480D01*
X10285Y76500D01*
X10156Y75520D01*
X9778Y74607D01*
X9177Y73823D01*
X8393Y73222D01*
X7480Y72844D01*
X6500Y72715D01*
X5520Y72844D01*
X4607Y73222D01*
X3824Y73823D01*
X3222Y74607D01*
X2844Y75520D01*
X2715Y76500D01*
X2844Y77480D01*
X3222Y78393D01*
X3824Y79176D01*
X4607Y79778D01*
X5520Y80156D01*
X6500Y80285D01*
D02*
G37*
G36*
X69370Y73311D02*
X70000D01*
Y72602D01*
X69370D01*
Y73311D01*
D02*
G37*
G36*
X72000D02*
X72630D01*
Y72602D01*
X72000D01*
Y73311D01*
D02*
G37*
G36*
X104000Y70785D02*
X104980Y70656D01*
X105893Y70278D01*
X106676Y69677D01*
X107278Y68893D01*
X107656Y67980D01*
X107785Y67000D01*
X107656Y66020D01*
X107278Y65107D01*
X106676Y64324D01*
X105893Y63722D01*
X104980Y63344D01*
X104000Y63215D01*
X103020Y63344D01*
X102107Y63722D01*
X101323Y64324D01*
X100722Y65107D01*
X100344Y66020D01*
X100215Y67000D01*
X100344Y67980D01*
X100722Y68893D01*
X101323Y69677D01*
X102107Y70278D01*
X103020Y70656D01*
X104000Y70785D01*
D02*
G37*
G36*
X6500Y70285D02*
X7480Y70156D01*
X8393Y69778D01*
X9177Y69177D01*
X9778Y68393D01*
X10156Y67480D01*
X10285Y66500D01*
X10156Y65520D01*
X9778Y64607D01*
X9177Y63823D01*
X8393Y63222D01*
X7480Y62844D01*
X6500Y62715D01*
X5520Y62844D01*
X4607Y63222D01*
X3824Y63823D01*
X3222Y64607D01*
X2844Y65520D01*
X2715Y66500D01*
X2844Y67480D01*
X3222Y68393D01*
X3824Y69177D01*
X4607Y69778D01*
X5520Y70156D01*
X6500Y70285D01*
D02*
G37*
G36*
X104000Y60785D02*
X104980Y60656D01*
X105893Y60278D01*
X106676Y59676D01*
X107278Y58893D01*
X107656Y57980D01*
X107785Y57000D01*
X107656Y56020D01*
X107278Y55107D01*
X106676Y54324D01*
X105893Y53722D01*
X104980Y53344D01*
X104000Y53215D01*
X103020Y53344D01*
X102107Y53722D01*
X101323Y54324D01*
X100722Y55107D01*
X100344Y56020D01*
X100215Y57000D01*
X100344Y57980D01*
X100722Y58893D01*
X101323Y59676D01*
X102107Y60278D01*
X103020Y60656D01*
X104000Y60785D01*
D02*
G37*
G36*
X6500Y60285D02*
X7480Y60156D01*
X8393Y59778D01*
X9177Y59176D01*
X9778Y58393D01*
X10156Y57480D01*
X10285Y56500D01*
X10156Y55520D01*
X9778Y54607D01*
X9177Y53824D01*
X8393Y53222D01*
X7480Y52844D01*
X6500Y52715D01*
X5520Y52844D01*
X4607Y53222D01*
X3824Y53824D01*
X3222Y54607D01*
X2844Y55520D01*
X2715Y56500D01*
X2844Y57480D01*
X3222Y58393D01*
X3824Y59176D01*
X4607Y59778D01*
X5520Y60156D01*
X6500Y60285D01*
D02*
G37*
G36*
X15000Y83829D02*
X15861Y83715D01*
X16664Y83383D01*
X17354Y82854D01*
X17883Y82164D01*
X18215Y81362D01*
X18328Y80500D01*
X18215Y79638D01*
X17883Y78836D01*
X17354Y78146D01*
X16664Y77617D01*
X16580Y77583D01*
Y59155D01*
X27476Y48259D01*
X28000Y48329D01*
X28861Y48215D01*
X29664Y47883D01*
X30354Y47354D01*
X30882Y46664D01*
X31215Y45862D01*
X31328Y45000D01*
X31215Y44139D01*
X30882Y43336D01*
X30354Y42646D01*
X29664Y42118D01*
X28861Y41785D01*
X28000Y41671D01*
X27139Y41785D01*
X27019Y41834D01*
X26666Y41481D01*
X26715Y41361D01*
X26829Y40500D01*
X26715Y39639D01*
X26382Y38836D01*
X25854Y38146D01*
X25164Y37617D01*
X24994Y37547D01*
Y28000D01*
X24918Y27620D01*
X24703Y27297D01*
X12703Y15297D01*
X12380Y15082D01*
X12000Y15006D01*
X9943D01*
X9778Y14607D01*
X9177Y13824D01*
X8393Y13222D01*
X7480Y12844D01*
X6500Y12715D01*
X5520Y12844D01*
X4607Y13222D01*
X3824Y13824D01*
X3222Y14607D01*
X2844Y15520D01*
X2715Y16500D01*
X2844Y17480D01*
X3222Y18393D01*
X3824Y19176D01*
X4607Y19778D01*
X5520Y20156D01*
X6500Y20285D01*
X7480Y20156D01*
X8393Y19778D01*
X9177Y19176D01*
X9778Y18393D01*
X10156Y17480D01*
X10220Y16994D01*
X11588D01*
X23006Y28412D01*
Y37237D01*
X22638Y37285D01*
X21836Y37617D01*
X21146Y38146D01*
X20617Y38836D01*
X20285Y39639D01*
X20172Y40500D01*
X20285Y41361D01*
X20617Y42164D01*
X21146Y42854D01*
X21836Y43382D01*
X22638Y43715D01*
X22859Y43744D01*
X23120Y43918D01*
X23500Y43994D01*
X24000D01*
X24331Y43928D01*
X24459Y43988D01*
X24769Y44260D01*
X24671Y45000D01*
X24785Y45862D01*
X24966Y46299D01*
X13882Y57383D01*
X13540Y57895D01*
X13420Y58500D01*
Y77583D01*
X13336Y77617D01*
X12646Y78146D01*
X12117Y78836D01*
X11785Y79638D01*
X11671Y80500D01*
X11785Y81362D01*
X12117Y82164D01*
X12646Y82854D01*
X13336Y83383D01*
X14139Y83715D01*
X15000Y83829D01*
D02*
G37*
G36*
X6500Y50285D02*
X7480Y50156D01*
X8393Y49778D01*
X9177Y49176D01*
X9778Y48393D01*
X10156Y47480D01*
X10285Y46500D01*
X10156Y45520D01*
X9778Y44607D01*
X9177Y43824D01*
X8393Y43222D01*
X7480Y42844D01*
X6500Y42715D01*
X5520Y42844D01*
X4607Y43222D01*
X3824Y43824D01*
X3222Y44607D01*
X2844Y45520D01*
X2715Y46500D01*
X2844Y47480D01*
X3222Y48393D01*
X3824Y49176D01*
X4607Y49778D01*
X5520Y50156D01*
X6500Y50285D01*
D02*
G37*
G36*
Y40285D02*
X7480Y40156D01*
X8393Y39778D01*
X9177Y39176D01*
X9778Y38393D01*
X10156Y37480D01*
X10285Y36500D01*
X10156Y35520D01*
X9778Y34607D01*
X9177Y33823D01*
X8393Y33222D01*
X7480Y32844D01*
X6500Y32715D01*
X5520Y32844D01*
X4607Y33222D01*
X3824Y33823D01*
X3222Y34607D01*
X2844Y35520D01*
X2715Y36500D01*
X2844Y37480D01*
X3222Y38393D01*
X3824Y39176D01*
X4607Y39778D01*
X5520Y40156D01*
X6500Y40285D01*
D02*
G37*
G36*
X104000Y50785D02*
X104980Y50656D01*
X105893Y50278D01*
X106676Y49676D01*
X107278Y48893D01*
X107656Y47980D01*
X107785Y47000D01*
X107656Y46020D01*
X107278Y45107D01*
X106676Y44324D01*
X105893Y43722D01*
X104980Y43344D01*
X104000Y43215D01*
X103020Y43344D01*
X102107Y43722D01*
X101323Y44324D01*
X100722Y45107D01*
X100419Y45838D01*
X99888Y45905D01*
X91494Y37512D01*
Y34660D01*
X92164Y34383D01*
X92854Y33854D01*
X93383Y33164D01*
X93715Y32362D01*
X93828Y31500D01*
X93715Y30639D01*
X93571Y30290D01*
X93628Y30201D01*
X93965Y29936D01*
X94639Y30215D01*
X94835Y30241D01*
X100423Y35829D01*
X100344Y36020D01*
X100215Y37000D01*
X100344Y37980D01*
X100722Y38893D01*
X101323Y39676D01*
X102107Y40278D01*
X103020Y40656D01*
X104000Y40785D01*
X104980Y40656D01*
X105893Y40278D01*
X106676Y39676D01*
X107278Y38893D01*
X107656Y37980D01*
X107785Y37000D01*
X107656Y36020D01*
X107278Y35107D01*
X106676Y34323D01*
X105893Y33722D01*
X104980Y33344D01*
X104000Y33215D01*
X103020Y33344D01*
X102107Y33722D01*
X101553Y34147D01*
X97503Y30097D01*
X97535Y29598D01*
X97854Y29354D01*
X98383Y28664D01*
X98715Y27861D01*
X98829Y27000D01*
X98715Y26138D01*
X98383Y25336D01*
X97854Y24646D01*
X97164Y24117D01*
X96866Y23994D01*
X96966Y23494D01*
X100088D01*
X101147Y24553D01*
X100722Y25107D01*
X100344Y26020D01*
X100215Y27000D01*
X100344Y27980D01*
X100722Y28893D01*
X101323Y29676D01*
X102107Y30278D01*
X103020Y30656D01*
X104000Y30785D01*
X104980Y30656D01*
X105893Y30278D01*
X106676Y29676D01*
X107278Y28893D01*
X107656Y27980D01*
X107785Y27000D01*
X107656Y26020D01*
X107278Y25107D01*
X106676Y24324D01*
X105893Y23722D01*
X104980Y23344D01*
X104000Y23215D01*
X103020Y23344D01*
X102829Y23423D01*
X101203Y21797D01*
X100880Y21582D01*
X100500Y21506D01*
X85000D01*
X84620Y21582D01*
X84297Y21797D01*
X78442Y27652D01*
X78354Y27646D01*
X77664Y27117D01*
X76862Y26785D01*
X76000Y26671D01*
X75138Y26785D01*
X74336Y27117D01*
X73646Y27646D01*
X73117Y28336D01*
X72785Y29138D01*
X72672Y30000D01*
X72785Y30861D01*
X73117Y31664D01*
X73646Y32354D01*
X74336Y32882D01*
X75138Y33215D01*
X76000Y33329D01*
X76862Y33215D01*
X77664Y32882D01*
X78354Y32354D01*
X78883Y31664D01*
X79215Y30861D01*
X79329Y30000D01*
X79279Y29627D01*
X85412Y23494D01*
X94034D01*
X94134Y23994D01*
X93836Y24117D01*
X93146Y24646D01*
X92617Y25336D01*
X92285Y26138D01*
X92172Y27000D01*
X92285Y27861D01*
X92429Y28210D01*
X92372Y28299D01*
X92035Y28564D01*
X91361Y28285D01*
X90500Y28172D01*
X89639Y28285D01*
X88836Y28618D01*
X88146Y29146D01*
X87617Y29836D01*
X87285Y30639D01*
X87252Y30887D01*
X86748D01*
X86715Y30639D01*
X86383Y29836D01*
X85854Y29146D01*
X85164Y28618D01*
X84361Y28285D01*
X83500Y28172D01*
X82639Y28285D01*
X81836Y28618D01*
X81146Y29146D01*
X80617Y29836D01*
X80285Y30639D01*
X80172Y31500D01*
X80285Y32362D01*
X80563Y33032D01*
X79588Y34006D01*
X71912D01*
X71438Y33532D01*
X71715Y32862D01*
X71829Y32000D01*
X71715Y31139D01*
X71383Y30336D01*
X70854Y29646D01*
X70164Y29118D01*
X69362Y28785D01*
X68500Y28672D01*
X67638Y28785D01*
X66836Y29118D01*
X66146Y29646D01*
X65617Y30336D01*
X65285Y31139D01*
X65171Y32000D01*
X65285Y32862D01*
X65617Y33664D01*
X66146Y34354D01*
X66836Y34883D01*
X67638Y35215D01*
X68500Y35329D01*
X69362Y35215D01*
X70032Y34938D01*
X70797Y35703D01*
X71120Y35918D01*
X71500Y35994D01*
X80000D01*
X80380Y35918D01*
X80703Y35703D01*
X81968Y34438D01*
X82639Y34715D01*
X83500Y34828D01*
X84361Y34715D01*
X85164Y34383D01*
X85854Y33854D01*
X86383Y33164D01*
X86715Y32362D01*
X86748Y32113D01*
X87252D01*
X87285Y32362D01*
X87617Y33164D01*
X88146Y33854D01*
X88836Y34383D01*
X89506Y34660D01*
Y37923D01*
X89582Y38304D01*
X89797Y38626D01*
X98874Y47703D01*
X99196Y47918D01*
X99577Y47994D01*
X100350D01*
X100722Y48893D01*
X101323Y49676D01*
X102107Y50278D01*
X103020Y50656D01*
X104000Y50785D01*
D02*
G37*
G36*
X6500Y30285D02*
X7480Y30156D01*
X8393Y29778D01*
X9177Y29177D01*
X9778Y28393D01*
X10156Y27480D01*
X10285Y26500D01*
X10156Y25520D01*
X9778Y24607D01*
X9177Y23823D01*
X8393Y23222D01*
X7480Y22844D01*
X6500Y22715D01*
X5520Y22844D01*
X4607Y23222D01*
X3824Y23823D01*
X3222Y24607D01*
X2844Y25520D01*
X2715Y26500D01*
X2844Y27480D01*
X3222Y28393D01*
X3824Y29177D01*
X4607Y29778D01*
X5520Y30156D01*
X6500Y30285D01*
D02*
G37*
G36*
X104000Y20785D02*
X104980Y20656D01*
X105893Y20278D01*
X106676Y19677D01*
X107278Y18893D01*
X107656Y17980D01*
X107785Y17000D01*
X107656Y16020D01*
X107278Y15107D01*
X106676Y14323D01*
X105893Y13722D01*
X104980Y13344D01*
X104000Y13215D01*
X103020Y13344D01*
X102107Y13722D01*
X101323Y14323D01*
X100722Y15107D01*
X100344Y16020D01*
X100215Y17000D01*
X100344Y17980D01*
X100722Y18893D01*
X101323Y19677D01*
X102107Y20278D01*
X103020Y20656D01*
X104000Y20785D01*
D02*
G37*
G36*
X43000Y15328D02*
X43861Y15215D01*
X44664Y14883D01*
X45354Y14354D01*
X45882Y13664D01*
X46215Y12862D01*
X46328Y12000D01*
X46215Y11139D01*
X45882Y10336D01*
X45354Y9646D01*
X44664Y9117D01*
X43861Y8785D01*
X43000Y8671D01*
X42138Y8785D01*
X41336Y9117D01*
X40646Y9646D01*
X40619Y9682D01*
X40120Y9714D01*
X37703Y7297D01*
X37380Y7082D01*
X37000Y7006D01*
X21660D01*
X21383Y6336D01*
X20854Y5646D01*
X20164Y5117D01*
X19362Y4785D01*
X18500Y4671D01*
X17639Y4785D01*
X16836Y5117D01*
X16146Y5646D01*
X15617Y6336D01*
X15285Y7139D01*
X15171Y8000D01*
X15285Y8862D01*
X15617Y9664D01*
X16146Y10354D01*
X16836Y10883D01*
X17639Y11215D01*
X18500Y11328D01*
X19362Y11215D01*
X20164Y10883D01*
X20854Y10354D01*
X21383Y9664D01*
X21660Y8994D01*
X36588D01*
X39683Y12089D01*
X39785Y12862D01*
X40117Y13664D01*
X40646Y14354D01*
X41336Y14883D01*
X42138Y15215D01*
X43000Y15328D01*
D02*
G37*
G36*
X100247Y10753D02*
X107753D01*
Y3247D01*
X100247D01*
Y10753D01*
D02*
G37*
G36*
X2747Y10253D02*
X10253D01*
Y2747D01*
X2747D01*
Y10253D01*
D02*
G37*
%LPD*%
G36*
X26882Y90600D02*
X26640Y90283D01*
X26886Y89783D01*
X37852D01*
X38042Y90283D01*
X37617Y90836D01*
X37438Y91270D01*
X27160D01*
X26882Y90600D01*
D02*
G37*
G36*
X56459Y84980D02*
X56715Y84361D01*
X56828Y83500D01*
X56715Y82639D01*
X56383Y81836D01*
X56092Y81458D01*
X56339Y80958D01*
X60364D01*
X60693Y81333D01*
X60672Y81500D01*
X60785Y82362D01*
X61117Y83164D01*
X61646Y83854D01*
X62336Y84383D01*
X62552Y84472D01*
Y84604D01*
X62471Y85070D01*
X57249D01*
Y85136D01*
X56800Y85322D01*
X56459Y84980D01*
D02*
G37*
G36*
X44749Y90464D02*
X44678Y90358D01*
X42406Y88086D01*
X42083Y87870D01*
X41703Y87795D01*
X25411D01*
X25279Y87295D01*
X25854Y86854D01*
X26382Y86164D01*
X26660Y85494D01*
X32914D01*
X33295Y85418D01*
X33617Y85203D01*
X36678Y82142D01*
X36893Y81820D01*
X36969Y81439D01*
Y73475D01*
X36893Y73095D01*
X36678Y72772D01*
X34994Y71088D01*
Y53412D01*
X37778Y50628D01*
X38239Y50820D01*
Y70643D01*
X45666D01*
Y58994D01*
X54807D01*
X55287Y59043D01*
Y80127D01*
X54787Y80461D01*
X54361Y80285D01*
X53500Y80172D01*
X52639Y80285D01*
X51836Y80617D01*
X51146Y81146D01*
X50617Y81836D01*
X50285Y82639D01*
X50172Y83500D01*
X50285Y84361D01*
X50617Y85164D01*
X51146Y85854D01*
X51836Y86383D01*
X52639Y86715D01*
X53500Y86829D01*
X54361Y86715D01*
X55032Y86437D01*
X55797Y87203D01*
X56120Y87418D01*
X56500Y87494D01*
X57249D01*
Y87930D01*
X57744D01*
X57869Y88076D01*
X58061Y88430D01*
X58006Y88705D01*
Y89609D01*
X57844D01*
Y92391D01*
X59887D01*
X59979Y92506D01*
X59739Y93006D01*
X47291D01*
X44749Y90464D01*
D02*
G37*
G36*
X34164Y77117D02*
X33494Y76840D01*
Y73107D01*
X33994Y72900D01*
X34981Y73887D01*
Y77114D01*
X34481Y77360D01*
X34164Y77117D01*
D02*
G37*
G36*
X62713Y66559D02*
Y60773D01*
X63175Y60581D01*
X66297Y63703D01*
X66620Y63918D01*
X66825Y63959D01*
X67117Y64664D01*
X67326Y64936D01*
X67011Y65347D01*
X66861Y65285D01*
X66000Y65171D01*
X65139Y65285D01*
X64336Y65617D01*
X63646Y66146D01*
X63213Y66711D01*
X62713Y66559D01*
D02*
G37*
D27*
X71000Y71602D02*
D03*
Y69398D02*
D03*
D67*
X28000Y45000D02*
Y45500D01*
X15000Y58500D01*
Y80500D01*
X32500Y47000D02*
Y49500D01*
X33550Y45950D02*
X32500Y47000D01*
X33550Y33050D02*
Y45950D01*
Y33050D02*
X33500Y33000D01*
X67550Y57050D02*
X63000Y52500D01*
X75450Y57050D02*
X67550D01*
X77670Y54830D02*
X75450Y57050D01*
X33500Y33000D02*
X27000Y26500D01*
Y25500D02*
Y26500D01*
X65132Y121000D02*
X39000D01*
X72979Y113153D02*
X65132Y121000D01*
X71062Y41000D02*
X70500D01*
X60000Y30500D01*
X91830Y54830D02*
X77670D01*
X92500Y55500D02*
X91830Y54830D01*
D68*
X23500Y40500D02*
Y42500D01*
X24000Y43000D02*
X23500Y42500D01*
X7000Y16000D02*
X6500Y15500D01*
X24000Y43000D02*
X23500D01*
X24000Y28000D02*
Y43000D01*
X83500Y31500D02*
X80000Y35000D01*
X66898Y69398D02*
X66000Y68500D01*
X71000Y69398D02*
X66898D01*
X77500Y30000D02*
X76000D01*
X85000Y22500D02*
X77500Y30000D01*
X70000Y79000D02*
X66000Y75000D01*
X70000Y79000D02*
Y84000D01*
X29000Y56500D02*
Y58500D01*
X34000Y53000D02*
Y71500D01*
X39500Y47500D02*
X34000Y53000D01*
X64000Y47500D02*
X39500D01*
X29000Y58500D02*
X25525Y61975D01*
X70000Y63000D02*
Y68319D01*
X70500Y68819D02*
X70000Y68319D01*
Y63000D02*
X67000D01*
X71000Y69319D02*
X70500Y68819D01*
X70907Y88000D02*
X64907Y94000D01*
X103000Y88000D02*
X70907D01*
X104000Y87000D02*
X103000Y88000D01*
X67000Y63000D02*
X62000Y58000D01*
X25525Y61975D02*
Y73025D01*
X27000Y74500D02*
X25525Y73025D01*
X70000Y53000D02*
X69500D01*
X64000Y47500D01*
X64907Y94000D02*
X46879D01*
X41000Y12000D02*
X37000Y8000D01*
X18500D01*
X104000Y47000D02*
X99577D01*
X90500Y37923D01*
Y31500D02*
Y37923D01*
X7478Y86478D02*
X6500Y85500D01*
X17000Y93500D02*
X9978Y86478D01*
X7478D01*
X43000Y12000D02*
X41000D01*
X32914Y84500D02*
X23500D01*
X35975Y81439D02*
X32914Y84500D01*
X41703Y88789D02*
X18211D01*
X18000Y89000D01*
X43975Y91061D02*
X41703Y88789D01*
X40264Y92264D02*
X24000D01*
X40500Y92500D02*
X40264Y92264D01*
X35975Y73475D02*
Y81439D01*
Y73475D02*
X34000Y71500D01*
X80000Y35000D02*
X71500D01*
X68500Y32000D01*
X66890Y74110D02*
X66000Y75000D01*
X68571Y74110D02*
X66890D01*
X71000Y71681D02*
X68571Y74110D01*
X86000Y59500D02*
X85000D01*
X72898Y71602D01*
X71000D01*
X62000Y58000D02*
X43638D01*
X71000Y69319D02*
Y69398D01*
X63982Y79983D02*
X61738D01*
X59000Y77244D01*
X29000Y68000D02*
Y69250D01*
X32500Y72750D02*
X29000Y69250D01*
X32500Y72750D02*
Y80000D01*
X56500Y86500D02*
X53500Y83500D01*
X58758Y86500D02*
X56500D01*
X43638Y58000D02*
X41953Y59685D01*
X59000Y70000D02*
Y77244D01*
X12000Y16000D02*
X7000D01*
X24000Y28000D02*
X12000Y16000D01*
X71000Y71602D02*
Y71681D01*
X59000Y88705D02*
Y90465D01*
X59047Y90511D02*
X59000Y90465D01*
X59205Y88500D02*
X59000Y88705D01*
X60795Y88500D02*
X59205D01*
X61000Y88295D02*
X60795Y88500D01*
X61000Y86537D02*
Y88295D01*
Y86537D02*
X60963Y86500D01*
X46879Y94000D02*
X43975Y91096D01*
Y91061D02*
Y91096D01*
X17000Y93500D02*
Y105500D01*
X104000Y26000D02*
X100500Y22500D01*
X104000Y26000D02*
Y27000D01*
X100500Y22500D02*
X85000D01*
X95500Y27000D02*
Y29500D01*
X103000Y37000D02*
X95500Y29500D01*
X104000Y37000D02*
X103000D01*
D69*
X64388Y89112D02*
X62500Y91000D01*
X64388Y87000D02*
Y89112D01*
X62500Y91000D02*
X61450D01*
D71*
X6500Y116500D02*
D03*
Y106500D02*
D03*
Y96500D02*
D03*
Y86500D02*
D03*
Y76500D02*
D03*
Y66500D02*
D03*
Y56500D02*
D03*
Y46500D02*
D03*
Y36500D02*
D03*
Y26500D02*
D03*
Y16500D02*
D03*
X104000Y117000D02*
D03*
Y107000D02*
D03*
Y97000D02*
D03*
Y87000D02*
D03*
Y77000D02*
D03*
Y67000D02*
D03*
Y57000D02*
D03*
Y47000D02*
D03*
Y37000D02*
D03*
Y27000D02*
D03*
Y17000D02*
D03*
D72*
X6500Y6500D02*
D03*
X104000Y7000D02*
D03*
D73*
X92980Y93153D02*
D03*
X72979D02*
D03*
Y113153D02*
D03*
X92980D02*
D03*
D74*
X82980Y103153D02*
D03*
D75*
X28000Y45000D02*
D03*
X23500Y40500D02*
D03*
X83500Y31500D02*
D03*
X66000Y68500D02*
D03*
X76000Y30000D02*
D03*
X32500Y49500D02*
D03*
X70000Y84000D02*
D03*
X29000Y56500D02*
D03*
X70000Y63000D02*
D03*
X64000Y81500D02*
D03*
X15000Y80500D02*
D03*
X66000Y75000D02*
D03*
X32500Y80000D02*
D03*
X68500Y32000D02*
D03*
X70000Y53000D02*
D03*
X40500Y92500D02*
D03*
X27000Y74500D02*
D03*
X63000Y52500D02*
D03*
X27000Y25500D02*
D03*
X53500Y83500D02*
D03*
X18500Y8000D02*
D03*
X90500Y31500D02*
D03*
X43000Y12000D02*
D03*
X71062Y41500D02*
D03*
X23500Y84500D02*
D03*
X18000Y89000D02*
D03*
X24000Y92264D02*
D03*
X60000Y30500D02*
D03*
X86000Y59500D02*
D03*
X29000Y68000D02*
D03*
X33500Y33000D02*
D03*
X39000Y121000D02*
D03*
X17000Y105500D02*
D03*
X92500Y55500D02*
D03*
X95500Y27000D02*
D03*
D76*
X76500Y106500D02*
D03*
X46563Y126153D02*
D03*
X19500Y63500D02*
D03*
X46606Y115319D02*
D03*
X56500Y127500D02*
D03*
X103500Y127000D02*
D03*
X62429Y126605D02*
D03*
X87976Y126724D02*
D03*
X93925Y125537D02*
D03*
X60000Y97500D02*
D03*
X67942Y125523D02*
D03*
X72805Y127554D02*
D03*
X65000Y99000D02*
D03*
X86340Y118796D02*
D03*
X79500Y119500D02*
D03*
X87000Y66500D02*
D03*
X51192Y53095D02*
D03*
X54736Y90760D02*
D03*
X63000Y105000D02*
D03*
X66072Y109619D02*
D03*
X97482Y106110D02*
D03*
X97610Y100475D02*
D03*
X97000Y85000D02*
D03*
X95500Y74000D02*
D03*
X91500Y70000D02*
D03*
X70000Y103000D02*
D03*
X94500Y79500D02*
D03*
X86500Y73000D02*
D03*
X49000Y66500D02*
D03*
Y75500D02*
D03*
X90500Y106000D02*
D03*
X89500Y100000D02*
D03*
X85000Y96000D02*
D03*
X91500Y84500D02*
D03*
X89500Y77500D02*
D03*
X52500Y62000D02*
D03*
X52000Y71000D02*
D03*
X83000Y110500D02*
D03*
D77*
X58758Y86500D02*
D03*
X60963D02*
D03*
D78*
X59000Y70000D02*
D03*
X41953Y59685D02*
D03*
D79*
X59122Y91000D02*
D03*
X60500D02*
D03*
D80*
X64388Y81888D02*
Y87000D01*
Y81888D02*
X64000Y81500D01*
M02*
