G04*
G04 #@! TF.GenerationSoftware,Altium Limited,Altium Designer,19.1.8 (144)*
G04*
G04 Layer_Color=255*
%FSLAX25Y25*%
%MOIN*%
G70*
G01*
G75*
%ADD27R,0.01260X0.01417*%
%ADD71C,0.05906*%
%ADD72R,0.05906X0.05906*%
%ADD73C,0.08268*%
%ADD74C,0.07874*%
%ADD77R,0.01417X0.01260*%
%ADD78R,0.05827X0.20315*%
%ADD79R,0.00957X0.01181*%
D27*
X71000Y71602D02*
D03*
Y69398D02*
D03*
D71*
X6500Y116500D02*
D03*
Y106500D02*
D03*
Y96500D02*
D03*
Y86500D02*
D03*
Y76500D02*
D03*
Y66500D02*
D03*
Y56500D02*
D03*
Y46500D02*
D03*
Y36500D02*
D03*
Y26500D02*
D03*
Y16500D02*
D03*
X104000Y117000D02*
D03*
Y107000D02*
D03*
Y97000D02*
D03*
Y87000D02*
D03*
Y77000D02*
D03*
Y67000D02*
D03*
Y57000D02*
D03*
Y47000D02*
D03*
Y37000D02*
D03*
Y27000D02*
D03*
Y17000D02*
D03*
D72*
X6500Y6500D02*
D03*
X104000Y7000D02*
D03*
D73*
X92980Y93153D02*
D03*
X72979D02*
D03*
Y113153D02*
D03*
X92980D02*
D03*
D74*
X82980Y103153D02*
D03*
D77*
X58758Y86500D02*
D03*
X60963D02*
D03*
D78*
X59000Y70000D02*
D03*
X41953Y59685D02*
D03*
D79*
X59122Y91000D02*
D03*
X60500D02*
D03*
M02*
