G04 ================== begin FILE IDENTIFICATION RECORD ==================*
G04 Layout Name:  PC43BV04.brd*
G04 Film Name:    PC43BV04L2*
G04 File Format:  Gerber RS274X*
G04 File Origin:  Cadence Allegro 16.6-2015-S103*
G04 Origin Date:  Fri Jul 27 10:07:34 2018*
G04 *
G04 Layer:  BOARD GEOMETRY/LAY2_TXT*
G04 Layer:  VIA CLASS/L2*
G04 Layer:  PIN/L2*
G04 Layer:  ETCH/L2*
G04 Layer:  BOARD GEOMETRY/OUTLINE*
G04 *
G04 Offset:    (0.0000 0.0000)*
G04 Mirror:    No*
G04 Mode:      Positive*
G04 Rotation:  0*
G04 FullContactRelief:  No*
G04 UndefLineWidth:     0.1000*
G04 ================== end FILE IDENTIFICATION RECORD ====================*
%FSLAX25Y25*MOMM*%
%IR0*IPPOS*OFA0.00000B0.00000*MIA0B0*SFA1.00000B1.00000*%
%ADD11C,.5*%
%ADD15C,.8*%
%ADD13C,1.6*%
%ADD14C,1.52*%
%ADD10C,1.58*%
%ADD12R,1.58X1.58*%
%ADD16C,.3*%
%ADD17C,.15*%
%ADD18C,.1*%
%ADD19C,1.0084*%
%ADD22C,2.1084*%
%ADD23C,2.0284*%
%ADD20C,2.0884*%
%ADD21R,2.0884X2.0884*%
G75*
%LPD*%
G75*
G36*
G01X5000000Y4750000D02*
G03X5150000Y4900000I0J150000D01*
G01Y6000000D01*
X6950000D01*
Y650000D01*
X6000000D01*
G03X5850000Y500000I0J-150000D01*
G01Y50000D01*
X1150000D01*
Y500000D01*
G03X1000000Y650000I-150000J0D01*
G01X50000D01*
Y6000000D01*
X1950000D01*
Y4900000D01*
G03X2100000Y4750000I150000J0D01*
G01X5000000D01*
G37*
%LPC*%
G75*
G36*
G01X2721610Y3368270D02*
G03X2725740Y3355850I9241J-3824D01*
G02X2653390Y3331730I-25743J-43352D01*
G03X2649260Y3344150I-9241J3824D01*
G02X2721610Y3368270I25743J43352D01*
G37*
G36*
G01X3186260Y2906120D02*
G03X3215520Y2905530I14905J13332D01*
G02X3213740Y2816380I46979J-45531D01*
G03X3184480Y2816970I-14905J-13332D01*
G02X3186260Y2906120I-46979J45531D01*
G37*
G36*
G01X3867440Y2438690D02*
G02Y2501310I-57440J31310D01*
G03X3902560I17560J9574D01*
G02Y2438690I57440J-31310D01*
G03X3867440I-17560J-9574D01*
G37*
G36*
G01X4106360Y3428240D02*
G03X4096960Y3398960I7478J-18550D01*
G02X4015970Y3447520I-88964J-56558D01*
G03X4037370Y3469600I1516J19942D01*
G02X4106360Y3428240I50130J5400D01*
G37*
G36*
G01X4498220Y3446310D02*
G02X4425440Y3396360I17783J-103908D01*
G03X4413010Y3426030I-17181J10241D01*
G02X4475010Y3468570I11993J48972D01*
G03X4498220Y3446310I19836J-2548D01*
G37*
G36*
G01X2967830Y4015270D02*
G02X2907170I-30330J-40270D01*
G03Y4047230I-12036J15980D01*
G02X2967830I30330J40270D01*
G03Y4015270I12036J-15980D01*
G37*
G36*
G01X3737780Y3466270D02*
G03X3757130Y3447770I19945J1492D01*
G02X3663030Y3395670I-3132J-105372D01*
G03X3657620Y3421890I-17259J10107D01*
G02X3737780Y3466270I29881J40611D01*
G37*
G54D19*
X4920000Y4020000D03*
X3250000Y3950000D03*
X4400000Y3662500D03*
X3887500D03*
X3167500Y4275000D03*
X1270000Y4855000D03*
X1120000Y5563000D03*
X1937500Y3150000D03*
X2252500Y1950000D03*
X2680000Y1452500D03*
X2850000Y1550000D03*
X3162500Y1525000D03*
X3860000Y3865000D03*
X4260000Y2800000D03*
X4625000Y3865000D03*
X4255000D03*
X4775000Y2800000D03*
X2937500Y4462500D03*
X3162500Y3525000D03*
X2500000Y3142500D03*
X2587500Y3537500D03*
X2662500Y3712500D03*
X3437500Y3862500D03*
X3537500Y3312500D03*
X2772500Y4400000D03*
G54D22*
X2026800Y4028200D03*
Y4282200D03*
X2280800D03*
X4008000Y3088400D03*
X3754000D03*
X4516000D03*
X4262000D03*
X4770000D03*
Y3342400D03*
X5278000Y3088400D03*
X5024000D03*
X5278000Y3342400D03*
X5024000D03*
X5278000Y3723400D03*
Y3977400D03*
X5532000Y3088400D03*
Y3342400D03*
Y3723400D03*
Y3977400D03*
Y4739400D03*
Y4485400D03*
Y5374400D03*
Y5120400D03*
X4262000Y3342400D03*
X2280800Y4028200D03*
G54D23*
X3125000Y2087500D03*
G54D20*
X325000Y904000D03*
Y1412000D03*
Y1158000D03*
Y1666000D03*
Y1920000D03*
Y2174000D03*
Y2428000D03*
Y2682000D03*
Y2936000D03*
Y3190000D03*
Y3444000D03*
Y3698000D03*
Y3952000D03*
Y4206000D03*
Y4460000D03*
Y4714000D03*
Y4968000D03*
Y5222000D03*
X579000Y904000D03*
Y1412000D03*
Y1158000D03*
Y1666000D03*
Y2174000D03*
Y2428000D03*
Y2682000D03*
Y2936000D03*
Y3444000D03*
Y3698000D03*
Y3952000D03*
Y4206000D03*
Y4714000D03*
Y4968000D03*
Y5222000D03*
Y5476000D03*
X1087000Y904000D03*
Y1158000D03*
Y1412000D03*
Y1666000D03*
Y1920000D03*
Y3190000D03*
Y2936000D03*
Y2682000D03*
Y3698000D03*
Y3444000D03*
Y3952000D03*
Y4206000D03*
X6421000Y904000D03*
Y1412000D03*
Y1158000D03*
X5913000Y1412000D03*
Y1158000D03*
X6421000Y1666000D03*
Y1920000D03*
X5913000Y1666000D03*
Y1920000D03*
X6421000Y2174000D03*
Y2428000D03*
X5913000Y2174000D03*
Y2428000D03*
X6421000Y2682000D03*
Y2936000D03*
Y3190000D03*
X5913000Y2682000D03*
X6421000Y3444000D03*
Y3698000D03*
X5913000Y3596400D03*
Y3342400D03*
X6421000Y3952000D03*
Y4206000D03*
X5913000Y3850400D03*
Y4104400D03*
X6421000Y4460000D03*
Y4714000D03*
X5913000Y4358400D03*
Y4612400D03*
X6421000Y4968000D03*
Y5222000D03*
X5913000Y4866400D03*
Y5120400D03*
Y5374400D03*
X6675000Y904000D03*
Y1412000D03*
Y1158000D03*
Y1666000D03*
Y2174000D03*
Y2428000D03*
Y2682000D03*
Y2936000D03*
Y3444000D03*
Y3698000D03*
Y3952000D03*
Y4206000D03*
Y4714000D03*
Y4968000D03*
Y5222000D03*
Y5476000D03*
G54D21*
X325000D03*
X579000Y1920000D03*
Y3190000D03*
Y4460000D03*
X1087000Y2174000D03*
Y4460000D03*
X5913000Y904000D03*
Y3088400D03*
X6421000Y5476000D03*
X6675000Y1920000D03*
Y3190000D03*
Y4460000D03*
%LPD*%
G75*
G54D10*
X325000Y1158000D03*
Y904000D03*
Y1412000D03*
Y1666000D03*
Y1920000D03*
Y2174000D03*
Y2428000D03*
Y2682000D03*
Y2936000D03*
Y3190000D03*
Y3444000D03*
Y3698000D03*
Y3952000D03*
Y4206000D03*
Y4460000D03*
Y4714000D03*
Y4968000D03*
Y5222000D03*
X579000Y1158000D03*
Y904000D03*
Y1412000D03*
Y1666000D03*
Y2174000D03*
Y2428000D03*
Y2682000D03*
Y2936000D03*
Y3444000D03*
Y3698000D03*
Y3952000D03*
Y4206000D03*
Y4714000D03*
Y4968000D03*
Y5222000D03*
Y5476000D03*
X1087000Y904000D03*
Y1158000D03*
Y1412000D03*
Y1666000D03*
Y1920000D03*
Y2682000D03*
Y3190000D03*
Y2936000D03*
Y3698000D03*
Y3444000D03*
Y3952000D03*
Y4206000D03*
X5913000Y1158000D03*
Y1666000D03*
Y1412000D03*
Y1920000D03*
Y2174000D03*
Y2428000D03*
Y2682000D03*
Y3342400D03*
Y3850400D03*
Y3596400D03*
Y4104400D03*
Y4358400D03*
Y4612400D03*
Y4866400D03*
Y5120400D03*
Y5374400D03*
X6421000Y1158000D03*
X6675000D03*
Y904000D03*
X6421000D03*
X6675000Y1412000D03*
X6421000D03*
X6675000Y1666000D03*
X6421000D03*
Y1920000D03*
X6675000Y2174000D03*
X6421000D03*
X6675000Y2428000D03*
X6421000D03*
X6675000Y2682000D03*
X6421000D03*
X6675000Y2936000D03*
X6421000D03*
Y3190000D03*
X6675000Y3444000D03*
X6421000D03*
X6675000Y3698000D03*
X6421000D03*
X6675000Y3952000D03*
X6421000D03*
X6675000Y4206000D03*
X6421000D03*
Y4460000D03*
X6675000Y4714000D03*
X6421000D03*
X6675000Y4968000D03*
X6421000D03*
X6675000Y5222000D03*
X6421000D03*
X6675000Y5476000D03*
G54D11*
X100000Y700000D03*
Y1000000D03*
Y1375000D03*
Y1775000D03*
Y2100000D03*
Y2450000D03*
Y2775000D03*
Y3075000D03*
Y3350000D03*
Y3625000D03*
Y3925000D03*
Y4225000D03*
Y4475000D03*
Y4750000D03*
Y4975000D03*
Y5175000D03*
Y5400000D03*
X350000Y5675000D03*
X100000Y5600000D03*
Y5775000D03*
X350000Y5950000D03*
X100000D03*
X850000Y700000D03*
X450000D03*
X825000Y2575000D03*
Y2300000D03*
Y3050000D03*
X925000Y4700000D03*
X700000Y5675000D03*
Y5950000D03*
X1260000Y90000D03*
X1370000D03*
X1260000Y490000D03*
Y290000D03*
X1400000Y675000D03*
X1350000Y825000D03*
Y1100000D03*
X1260000Y890000D03*
Y690000D03*
Y1090000D03*
X1350000Y1600000D03*
Y1400000D03*
X1260000Y1290000D03*
Y1690000D03*
Y1490000D03*
X1350000Y2150000D03*
Y1850000D03*
X1260000Y2080000D03*
Y1890000D03*
X1350000Y2725000D03*
Y2425000D03*
X1260000Y2690000D03*
Y2480000D03*
Y2280000D03*
X1275000Y3050000D03*
X1425000Y3225000D03*
X1440000Y2890000D03*
X1260000D03*
X1275000Y3375000D03*
Y3562500D03*
X1250000Y4300000D03*
X1375000Y4025000D03*
Y4700000D03*
X1270000Y4855000D03*
X1250000Y5000000D03*
Y5375000D03*
Y5625000D03*
X1120000Y5563000D03*
X1890000Y90000D03*
X1470000D03*
X1670000Y590000D03*
X1890000Y190000D03*
Y290000D03*
Y390000D03*
Y490000D03*
X1910000Y590000D03*
X1790000D03*
X1570000D03*
X1470000D03*
Y490000D03*
Y390000D03*
Y290000D03*
Y190000D03*
X1600000Y675000D03*
Y1000000D03*
Y825000D03*
X1930000Y1090000D03*
Y990000D03*
X1910000Y675000D03*
X1750000Y990000D03*
Y890000D03*
X1760000Y770000D03*
X1820000Y700000D03*
X1750000Y1090000D03*
X1600000Y1600000D03*
Y1400000D03*
Y1200000D03*
X1930000Y1490000D03*
Y1390000D03*
X1750000Y1690000D03*
Y1590000D03*
Y1490000D03*
Y1390000D03*
X1930000Y1690000D03*
Y1590000D03*
Y1290000D03*
Y1190000D03*
X1750000D03*
Y1290000D03*
X1600000Y2075000D03*
Y1825000D03*
X1750000Y2090000D03*
Y1990000D03*
Y1890000D03*
Y1790000D03*
X1930000D03*
X1750000Y2190000D03*
X1600000Y2575000D03*
Y2325000D03*
X1950000Y2725000D03*
X1750000Y2740000D03*
Y2640000D03*
Y2390000D03*
Y2290000D03*
Y2490000D03*
X1925000Y2237500D03*
X1950000Y2562500D03*
Y2400000D03*
X1850000Y3275000D03*
X1800000Y3125000D03*
X1610000Y2890000D03*
X1950000Y2862500D03*
X1937500Y3150000D03*
X1925000Y3687500D03*
X1675000Y3387500D03*
X1850000Y3412500D03*
X1937500Y3512500D03*
X1550000Y4275000D03*
X1775000Y3912500D03*
Y4375000D03*
X1600000Y4825000D03*
X1712500Y4700000D03*
X1900000Y4825000D03*
X1700000Y4925000D03*
X1675000Y5400000D03*
X1900000Y5175000D03*
X1462500Y5475000D03*
X1675000Y5700000D03*
X1900000Y5525000D03*
Y5950000D03*
X1675000D03*
X2310000Y90000D03*
X2440000Y590000D03*
X2340000D03*
X2310000Y190000D03*
Y290000D03*
Y390000D03*
Y490000D03*
X2020000Y590000D03*
X2490000Y670000D03*
X2430000Y940000D03*
X2425000Y1037500D03*
X2490000Y850000D03*
X2390000D03*
X2290000D03*
X2190000D03*
X2009840Y990000D03*
X2010000Y1090000D03*
X2250000Y630000D03*
X2190000Y940000D03*
X2290000D03*
Y1040000D03*
X2020000Y675000D03*
X2490000Y1180000D03*
X2390000D03*
X2290000D03*
X2450000Y1360000D03*
X2300000D03*
X2010000Y1290000D03*
Y1190000D03*
X2230000Y1415000D03*
X2190000Y1280000D03*
Y1180000D03*
X2170000Y1580000D03*
Y1680000D03*
X2125000Y1862500D03*
Y1762500D03*
X2300000Y1725000D03*
X2112500Y1950000D03*
X2252500D03*
X2412500Y2225000D03*
Y2400000D03*
X2250000Y2237500D03*
X2087500D03*
X2250000Y2400000D03*
X2087500D03*
X2412500Y2562500D03*
X2250000D03*
X2087500D03*
Y2725000D03*
X2250000D03*
X2412500D03*
Y2862500D03*
X2250000D03*
X2087500D03*
X2500000Y3142500D03*
X2350000Y3637500D03*
X2137500Y3337500D03*
Y3750000D03*
X2350000Y3850000D03*
X2487500Y4312500D03*
X2500000Y4700000D03*
X2250000D03*
X2000000D03*
X2940000Y90000D03*
X2740000D03*
X3000000Y437500D03*
X2900000Y387500D03*
Y225000D03*
Y537500D03*
X2740000Y190000D03*
Y290000D03*
Y390000D03*
Y490000D03*
Y590000D03*
X2640000D03*
X2540000D03*
X3037500Y662500D03*
X2900000D03*
X2790000Y670000D03*
X2690000D03*
X2590000D03*
X2537500Y937500D03*
X2812500Y1037500D03*
X2640000Y940000D03*
X2600000Y1037500D03*
X2820000Y940000D03*
X2790000Y850000D03*
X2690000D03*
X2590000D03*
X3025000Y950000D03*
Y1062500D03*
X2567550Y1676660D03*
X2790000Y1180000D03*
X2680000D03*
X2580000D03*
X3050000Y1637500D03*
X2790000Y1290000D03*
X2775000Y1450000D03*
X2850000Y1675000D03*
Y1550000D03*
X2680000Y1452500D03*
X2790000Y1940000D03*
X2575000Y1950000D03*
X3037500Y2425000D03*
X2837500Y2237500D03*
X2612500Y2450000D03*
X2775000D03*
X2675000Y2350000D03*
X2550000Y2225000D03*
X2800000Y2562500D03*
X2687500D03*
X2562500D03*
X2900000Y2587500D03*
X2562500Y2725000D03*
X2900000D03*
X2687500D03*
X2940000Y2280000D03*
X2800000Y2725000D03*
X2537500Y2337500D03*
X2900000Y2862500D03*
X2800000Y3125000D03*
Y2862500D03*
X2687500D03*
X2562500D03*
X2662500Y3712500D03*
X2525000Y3725000D03*
X2987500Y3437500D03*
X2950000Y3512500D03*
X2587500Y3537500D03*
X2675000Y3387500D03*
X2700000Y3312500D03*
X2762500Y3887500D03*
X2687500Y3987500D03*
X2875000Y3825000D03*
X2700000Y4250000D03*
X2937500Y4087500D03*
Y3975000D03*
X2737500Y4487500D03*
X3050000Y4700000D03*
X2787500D03*
X2772500Y4400000D03*
X2937500Y4462500D03*
X3540000Y90000D03*
X3340000D03*
X3140000D03*
X3325000Y437500D03*
X3337500Y225000D03*
X3200000Y587500D03*
X3525000Y437500D03*
X3125000Y225000D03*
X3575000D03*
X3312500Y675000D03*
X3512500Y887500D03*
X3187500Y675000D03*
X3175000Y950000D03*
X3312500D03*
Y825000D03*
Y1062500D03*
X3162500D03*
X3475000Y1500000D03*
Y1225000D03*
X3400000Y1325000D03*
X3175000Y1400000D03*
X3200000Y1637500D03*
X3162500Y1525000D03*
X3475000Y1800000D03*
X3537500Y2062500D03*
X3280000Y2070000D03*
X3200000Y1925000D03*
X3125000Y2737500D03*
X3425000Y2275000D03*
X3575000Y2675000D03*
X3260000Y2640000D03*
X3280000Y2280000D03*
X3100000D03*
X3125000Y2562500D03*
X3225000Y2975000D03*
X3475000Y3212500D03*
X3275000Y3100000D03*
X3175000Y3775000D03*
X3437500Y3462500D03*
X3162500Y3525000D03*
X3537500Y3312500D03*
X3287500Y4287500D03*
X3437500Y3862500D03*
X3250000Y3950000D03*
X3167500Y4275000D03*
X3450000Y4362500D03*
X3162500Y4450000D03*
X3387500Y4412500D03*
X3575000Y4700000D03*
X3300000D03*
X3940000Y90000D03*
X3740000D03*
X3775000Y575000D03*
X3750000Y250000D03*
X3600000Y1075000D03*
Y750000D03*
X3775000Y900000D03*
X3600000Y1650000D03*
Y1350000D03*
X3775000Y1225000D03*
Y1500000D03*
X3600000Y1925000D03*
X3775000Y1800000D03*
Y2025000D03*
Y2275000D03*
X3625000D03*
X3975000Y2650000D03*
X3800000Y2900000D03*
X4025000Y3787500D03*
X4087500Y3475000D03*
X3687500Y3462500D03*
X3887500Y3662500D03*
X3950000Y4125000D03*
X3775000Y4137500D03*
X3860000Y3865000D03*
X3650000Y4400000D03*
X4025000Y4700000D03*
X3862500D03*
X4540000Y90000D03*
X4340000D03*
X4140000D03*
X4250000Y2650000D03*
X4260000Y2800000D03*
X4425000Y3475000D03*
X4400000Y3662500D03*
X4175000Y4325000D03*
X4425000Y4312500D03*
X4255000Y3865000D03*
X4625000D03*
X4425000Y4400000D03*
X4500000Y4700000D03*
X4250000D03*
X5140000Y90000D03*
X4940000D03*
X4740000D03*
X4975000Y2650000D03*
X4775000Y2800000D03*
X4787500Y3787500D03*
X5050000Y3625000D03*
X4900000D03*
X4920000Y4020000D03*
X4850000Y4125000D03*
X5000000Y3912500D03*
X4800000Y3900000D03*
X5000000Y4400000D03*
Y4700000D03*
X4750000D03*
X5540000Y90000D03*
X5340000D03*
X5175000Y2550000D03*
X5625000Y2575000D03*
X5425000Y2825000D03*
X5400000Y3550000D03*
X5325000Y4475000D03*
X5175000Y4825000D03*
X5200000Y5125000D03*
X5325000Y5775000D03*
X5200000Y5575000D03*
Y5950000D03*
X5700000D03*
X5740000Y90000D03*
X5810000Y490000D03*
Y290000D03*
X6025000Y700000D03*
X6150000Y1800000D03*
Y2825000D03*
Y4550000D03*
X5725000Y5525000D03*
X6175000D03*
X6100000Y5950000D03*
X6575000Y700000D03*
X6325000D03*
X6750000Y5750000D03*
X6700000Y5950000D03*
X6900000Y1025000D03*
Y700000D03*
Y1400000D03*
Y2075000D03*
Y1750000D03*
Y2750000D03*
Y2400000D03*
Y3125000D03*
Y3550000D03*
Y3925000D03*
Y4800000D03*
Y4350000D03*
Y5175000D03*
X6875000Y5575000D03*
Y5950000D03*
G54D12*
X325000Y5476000D03*
X579000Y1920000D03*
Y3190000D03*
Y4460000D03*
X1087000Y2174000D03*
Y4460000D03*
X5913000Y904000D03*
Y3088400D03*
X6675000Y1920000D03*
Y3190000D03*
Y4460000D03*
X6421000Y5476000D03*
G54D13*
X2026800Y4028200D03*
Y4282200D03*
X2280800Y4028200D03*
Y4282200D03*
X4008000Y3088400D03*
Y3342400D03*
X3754000Y3088400D03*
Y3342400D03*
X4516000Y3088400D03*
Y3342400D03*
X4262000Y3088400D03*
Y3342400D03*
X4770000D03*
Y3088400D03*
X5024000Y3342400D03*
Y3088400D03*
X5278000D03*
Y3342400D03*
X5532000Y3088400D03*
Y3342400D03*
Y3723400D03*
X5278000D03*
X5532000Y3977400D03*
X5278000D03*
X5532000Y4739400D03*
Y4485400D03*
Y5374400D03*
Y5120400D03*
G54D14*
X3125000Y2087500D03*
G54D15*
X3137500Y2862500D03*
X3262500Y2860000D03*
X4050000Y325000D03*
X4025000Y625000D03*
Y1000000D03*
Y1375000D03*
Y2050000D03*
Y1725000D03*
X3960000Y2470000D03*
X3810000D03*
X4350000Y330000D03*
Y630000D03*
X4650000D03*
X4400000Y1000000D03*
Y1400000D03*
Y1725000D03*
Y2050000D03*
X4950000Y330000D03*
Y620000D03*
X5100000Y1000000D03*
X4750000D03*
X5100000Y1400000D03*
X4750000D03*
X5100000Y1725000D03*
X4750000D03*
X5125000Y2050000D03*
X4750000D03*
X5575000Y425000D03*
X5275000Y350000D03*
Y625000D03*
X5550000Y850000D03*
Y1275000D03*
G54D16*
G01X325000Y3075580D02*
Y3190000D01*
G01D02*
Y3304420D01*
G01X210580Y3190000D02*
X325000D01*
G01D02*
X439420D01*
G01X579000Y3075580D02*
Y3190000D01*
G01D02*
Y3304420D01*
G01X464580Y3190000D02*
X579000D01*
G01D02*
X693420D01*
G01X579000Y2821580D02*
Y2936000D01*
G01D02*
Y3050420D01*
G01X464580Y2936000D02*
X579000D01*
G01D02*
X693420D01*
G01X579000Y4599580D02*
Y4714000D01*
G01D02*
Y4828420D01*
G01X464580Y4714000D02*
X579000D01*
G01D02*
X693420D01*
G01X1087000Y2821580D02*
Y2936000D01*
G01D02*
Y3050420D01*
G01X972580Y2936000D02*
X1087000D01*
G01D02*
X1201420D01*
G01X1087000Y3075580D02*
Y3190000D01*
G01D02*
Y3304420D01*
G01X972580Y3190000D02*
X1087000D01*
G01D02*
X1201420D01*
G01X5913000Y4497980D02*
Y4612400D01*
G01D02*
Y4726820D01*
G01X5798580Y4612400D02*
X5913000D01*
G01D02*
X6027420D01*
G01X6675000Y3075580D02*
Y3190000D01*
G01D02*
Y3304420D01*
G01X6560580Y3190000D02*
X6675000D01*
G01D02*
X6789420D01*
G01X6421000Y4345580D02*
Y4460000D01*
G01D02*
Y4574420D01*
G01X6306580Y4460000D02*
X6421000D01*
G01D02*
X6535420D01*
G54D17*
G01X7716670Y4200000D02*
Y4360000D01*
X7756670D01*
X7770000Y4352000D01*
X7780000Y4333330D01*
X7783330Y4312000D01*
X7780000Y4290670D01*
X7771670Y4274670D01*
X7756670Y4266660D01*
X7716670D01*
G01X7901670Y4346660D02*
X7891670Y4354670D01*
X7880000Y4360000D01*
X7866670D01*
X7851660Y4352000D01*
X7840000Y4338670D01*
X7831670Y4322660D01*
X7825000Y4296000D01*
X7823330Y4272000D01*
X7826670Y4248000D01*
X7831670Y4232000D01*
X7841670Y4216000D01*
X7853330Y4205330D01*
X7865000Y4200000D01*
X7876670D01*
X7888330Y4205330D01*
X7898330Y4213330D01*
X7906670Y4223990D01*
G01X8000000Y4200000D02*
Y4360000D01*
X7938330Y4245330D01*
X8021670D01*
G01X8058330Y4232000D02*
X8068330Y4213330D01*
X8081660Y4202670D01*
X8096670Y4200000D01*
X8110000Y4202670D01*
X8123330Y4216000D01*
X8131670Y4232000D01*
X8133330Y4248000D01*
X8130000Y4266660D01*
X8118330Y4280000D01*
X8106670Y4285330D01*
X8091670D01*
G01X8106670D02*
X8116670Y4293330D01*
X8125000Y4306660D01*
X8128330Y4322660D01*
X8125000Y4338670D01*
X8116670Y4352000D01*
X8101670Y4360000D01*
X8086670Y4357330D01*
X8071670Y4346660D01*
G01X8223330Y4285330D02*
X8230000Y4293330D01*
X8235000Y4306660D01*
X8238330Y4325340D01*
X8235000Y4341330D01*
X8228330Y4352000D01*
X8216670Y4360000D01*
X8171670D01*
Y4200000D01*
X8226670D01*
X8238330Y4210660D01*
X8245000Y4226670D01*
X8248330Y4245330D01*
X8245000Y4264000D01*
X8235000Y4280000D01*
X8223330Y4285330D01*
X8171670D01*
G01X8283330Y4360000D02*
X8325000Y4200000D01*
X8366670Y4360000D01*
G01X8440000D02*
X8426660Y4354670D01*
X8416670Y4341330D01*
X8410000Y4325340D01*
X8405000Y4304000D01*
X8403330Y4280000D01*
X8405000Y4256000D01*
X8410000Y4234660D01*
X8416670Y4218660D01*
X8426660Y4205330D01*
X8440000Y4200000D01*
X8453330Y4205330D01*
X8463330Y4218660D01*
X8470000Y4234660D01*
X8475000Y4256000D01*
X8476670Y4280000D01*
X8475000Y4304000D01*
X8470000Y4325340D01*
X8463330Y4341330D01*
X8453330Y4354670D01*
X8440000Y4360000D01*
G01X8575000Y4200000D02*
Y4360000D01*
X8513330Y4245330D01*
X8596670D01*
G01X8620000Y4146670D02*
X8720000D01*
G01X8751670Y4360000D02*
Y4200000D01*
X8818330D01*
G01X8868330Y4333330D02*
X8878330Y4349330D01*
X8890000Y4357330D01*
X8903330Y4360000D01*
X8920000Y4354670D01*
X8931670Y4341330D01*
X8935000Y4325340D01*
X8933330Y4309330D01*
X8926670Y4296000D01*
X8893330Y4269330D01*
X8878330Y4250670D01*
X8868330Y4223990D01*
X8865000Y4200000D01*
X8935000D01*
G01X9211670Y4360000D02*
Y4200000D01*
X9278330D01*
G01X9318330D02*
X9360000Y4360000D01*
X9401670Y4200000D01*
G01X9386670Y4256000D02*
X9333330D01*
G01X9475000Y4200000D02*
Y4272000D01*
X9441670Y4360000D01*
G01X9508330D02*
X9475000Y4272000D01*
G01X9623330Y4200000D02*
X9556670D01*
Y4360000D01*
X9623330D01*
G01X9596670Y4282670D02*
X9556670D01*
G01X9671670Y4200000D02*
Y4360000D01*
X9713330D01*
X9726670Y4352000D01*
X9735000Y4341330D01*
X9738330Y4320000D01*
X9735000Y4298670D01*
X9725000Y4285330D01*
X9713330Y4277330D01*
X9671670D01*
G01X9713330D02*
X9738330Y4200000D01*
G01X9903330Y4333330D02*
X9913330Y4349330D01*
X9925000Y4357330D01*
X9938330Y4360000D01*
X9955000Y4354670D01*
X9966670Y4341330D01*
X9970000Y4325340D01*
X9968330Y4309330D01*
X9961670Y4296000D01*
X9928330Y4269330D01*
X9913330Y4250670D01*
X9903330Y4223990D01*
X9900000Y4200000D01*
X9970000D01*
G01X10156670Y4146670D02*
X10140000Y4173330D01*
X10131670Y4200000D01*
Y4306660D01*
X10140000Y4333330D01*
X10156670Y4360000D01*
G01X10246670D02*
Y4200000D01*
X10313330D01*
G01X10363330Y4333330D02*
X10373330Y4349330D01*
X10385000Y4357330D01*
X10398330Y4360000D01*
X10415000Y4354670D01*
X10426670Y4341330D01*
X10430000Y4325340D01*
X10428330Y4309330D01*
X10421670Y4296000D01*
X10388330Y4269330D01*
X10373330Y4250670D01*
X10363330Y4223990D01*
X10360000Y4200000D01*
X10430000D01*
G01X10518330Y4146670D02*
X10535000Y4173330D01*
X10543330Y4200000D01*
Y4306660D01*
X10535000Y4333330D01*
X10518330Y4360000D01*
G01X7705830Y6783330D02*
X7715830Y6799330D01*
X7727500Y6807330D01*
X7740830Y6810000D01*
X7757500Y6804670D01*
X7769170Y6791330D01*
X7772500Y6775340D01*
X7770830Y6759330D01*
X7764170Y6746000D01*
X7730830Y6719330D01*
X7715830Y6700670D01*
X7705830Y6673990D01*
X7702500Y6650000D01*
X7772500D01*
G01X7849170D02*
X7852500Y6684660D01*
X7857500Y6714000D01*
X7864170Y6740670D01*
X7872500Y6770000D01*
X7885830Y6810000D01*
X7819170D01*
G01X7945830Y6703330D02*
X7989170D01*
G01X8082500Y6810000D02*
X8069160Y6804670D01*
X8059170Y6791330D01*
X8052500Y6775340D01*
X8047500Y6754000D01*
X8045830Y6730000D01*
X8047500Y6706000D01*
X8052500Y6684660D01*
X8059170Y6668660D01*
X8069160Y6655330D01*
X8082500Y6650000D01*
X8095830Y6655330D01*
X8105830Y6668660D01*
X8112500Y6684660D01*
X8117500Y6706000D01*
X8119170Y6730000D01*
X8117500Y6754000D01*
X8112500Y6775340D01*
X8105830Y6791330D01*
X8095830Y6804670D01*
X8082500Y6810000D01*
G01X8194170Y6650000D02*
X8197500Y6684660D01*
X8202500Y6714000D01*
X8209170Y6740670D01*
X8217500Y6770000D01*
X8230830Y6810000D01*
X8164170D01*
G01X8290830Y6703330D02*
X8334170D01*
G01X8395830Y6783330D02*
X8405830Y6799330D01*
X8417500Y6807330D01*
X8430830Y6810000D01*
X8447500Y6804670D01*
X8459170Y6791330D01*
X8462500Y6775340D01*
X8460830Y6759330D01*
X8454170Y6746000D01*
X8420830Y6719330D01*
X8405830Y6700670D01*
X8395830Y6673990D01*
X8392500Y6650000D01*
X8462500D01*
G01X8542500Y6810000D02*
X8529160Y6804670D01*
X8519170Y6791330D01*
X8512500Y6775340D01*
X8507500Y6754000D01*
X8505830Y6730000D01*
X8507500Y6706000D01*
X8512500Y6684660D01*
X8519170Y6668660D01*
X8529160Y6655330D01*
X8542500Y6650000D01*
X8555830Y6655330D01*
X8565830Y6668660D01*
X8572500Y6684660D01*
X8577500Y6706000D01*
X8579170Y6730000D01*
X8577500Y6754000D01*
X8572500Y6775340D01*
X8565830Y6791330D01*
X8555830Y6804670D01*
X8542500Y6810000D01*
G01X8657500Y6650000D02*
Y6810000D01*
X8637500Y6778000D01*
G01Y6650000D02*
X8677500D01*
G01X8772500D02*
X8784170Y6652670D01*
X8797500Y6660660D01*
X8805830Y6673990D01*
X8809170Y6692670D01*
X8805830Y6711330D01*
X8795830Y6727330D01*
X8780830Y6735330D01*
X8764170D01*
X8754170Y6740670D01*
X8745830Y6754000D01*
X8742500Y6772660D01*
X8747500Y6791330D01*
X8759160Y6804670D01*
X8772500Y6810000D01*
X8785830Y6804670D01*
X8797500Y6791330D01*
X8802500Y6772660D01*
X8799170Y6754000D01*
X8790830Y6740670D01*
X8780830Y6735330D01*
X8764170D01*
X8749170Y6727330D01*
X8739170Y6711330D01*
X8735830Y6692670D01*
X8739170Y6673990D01*
X8747500Y6660660D01*
X8760830Y6652670D01*
X8772500Y6650000D01*
G01X9082500D02*
X9152500Y6810000D01*
G01X9082500D02*
X9152500Y6650000D01*
G01X9210830Y6703330D02*
X9254170D01*
G01X9309170Y6650000D02*
Y6810000D01*
X9385830Y6650000D01*
Y6810000D01*
G01X9425830D02*
Y6695330D01*
X9432500Y6671330D01*
X9445830Y6655330D01*
X9462500Y6650000D01*
X9479170Y6655330D01*
X9492500Y6671330D01*
X9499170Y6695330D01*
Y6810000D01*
G01X9614170Y6796660D02*
X9604170Y6804670D01*
X9592500Y6810000D01*
X9579170D01*
X9564160Y6802000D01*
X9552500Y6788670D01*
X9544170Y6772660D01*
X9537500Y6746000D01*
X9535830Y6722000D01*
X9539170Y6698000D01*
X9544170Y6682000D01*
X9554170Y6666000D01*
X9565830Y6655330D01*
X9577500Y6650000D01*
X9589170D01*
X9600830Y6655330D01*
X9610830Y6663330D01*
X9619170Y6673990D01*
G01X9659170Y6810000D02*
Y6650000D01*
X9725830D01*
G01X9840830D02*
X9774170D01*
Y6810000D01*
X9840830D01*
G01X9814170Y6732670D02*
X9774170D01*
G01X9922500Y6650000D02*
X9909160Y6652670D01*
X9897500Y6663330D01*
X9887500Y6679330D01*
X9880830Y6698000D01*
X9877500Y6719330D01*
Y6740670D01*
X9880830Y6762000D01*
X9887500Y6780670D01*
X9897500Y6796660D01*
X9909160Y6807330D01*
X9922500Y6810000D01*
X9935830Y6807330D01*
X9947500Y6796660D01*
X9957500Y6780670D01*
X9964170Y6762000D01*
X9967500Y6740670D01*
Y6719330D01*
X9964170Y6698000D01*
X9957500Y6679330D01*
X9947500Y6663330D01*
X9935830Y6652670D01*
X9922500Y6650000D01*
G01X10015830Y6703330D02*
X10059170D01*
G01X10162500Y6730000D02*
X10195830D01*
Y6682000D01*
X10185830Y6666000D01*
X10174170Y6655330D01*
X10157500Y6650000D01*
X10140830Y6655330D01*
X10129170Y6666000D01*
X10119170Y6682000D01*
X10112500Y6700670D01*
X10109170Y6722000D01*
Y6740670D01*
X10112500Y6756660D01*
X10119170Y6775340D01*
X10129170Y6791330D01*
X10139160Y6802000D01*
X10152500Y6810000D01*
X10164170D01*
X10177500Y6804670D01*
X10187500Y6794000D01*
G01X10229170Y6650000D02*
Y6810000D01*
X10305830Y6650000D01*
Y6810000D01*
G01X10347500Y6671330D02*
X10360830Y6658000D01*
X10375830Y6650000D01*
X10389170D01*
X10402500Y6658000D01*
X10412500Y6671330D01*
X10417500Y6690000D01*
X10414170Y6708660D01*
X10405830Y6724670D01*
X10390830Y6735330D01*
X10370830Y6740670D01*
X10359170Y6751330D01*
X10354170Y6770000D01*
X10357500Y6788670D01*
X10365830Y6802000D01*
X10377500Y6810000D01*
X10389170D01*
X10400830Y6804670D01*
X10410830Y6791330D01*
G01X10462500Y6671330D02*
X10475830Y6658000D01*
X10490830Y6650000D01*
X10504170D01*
X10517500Y6658000D01*
X10527500Y6671330D01*
X10532500Y6690000D01*
X10529170Y6708660D01*
X10520830Y6724670D01*
X10505830Y6735330D01*
X10485830Y6740670D01*
X10474170Y6751330D01*
X10469170Y6770000D01*
X10472500Y6788670D01*
X10480830Y6802000D01*
X10492500Y6810000D01*
X10504170D01*
X10515830Y6804670D01*
X10525830Y6791330D01*
G01X10612500Y6650000D02*
Y6810000D01*
X10592500Y6778000D01*
G01Y6650000D02*
X10632500D01*
G01X10685830D02*
X10727500Y6810000D01*
X10769170Y6650000D01*
G01X10754170Y6706000D02*
X10700830D01*
G01X10842500Y6650000D02*
Y6810000D01*
X10822500Y6778000D01*
G01Y6650000D02*
X10862500D01*
G54D18*
G01X6000000Y600000D02*
X7000000D01*
Y6050000D01*
X5100000D01*
Y4900000D01*
G02X5000000Y4800000I-100000J0D01*
G01X2100000D01*
G02X2000000Y4900000I0J100000D01*
G01Y6050000D01*
X0D01*
Y600000D01*
X1000000D01*
G02X1100000Y500000I0J-100000D01*
G01Y0D01*
X5900000D01*
Y500000D01*
G02X6000000Y600000I100000J0D01*
M02*
