M48
METRIC,TZ
T01C.2
T02C.3
T03C.9
T04C1.
;LEADER: 12 
;HEADER: 
;CODE  : ASCII 
;FILE  : PC43BV04-1-4.drl for  ... layers TOP and BOTTOM
;DESIGN: PC43BV04.brd
;T01 Holesize 1. = 0.200000 Tolerance = +0.000000/-0.000000 PLATED MM Quantity = 442
;T02 Holesize 2. = 0.300000 Tolerance = +0.000000/-0.000000 PLATED MM Quantity = 32
;T03 Holesize 3. = 0.900000 Tolerance = +0.000000/-0.000000 PLATED MM Quantity = 28
;T04 Holesize 4. = 1.000000 Tolerance = +0.000000/-0.000000 PLATED MM Quantity = 109
%
G90
T01
X2020000Y590000
Y675000
X1820000Y700000
X3750000Y250000
X3575000Y225000
X1370000Y90000
X1260000
Y290000
Y490000
Y690000
X1470000Y90000
Y190000
Y290000
Y390000
Y490000
Y590000
X1570000
X1790000
X2250000Y630000
X1910000Y675000
Y590000
X1890000Y490000
Y390000
Y290000
Y190000
Y90000
X2310000Y490000
Y390000
Y290000
Y190000
Y90000
X2340000Y590000
X2440000
X2540000
X2640000
X2740000
Y490000
Y390000
Y290000
Y190000
Y90000
X2940000
X1670000Y590000
X2900000Y537500
Y225000
X3125000
X3525000Y437500
X2900000Y387500
X3000000Y437500
X3140000Y90000
X3340000
X3540000
X3740000
X3940000
X4140000
X4340000
X4540000
X4740000
X4940000
X5140000
X5340000
X5540000
X5740000
X5810000Y290000
Y490000
X2490000Y670000
X2590000
X2690000
X2790000
X2900000Y662500
X3037500
X100000Y700000
X450000
X850000
X3187500Y675000
X1400000
X1600000
X6025000Y700000
X6325000
X6575000
X3200000Y587500
X3337500Y225000
X3325000Y437500
X3775000Y575000
X3312500Y675000
X3887500Y3662500
X4400000
X2700000Y3312500
X3537500
X1937500Y3150000
X2500000Y3142500
X2675000Y3387500
X3687500Y3462500
X4087500Y3475000
X4425000
X2252500Y1950000
X2680000Y1452500
X2587500Y3537500
X1270000Y4855000
X3162500Y3525000
X3167500Y4275000
X2937500Y4462500
X3162500Y1525000
X2850000Y1550000
X4260000Y2800000
X3250000Y3950000
X2937500Y3975000
Y4087500
X1120000Y5563000
X2772500Y4400000
X4625000Y3865000
X4255000
X3860000
X3437500Y3862500
Y3462500
X2850000Y1675000
X1750000Y2190000
Y1290000
Y1190000
Y1090000
X1760000Y770000
X1750000Y890000
Y990000
X2170000Y1680000
X2290000Y1040000
Y940000
X2190000
X1260000Y1490000
Y1690000
Y1290000
Y1090000
Y890000
X2170000Y1580000
X2190000Y1180000
Y1280000
X2230000Y1415000
X2950000Y3512500
X2987500Y3437500
X3125000Y2562500
X1950000Y2400000
Y2562500
X1925000Y2237500
X2537500Y2337500
X2000000Y4700000
X2250000
X2500000
X2787500
X3050000
X3300000
X3575000
X3862500
X4025000
X4250000
X4500000
X4750000
X5000000
X3650000Y4400000
X3387500Y4412500
X3162500Y4450000
X5000000Y4400000
X1930000Y1790000
X2010000Y1190000
Y1090000
X2009840Y990000
X1930000
Y1090000
Y1190000
Y1290000
Y1590000
Y1690000
X2112500Y1950000
X2010000Y1290000
X3287500Y4287500
X2487500Y4312500
X2700000Y4250000
X4425000Y4312500
Y4400000
X4175000Y4325000
X1950000Y2862500
X2412500Y2725000
X2800000
X2087500Y2862500
X2250000
X2562500
X2687500
X2575000Y1950000
X2300000Y1725000
Y1360000
X2450000
X2940000Y2280000
X3200000Y1925000
X3100000Y2280000
X3280000Y2070000
Y2280000
X2875000Y3825000
X3175000Y3775000
X3775000Y4137500
X2687500Y3987500
X2762500Y3887500
X1750000Y1390000
Y1490000
Y1590000
Y1690000
Y1790000
Y1890000
Y1990000
Y2090000
X1930000Y1390000
Y1490000
X1750000Y2490000
Y2290000
Y2390000
Y2640000
X2687500Y2725000
X2790000Y1940000
X2900000Y2725000
X1260000Y1890000
Y2080000
Y2280000
Y2480000
Y2690000
Y2890000
X1750000Y2740000
X1610000Y2890000
X1440000
X2800000Y2862500
X3260000Y2640000
X2800000Y3125000
X3275000Y3100000
X3537500Y2062500
X2775000Y1450000
X2790000Y1290000
X3200000Y1637500
X3050000
X3175000Y1400000
X3025000Y1062500
X3400000Y1325000
X3162500Y1062500
X3312500
Y825000
Y950000
X3175000
X3025000
X2190000Y850000
X2290000
X2390000
X2490000
X2590000
X2690000
X2790000
X2820000Y940000
X2290000Y1180000
X2390000
X2490000
X2580000
X2680000
X2790000
X2425000Y1037500
X2600000
X2430000Y940000
X2640000
X2812500Y1037500
X2537500Y937500
X2137500Y3750000
X100000Y5950000
Y5775000
Y5600000
Y5400000
Y5175000
Y4975000
Y4750000
Y4475000
Y4225000
Y3925000
Y3625000
Y3350000
Y3075000
Y2775000
Y2450000
Y2100000
Y1775000
Y1375000
Y1000000
X825000Y2300000
Y2575000
Y3050000
X350000Y5950000
X700000
X1675000
X1900000
Y5525000
Y5175000
Y4825000
X1675000Y5700000
Y5400000
X1700000Y4925000
X1250000Y5375000
Y5625000
Y5000000
X1712500Y4700000
X1462500Y5475000
X1600000Y4825000
X350000Y5675000
X700000
X925000Y4700000
X1375000
Y4025000
X1775000Y4375000
X1937500Y3512500
X1850000Y3412500
X1775000Y3912500
X1550000Y4275000
X1250000Y4300000
X1675000Y3387500
X2412500Y2862500
X1950000Y2725000
X2250000
X2562500
X2900000Y2587500
X2087500Y2725000
X1800000Y3125000
X1850000Y3275000
X1925000Y3687500
X1275000Y3562500
X1425000Y3225000
X1275000Y3375000
Y3050000
X2900000Y2862500
X3475000Y3212500
X3575000Y2675000
X3800000Y2900000
X3975000Y2650000
X4250000
X1600000Y825000
Y1000000
Y1200000
Y1400000
X1350000
Y1100000
Y825000
X1600000Y1600000
X1350000
X1600000Y1825000
X1350000Y1850000
Y2150000
X1600000Y2075000
Y2325000
X1350000Y2425000
X1600000Y2575000
X1350000Y2725000
X6700000Y5950000
X6100000
X5700000
X5200000
Y5575000
Y5125000
X5175000Y4825000
X6175000Y5525000
X5725000
X2125000Y1762500
Y1862500
X3425000Y2275000
X3625000
X3775000
X6150000Y1800000
Y2825000
X5325000Y4475000
X4900000Y3625000
X5400000Y3550000
X6150000Y4550000
X5325000Y5775000
X6750000Y5750000
X4975000Y2650000
X5425000Y2825000
X5625000Y2575000
X5175000Y2550000
X3775000Y2025000
Y1800000
Y1500000
Y1225000
Y900000
X3600000Y750000
Y1075000
Y1350000
Y1650000
Y1925000
X3475000Y1225000
X3512500Y887500
X3475000Y1500000
Y1800000
X2567550Y1676660
X2087500Y2562500
X2250000
X2412500
X2562500
X2687500
X2800000
X2087500Y2400000
X2250000
X2087500Y2237500
X2250000
X2412500Y2400000
Y2225000
X2550000
X2675000Y2350000
X2775000Y2450000
X2612500
X2837500Y2237500
X3037500Y2425000
X3125000Y2737500
X2137500Y3337500
X3225000Y2975000
X3950000Y4125000
X4025000Y3787500
X2350000Y3850000
Y3637500
X2525000Y3725000
X3450000Y4362500
X2737500Y4487500
X4800000Y3900000
X5050000Y3625000
X4787500Y3787500
X5000000Y3912500
X4850000Y4125000
X2662500Y3712500
X4920000Y4020000
X4775000Y2800000
X6900000Y1025000
Y1400000
Y1750000
Y2075000
Y2400000
Y2750000
Y3125000
Y3550000
Y3925000
Y4350000
Y4800000
Y5175000
X6875000Y5575000
Y5950000
X6900000Y700000
T02
X4650000Y630000
X4350000
X4950000Y620000
Y330000
X4350000
X4025000Y625000
X5275000
Y350000
X4050000Y325000
X5575000Y425000
X3810000Y2470000
X3960000
X3262500Y2860000
X3137500Y2862500
X4025000Y1000000
Y1375000
Y1725000
Y2050000
X4400000
X4750000
X5125000
X4400000Y1725000
X4750000
X4400000Y1400000
Y1000000
X4750000
Y1400000
X5100000
Y1725000
Y1000000
X5550000Y1275000
Y850000
T03
X5278000Y3723400
Y3977400
X5024000Y3088400
Y3342400
X5532000Y3723400
Y3977400
X4770000Y3088400
Y3342400
X5532000
Y3088400
X5278000Y3342400
Y3088400
X3754000Y3342400
Y3088400
X4262000Y3342400
Y3088400
X5532000Y5120400
Y5374400
X4516000Y3342400
Y3088400
X4008000Y3342400
Y3088400
X5532000Y4485400
Y4739400
X2026800Y4282200
Y4028200
X2280800Y4282200
Y4028200
T04
X3125000Y2087500
X1087000Y2174000
Y1920000
Y1666000
Y1412000
Y1158000
Y904000
X5913000Y2682000
Y2428000
Y2174000
Y1920000
Y904000
Y1158000
Y1412000
Y1666000
X1087000Y2682000
Y2936000
Y3190000
Y3444000
Y4460000
Y4206000
Y3952000
Y3698000
X5913000Y5374400
Y5120400
Y4866400
Y4612400
Y4358400
Y4104400
Y3088400
Y3342400
Y3596400
Y3850400
X6421000Y904000
X6675000
Y1158000
X6421000
Y5476000
X6675000
X6421000Y5222000
X6675000
X6421000Y4968000
X6675000
X6421000Y4714000
X6675000
X6421000Y4460000
X6675000
X6421000Y4206000
X6675000
X6421000Y3952000
X6675000
X6421000Y3698000
X6675000
X6421000Y3444000
X6675000
X6421000Y3190000
X6675000
X6421000Y2936000
X6675000
X6421000Y2682000
X6675000
X6421000Y2428000
X6675000
X6421000Y2174000
X6675000
X6421000Y1920000
X6675000
X6421000Y1666000
X6675000
X6421000Y1412000
X6675000
X325000Y904000
X579000
Y1158000
X325000
Y5476000
X579000
X325000Y5222000
X579000
X325000Y4968000
X579000
X325000Y4714000
X579000
X325000Y4460000
X579000
X325000Y4206000
X579000
X325000Y3952000
X579000
X325000Y3698000
X579000
X325000Y3444000
X579000
X325000Y3190000
X579000
X325000Y2936000
X579000
X325000Y2682000
X579000
X325000Y2428000
X579000
X325000Y2174000
X579000
X325000Y1920000
X579000
X325000Y1666000
X579000
X325000Y1412000
X579000
M30
