G04 ================== begin FILE IDENTIFICATION RECORD ==================*
G04 Layout Name:  PC43BV04.brd*
G04 Film Name:    PC43BV04DRD*
G04 File Format:  Gerber RS274X*
G04 File Origin:  Cadence Allegro 16.6-2015-S103*
G04 Origin Date:  Fri Jul 27 10:07:34 2018*
G04 *
G04 Layer:  MANUFACTURING/NCLEGEND-1-4*
G04 Layer:  BOARD GEOMETRY/DIMENSION*
G04 Layer:  BOARD GEOMETRY/OUTLINE*
G04 *
G04 Offset:    (0.0000 0.0000)*
G04 Mirror:    No*
G04 Mode:      Positive*
G04 Rotation:  0*
G04 FullContactRelief:  No*
G04 UndefLineWidth:     0.1000*
G04 ================== end FILE IDENTIFICATION RECORD ====================*
%FSLAX25Y25*MOMM*%
%IR0*IPPOS*OFA0.00000B0.00000*MIA0B0*SFA1.00000B1.00000*%
%AMMACRO13*
1,1,.1,.25,0.0*
20,1,.1,.25,0.0,-.25,0.0,0.0*
1,1,.1,-.25,0.0*
1,1,.1,0.0,.25*
20,1,.1,0.0,.25,0.0,-.25,0.0*
1,1,.1,0.0,-.25*
%
%ADD13MACRO13*%
%AMMACRO12*
1,1,.1,.35,0.0*
20,1,.1,.35,0.0,.344683,-.060777,0.0*
1,1,.1,.344683,-.060777*
20,1,.1,.344683,-.060777,.328892,-.119707,0.0*
1,1,.1,.328892,-.119707*
20,1,.1,.328892,-.119707,.303109,-.175,0.0*
1,1,.1,.303109,-.175*
20,1,.1,.303109,-.175,.268116,-.224976,0.0*
1,1,.1,.268116,-.224976*
20,1,.1,.268116,-.224976,.224976,-.268116,0.0*
1,1,.1,.224976,-.268116*
20,1,.1,.224976,-.268116,.175,-.303109,0.0*
1,1,.1,.175,-.303109*
20,1,.1,.175,-.303109,.119707,-.328892,0.0*
1,1,.1,.119707,-.328892*
20,1,.1,.119707,-.328892,.060777,-.344683,0.0*
1,1,.1,.060777,-.344683*
20,1,.1,.060777,-.344683,0.0,-.35,0.0*
1,1,.1,0.0,-.35*
20,1,.1,0.0,-.35,-.060777,-.344683,0.0*
1,1,.1,-.060777,-.344683*
20,1,.1,-.060777,-.344683,-.119707,-.328892,0.0*
1,1,.1,-.119707,-.328892*
20,1,.1,-.119707,-.328892,-.175,-.303109,0.0*
1,1,.1,-.175,-.303109*
20,1,.1,-.175,-.303109,-.224976,-.268116,0.0*
1,1,.1,-.224976,-.268116*
20,1,.1,-.224976,-.268116,-.268116,-.224976,0.0*
1,1,.1,-.268116,-.224976*
20,1,.1,-.268116,-.224976,-.303109,-.175,0.0*
1,1,.1,-.303109,-.175*
20,1,.1,-.303109,-.175,-.328892,-.119707,0.0*
1,1,.1,-.328892,-.119707*
20,1,.1,-.328892,-.119707,-.344683,-.060777,0.0*
1,1,.1,-.344683,-.060777*
20,1,.1,-.344683,-.060777,-.35,0.0,0.0*
1,1,.1,-.35,0.0*
20,1,.1,-.35,0.0,-.344683,.060777,0.0*
1,1,.1,-.344683,.060777*
20,1,.1,-.344683,.060777,-.328892,.119707,0.0*
1,1,.1,-.328892,.119707*
20,1,.1,-.328892,.119707,-.303109,.175,0.0*
1,1,.1,-.303109,.175*
20,1,.1,-.303109,.175,-.268116,.224976,0.0*
1,1,.1,-.268116,.224976*
20,1,.1,-.268116,.224976,-.224976,.268116,0.0*
1,1,.1,-.224976,.268116*
20,1,.1,-.224976,.268116,-.175,.303109,0.0*
1,1,.1,-.175,.303109*
20,1,.1,-.175,.303109,-.119707,.328892,0.0*
1,1,.1,-.119707,.328892*
20,1,.1,-.119707,.328892,-.060777,.344683,0.0*
1,1,.1,-.060777,.344683*
20,1,.1,-.060777,.344683,0.0,.35,0.0*
1,1,.1,0.0,.35*
20,1,.1,0.0,.35,.060777,.344683,0.0*
1,1,.1,.060777,.344683*
20,1,.1,.060777,.344683,.119707,.328892,0.0*
1,1,.1,.119707,.328892*
20,1,.1,.119707,.328892,.175,.303109,0.0*
1,1,.1,.175,.303109*
20,1,.1,.175,.303109,.224976,.268116,0.0*
1,1,.1,.224976,.268116*
20,1,.1,.224976,.268116,.268116,.224976,0.0*
1,1,.1,.268116,.224976*
20,1,.1,.268116,.224976,.303109,.175,0.0*
1,1,.1,.303109,.175*
20,1,.1,.303109,.175,.328892,.119707,0.0*
1,1,.1,.328892,.119707*
20,1,.1,.328892,.119707,.344683,.060777,0.0*
1,1,.1,.344683,.060777*
20,1,.1,.344683,.060777,.35,0.0,0.0*
1,1,.1,.35,0.0*
%
%ADD12MACRO12*%
%AMMACRO11*
1,1,.1,0.0,.45*
20,1,.1,0.0,.45,.45,-.45,0.0*
1,1,.1,.45,-.45*
20,1,.1,.45,-.45,-.45,-.45,0.0*
1,1,.1,-.45,-.45*
20,1,.1,-.45,-.45,0.0,.45,0.0*
1,1,.1,0.0,.45*
%
%ADD11MACRO11*%
%AMMACRO10*
1,1,.1,.5,0.0*
20,1,.1,.5,0.0,0.0,-.5,0.0*
1,1,.1,0.0,-.5*
20,1,.1,0.0,-.5,-.5,0.0,0.0*
1,1,.1,-.5,0.0*
20,1,.1,-.5,0.0,0.0,.5,0.0*
1,1,.1,0.0,.5*
20,1,.1,0.0,.5,.5,0.0,0.0*
1,1,.1,.5,0.0*
%
%ADD10MACRO10*%
%ADD14C,.15*%
%ADD15C,.1*%
G75*
%LPD*%
G75*
G54D10*
X-1768000Y10242000D03*
X325000Y1158000D03*
Y904000D03*
Y1412000D03*
Y1666000D03*
Y1920000D03*
Y2174000D03*
Y2428000D03*
Y2682000D03*
Y2936000D03*
Y3190000D03*
Y3444000D03*
Y3698000D03*
Y3952000D03*
Y4206000D03*
Y4460000D03*
Y4714000D03*
Y4968000D03*
Y5222000D03*
Y5476000D03*
X579000Y1158000D03*
Y904000D03*
Y1412000D03*
Y1666000D03*
Y1920000D03*
Y2174000D03*
Y2428000D03*
Y2682000D03*
Y2936000D03*
Y3190000D03*
Y3444000D03*
Y3698000D03*
Y3952000D03*
Y4206000D03*
Y4460000D03*
Y4714000D03*
Y4968000D03*
Y5222000D03*
Y5476000D03*
X1087000Y904000D03*
Y1158000D03*
Y1412000D03*
Y1666000D03*
Y1920000D03*
Y2174000D03*
Y2682000D03*
Y3190000D03*
Y2936000D03*
Y3698000D03*
Y3444000D03*
Y3952000D03*
Y4206000D03*
Y4460000D03*
X3125000Y2087500D03*
X5913000Y1158000D03*
Y904000D03*
Y1666000D03*
Y1412000D03*
Y1920000D03*
Y2174000D03*
Y2428000D03*
Y2682000D03*
Y3342400D03*
Y3088400D03*
Y3850400D03*
Y3596400D03*
Y4104400D03*
Y4358400D03*
Y4612400D03*
Y4866400D03*
Y5120400D03*
Y5374400D03*
X6421000Y1158000D03*
X6675000D03*
Y904000D03*
X6421000D03*
X6675000Y1412000D03*
X6421000D03*
X6675000Y1666000D03*
X6421000D03*
X6675000Y1920000D03*
X6421000D03*
X6675000Y2174000D03*
X6421000D03*
X6675000Y2428000D03*
X6421000D03*
X6675000Y2682000D03*
X6421000D03*
X6675000Y2936000D03*
X6421000D03*
X6675000Y3190000D03*
X6421000D03*
X6675000Y3444000D03*
X6421000D03*
X6675000Y3698000D03*
X6421000D03*
X6675000Y3952000D03*
X6421000D03*
X6675000Y4206000D03*
X6421000D03*
X6675000Y4460000D03*
X6421000D03*
X6675000Y4714000D03*
X6421000D03*
X6675000Y4968000D03*
X6421000D03*
X6675000Y5222000D03*
X6421000D03*
X6675000Y5476000D03*
X6421000D03*
G54D11*
X-1768000Y10878000D03*
X2026800Y4028200D03*
Y4282200D03*
X2280800Y4028200D03*
Y4282200D03*
X4008000Y3088400D03*
Y3342400D03*
X3754000Y3088400D03*
Y3342400D03*
X4516000Y3088400D03*
Y3342400D03*
X4262000Y3088400D03*
Y3342400D03*
X4770000D03*
Y3088400D03*
X5024000Y3342400D03*
Y3088400D03*
X5278000D03*
Y3342400D03*
X5532000Y3088400D03*
Y3342400D03*
Y3723400D03*
X5278000D03*
X5532000Y3977400D03*
X5278000D03*
X5532000Y4739400D03*
Y4485400D03*
Y5374400D03*
Y5120400D03*
G54D12*
X-1768000Y11514000D03*
X3137500Y2862500D03*
X3262500Y2860000D03*
X4050000Y325000D03*
X4025000Y625000D03*
Y1000000D03*
Y1375000D03*
Y2050000D03*
Y1725000D03*
X3960000Y2470000D03*
X3810000D03*
X4350000Y330000D03*
Y630000D03*
X4650000D03*
X4400000Y1000000D03*
Y1400000D03*
Y1725000D03*
Y2050000D03*
X4950000Y330000D03*
Y620000D03*
X5100000Y1000000D03*
X4750000D03*
X5100000Y1400000D03*
X4750000D03*
X5100000Y1725000D03*
X4750000D03*
X5125000Y2050000D03*
X4750000D03*
X5575000Y425000D03*
X5275000Y350000D03*
Y625000D03*
X5550000Y850000D03*
Y1275000D03*
G54D13*
X-1768000Y12150000D03*
X100000Y700000D03*
Y1000000D03*
Y1375000D03*
Y1775000D03*
Y2100000D03*
Y2450000D03*
Y2775000D03*
Y3075000D03*
Y3350000D03*
Y3625000D03*
Y3925000D03*
Y4225000D03*
Y4475000D03*
Y4750000D03*
Y4975000D03*
Y5175000D03*
Y5400000D03*
X350000Y5675000D03*
X100000Y5600000D03*
Y5775000D03*
X350000Y5950000D03*
X100000D03*
X850000Y700000D03*
X450000D03*
X825000Y2575000D03*
Y2300000D03*
Y3050000D03*
X925000Y4700000D03*
X700000Y5675000D03*
Y5950000D03*
X1260000Y90000D03*
X1370000D03*
X1260000Y490000D03*
Y290000D03*
X1400000Y675000D03*
X1350000Y825000D03*
Y1100000D03*
X1260000Y890000D03*
Y690000D03*
Y1090000D03*
X1350000Y1600000D03*
Y1400000D03*
X1260000Y1290000D03*
Y1690000D03*
Y1490000D03*
X1350000Y2150000D03*
Y1850000D03*
X1260000Y2080000D03*
Y1890000D03*
X1350000Y2725000D03*
Y2425000D03*
X1260000Y2690000D03*
Y2480000D03*
Y2280000D03*
X1275000Y3050000D03*
X1425000Y3225000D03*
X1440000Y2890000D03*
X1260000D03*
X1275000Y3375000D03*
Y3562500D03*
X1250000Y4300000D03*
X1375000Y4025000D03*
Y4700000D03*
X1270000Y4855000D03*
X1250000Y5000000D03*
Y5375000D03*
Y5625000D03*
X1120000Y5563000D03*
X1890000Y90000D03*
X1470000D03*
X1670000Y590000D03*
X1890000Y190000D03*
Y290000D03*
Y390000D03*
Y490000D03*
X1910000Y590000D03*
X1790000D03*
X1570000D03*
X1470000D03*
Y490000D03*
Y390000D03*
Y290000D03*
Y190000D03*
X1600000Y675000D03*
Y1000000D03*
Y825000D03*
X1930000Y1090000D03*
Y990000D03*
X1910000Y675000D03*
X1750000Y990000D03*
Y890000D03*
X1760000Y770000D03*
X1820000Y700000D03*
X1750000Y1090000D03*
X1600000Y1600000D03*
Y1400000D03*
Y1200000D03*
X1930000Y1490000D03*
Y1390000D03*
X1750000Y1690000D03*
Y1590000D03*
Y1490000D03*
Y1390000D03*
X1930000Y1690000D03*
Y1590000D03*
Y1290000D03*
Y1190000D03*
X1750000D03*
Y1290000D03*
X1600000Y2075000D03*
Y1825000D03*
X1750000Y2090000D03*
Y1990000D03*
Y1890000D03*
Y1790000D03*
X1930000D03*
X1750000Y2190000D03*
X1600000Y2575000D03*
Y2325000D03*
X1950000Y2725000D03*
X1750000Y2740000D03*
Y2640000D03*
Y2390000D03*
Y2290000D03*
Y2490000D03*
X1925000Y2237500D03*
X1950000Y2562500D03*
Y2400000D03*
X1850000Y3275000D03*
X1800000Y3125000D03*
X1610000Y2890000D03*
X1950000Y2862500D03*
X1937500Y3150000D03*
X1925000Y3687500D03*
X1675000Y3387500D03*
X1850000Y3412500D03*
X1937500Y3512500D03*
X1550000Y4275000D03*
X1775000Y3912500D03*
Y4375000D03*
X1600000Y4825000D03*
X1712500Y4700000D03*
X1900000Y4825000D03*
X1700000Y4925000D03*
X1675000Y5400000D03*
X1900000Y5175000D03*
X1462500Y5475000D03*
X1675000Y5700000D03*
X1900000Y5525000D03*
Y5950000D03*
X1675000D03*
X2310000Y90000D03*
X2440000Y590000D03*
X2340000D03*
X2310000Y190000D03*
Y290000D03*
Y390000D03*
Y490000D03*
X2020000Y590000D03*
X2490000Y670000D03*
X2430000Y940000D03*
X2425000Y1037500D03*
X2490000Y850000D03*
X2390000D03*
X2290000D03*
X2190000D03*
X2009840Y990000D03*
X2010000Y1090000D03*
X2250000Y630000D03*
X2190000Y940000D03*
X2290000D03*
Y1040000D03*
X2020000Y675000D03*
X2490000Y1180000D03*
X2390000D03*
X2290000D03*
X2450000Y1360000D03*
X2300000D03*
X2010000Y1290000D03*
Y1190000D03*
X2230000Y1415000D03*
X2190000Y1280000D03*
Y1180000D03*
X2170000Y1580000D03*
Y1680000D03*
X2125000Y1862500D03*
Y1762500D03*
X2300000Y1725000D03*
X2112500Y1950000D03*
X2252500D03*
X2412500Y2225000D03*
Y2400000D03*
X2250000Y2237500D03*
X2087500D03*
X2250000Y2400000D03*
X2087500D03*
X2412500Y2562500D03*
X2250000D03*
X2087500D03*
Y2725000D03*
X2250000D03*
X2412500D03*
Y2862500D03*
X2250000D03*
X2087500D03*
X2500000Y3142500D03*
X2350000Y3637500D03*
X2137500Y3337500D03*
Y3750000D03*
X2350000Y3850000D03*
X2487500Y4312500D03*
X2500000Y4700000D03*
X2250000D03*
X2000000D03*
X2940000Y90000D03*
X2740000D03*
X3000000Y437500D03*
X2900000Y387500D03*
Y225000D03*
Y537500D03*
X2740000Y190000D03*
Y290000D03*
Y390000D03*
Y490000D03*
Y590000D03*
X2640000D03*
X2540000D03*
X3037500Y662500D03*
X2900000D03*
X2790000Y670000D03*
X2690000D03*
X2590000D03*
X2537500Y937500D03*
X2812500Y1037500D03*
X2640000Y940000D03*
X2600000Y1037500D03*
X2820000Y940000D03*
X2790000Y850000D03*
X2690000D03*
X2590000D03*
X3025000Y950000D03*
Y1062500D03*
X2567550Y1676660D03*
X2790000Y1180000D03*
X2680000D03*
X2580000D03*
X3050000Y1637500D03*
X2790000Y1290000D03*
X2775000Y1450000D03*
X2850000Y1675000D03*
Y1550000D03*
X2680000Y1452500D03*
X2790000Y1940000D03*
X2575000Y1950000D03*
X3037500Y2425000D03*
X2837500Y2237500D03*
X2612500Y2450000D03*
X2775000D03*
X2675000Y2350000D03*
X2550000Y2225000D03*
X2800000Y2562500D03*
X2687500D03*
X2562500D03*
X2900000Y2587500D03*
X2562500Y2725000D03*
X2900000D03*
X2687500D03*
X2940000Y2280000D03*
X2800000Y2725000D03*
X2537500Y2337500D03*
X2900000Y2862500D03*
X2800000Y3125000D03*
Y2862500D03*
X2687500D03*
X2562500D03*
X2662500Y3712500D03*
X2525000Y3725000D03*
X2987500Y3437500D03*
X2950000Y3512500D03*
X2587500Y3537500D03*
X2675000Y3387500D03*
X2700000Y3312500D03*
X2762500Y3887500D03*
X2687500Y3987500D03*
X2875000Y3825000D03*
X2700000Y4250000D03*
X2937500Y4087500D03*
Y3975000D03*
X2737500Y4487500D03*
X3050000Y4700000D03*
X2787500D03*
X2772500Y4400000D03*
X2937500Y4462500D03*
X3540000Y90000D03*
X3340000D03*
X3140000D03*
X3325000Y437500D03*
X3337500Y225000D03*
X3200000Y587500D03*
X3525000Y437500D03*
X3125000Y225000D03*
X3575000D03*
X3312500Y675000D03*
X3512500Y887500D03*
X3187500Y675000D03*
X3175000Y950000D03*
X3312500D03*
Y825000D03*
Y1062500D03*
X3162500D03*
X3475000Y1500000D03*
Y1225000D03*
X3400000Y1325000D03*
X3175000Y1400000D03*
X3200000Y1637500D03*
X3162500Y1525000D03*
X3475000Y1800000D03*
X3537500Y2062500D03*
X3280000Y2070000D03*
X3200000Y1925000D03*
X3125000Y2737500D03*
X3425000Y2275000D03*
X3575000Y2675000D03*
X3260000Y2640000D03*
X3280000Y2280000D03*
X3100000D03*
X3125000Y2562500D03*
X3225000Y2975000D03*
X3475000Y3212500D03*
X3275000Y3100000D03*
X3175000Y3775000D03*
X3437500Y3462500D03*
X3162500Y3525000D03*
X3537500Y3312500D03*
X3287500Y4287500D03*
X3437500Y3862500D03*
X3250000Y3950000D03*
X3167500Y4275000D03*
X3450000Y4362500D03*
X3162500Y4450000D03*
X3387500Y4412500D03*
X3575000Y4700000D03*
X3300000D03*
X3940000Y90000D03*
X3740000D03*
X3775000Y575000D03*
X3750000Y250000D03*
X3600000Y1075000D03*
Y750000D03*
X3775000Y900000D03*
X3600000Y1650000D03*
Y1350000D03*
X3775000Y1225000D03*
Y1500000D03*
X3600000Y1925000D03*
X3775000Y1800000D03*
Y2025000D03*
Y2275000D03*
X3625000D03*
X3975000Y2650000D03*
X3800000Y2900000D03*
X4025000Y3787500D03*
X4087500Y3475000D03*
X3687500Y3462500D03*
X3887500Y3662500D03*
X3950000Y4125000D03*
X3775000Y4137500D03*
X3860000Y3865000D03*
X3650000Y4400000D03*
X4025000Y4700000D03*
X3862500D03*
X4540000Y90000D03*
X4340000D03*
X4140000D03*
X4250000Y2650000D03*
X4260000Y2800000D03*
X4425000Y3475000D03*
X4400000Y3662500D03*
X4175000Y4325000D03*
X4425000Y4312500D03*
X4255000Y3865000D03*
X4625000D03*
X4425000Y4400000D03*
X4500000Y4700000D03*
X4250000D03*
X5140000Y90000D03*
X4940000D03*
X4740000D03*
X4975000Y2650000D03*
X4775000Y2800000D03*
X4787500Y3787500D03*
X5050000Y3625000D03*
X4900000D03*
X4920000Y4020000D03*
X4850000Y4125000D03*
X5000000Y3912500D03*
X4800000Y3900000D03*
X5000000Y4400000D03*
Y4700000D03*
X4750000D03*
X5540000Y90000D03*
X5340000D03*
X5175000Y2550000D03*
X5625000Y2575000D03*
X5425000Y2825000D03*
X5400000Y3550000D03*
X5325000Y4475000D03*
X5175000Y4825000D03*
X5200000Y5125000D03*
X5325000Y5775000D03*
X5200000Y5575000D03*
Y5950000D03*
X5700000D03*
X5740000Y90000D03*
X5810000Y490000D03*
Y290000D03*
X6025000Y700000D03*
X6150000Y1800000D03*
Y2825000D03*
Y4550000D03*
X5725000Y5525000D03*
X6175000D03*
X6100000Y5950000D03*
X6575000Y700000D03*
X6325000D03*
X6750000Y5750000D03*
X6700000Y5950000D03*
X6900000Y1025000D03*
Y700000D03*
Y1400000D03*
Y2075000D03*
Y1750000D03*
Y2750000D03*
Y2400000D03*
Y3125000D03*
Y3550000D03*
Y3925000D03*
Y4800000D03*
Y4350000D03*
Y5175000D03*
X6875000Y5575000D03*
Y5950000D03*
G54D14*
G01X7716670Y6000000D02*
Y6160000D01*
X7756670D01*
X7770000Y6152000D01*
X7780000Y6133330D01*
X7783330Y6112000D01*
X7780000Y6090670D01*
X7771670Y6074670D01*
X7756670Y6066660D01*
X7716670D01*
G01X7901670Y6146660D02*
X7891670Y6154670D01*
X7880000Y6160000D01*
X7866670D01*
X7851660Y6152000D01*
X7840000Y6138670D01*
X7831670Y6122660D01*
X7825000Y6096000D01*
X7823330Y6072000D01*
X7826670Y6048000D01*
X7831670Y6032000D01*
X7841670Y6016000D01*
X7853330Y6005330D01*
X7865000Y6000000D01*
X7876670D01*
X7888330Y6005330D01*
X7898330Y6013330D01*
X7906670Y6023990D01*
G01X8000000Y6000000D02*
Y6160000D01*
X7938330Y6045330D01*
X8021670D01*
G01X8058330Y6032000D02*
X8068330Y6013330D01*
X8081660Y6002670D01*
X8096670Y6000000D01*
X8110000Y6002670D01*
X8123330Y6016000D01*
X8131670Y6032000D01*
X8133330Y6048000D01*
X8130000Y6066660D01*
X8118330Y6080000D01*
X8106670Y6085330D01*
X8091670D01*
G01X8106670D02*
X8116670Y6093330D01*
X8125000Y6106660D01*
X8128330Y6122660D01*
X8125000Y6138670D01*
X8116670Y6152000D01*
X8101670Y6160000D01*
X8086670Y6157330D01*
X8071670Y6146660D01*
G01X8223330Y6085330D02*
X8230000Y6093330D01*
X8235000Y6106660D01*
X8238330Y6125340D01*
X8235000Y6141330D01*
X8228330Y6152000D01*
X8216670Y6160000D01*
X8171670D01*
Y6000000D01*
X8226670D01*
X8238330Y6010660D01*
X8245000Y6026670D01*
X8248330Y6045330D01*
X8245000Y6064000D01*
X8235000Y6080000D01*
X8223330Y6085330D01*
X8171670D01*
G01X8283330Y6160000D02*
X8325000Y6000000D01*
X8366670Y6160000D01*
G01X8440000D02*
X8426660Y6154670D01*
X8416670Y6141330D01*
X8410000Y6125340D01*
X8405000Y6104000D01*
X8403330Y6080000D01*
X8405000Y6056000D01*
X8410000Y6034660D01*
X8416670Y6018660D01*
X8426660Y6005330D01*
X8440000Y6000000D01*
X8453330Y6005330D01*
X8463330Y6018660D01*
X8470000Y6034660D01*
X8475000Y6056000D01*
X8476670Y6080000D01*
X8475000Y6104000D01*
X8470000Y6125340D01*
X8463330Y6141330D01*
X8453330Y6154670D01*
X8440000Y6160000D01*
G01X8575000Y6000000D02*
Y6160000D01*
X8513330Y6045330D01*
X8596670D01*
G01X8620000Y5946670D02*
X8720000D01*
G01X8748330Y6000000D02*
Y6160000D01*
X8781670D01*
X8795000Y6152000D01*
X8805000Y6141330D01*
X8813330Y6125340D01*
X8820000Y6106660D01*
X8821670Y6080000D01*
X8820000Y6053330D01*
X8813330Y6034660D01*
X8805000Y6018660D01*
X8795000Y6008000D01*
X8781670Y6000000D01*
X8748330D01*
G01X8866670D02*
Y6160000D01*
X8908330D01*
X8921670Y6152000D01*
X8930000Y6141330D01*
X8933330Y6120000D01*
X8930000Y6098670D01*
X8920000Y6085330D01*
X8908330Y6077330D01*
X8866670D01*
G01X8908330D02*
X8933330Y6000000D01*
G01X8978330D02*
Y6160000D01*
X9011670D01*
X9025000Y6152000D01*
X9035000Y6141330D01*
X9043330Y6125340D01*
X9050000Y6106660D01*
X9051670Y6080000D01*
X9050000Y6053330D01*
X9043330Y6034660D01*
X9035000Y6018660D01*
X9025000Y6008000D01*
X9011670Y6000000D01*
X8978330D01*
G01X9323330D02*
Y6160000D01*
X9356670D01*
X9370000Y6152000D01*
X9380000Y6141330D01*
X9388330Y6125340D01*
X9395000Y6106660D01*
X9396670Y6080000D01*
X9395000Y6053330D01*
X9388330Y6034660D01*
X9380000Y6018660D01*
X9370000Y6008000D01*
X9356670Y6000000D01*
X9323330D01*
G01X9441670D02*
Y6160000D01*
X9483330D01*
X9496670Y6152000D01*
X9505000Y6141330D01*
X9508330Y6120000D01*
X9505000Y6098670D01*
X9495000Y6085330D01*
X9483330Y6077330D01*
X9441670D01*
G01X9483330D02*
X9508330Y6000000D01*
G01X9570000Y6160000D02*
X9610000D01*
G01X9590000D02*
Y6000000D01*
G01X9570000D02*
X9610000D01*
G01X9671670Y6160000D02*
Y6000000D01*
X9738330D01*
G01X9786670Y6160000D02*
Y6000000D01*
X9853330D01*
G01X10100000Y5946670D02*
X10016670Y6106660D01*
Y6133330D01*
X10033330Y6160000D01*
X10050000D01*
X10066670Y6133330D01*
Y6106660D01*
X10050000Y6080000D01*
X10016670Y6053330D01*
X10000000Y6026670D01*
Y5973330D01*
X10016670Y5946670D01*
X10066670D01*
X10100000Y6000000D01*
G01X10243330D02*
Y6160000D01*
X10276670D01*
X10290000Y6152000D01*
X10300000Y6141330D01*
X10308330Y6125340D01*
X10315000Y6106660D01*
X10316670Y6080000D01*
X10315000Y6053330D01*
X10308330Y6034660D01*
X10300000Y6018660D01*
X10290000Y6008000D01*
X10276670Y6000000D01*
X10243330D01*
G01X10375000Y6160000D02*
X10415000D01*
G01X10395000D02*
Y6000000D01*
G01X10375000D02*
X10415000D01*
G01X10466670D02*
Y6160000D01*
X10510000Y6026670D01*
X10553330Y6160000D01*
Y6000000D01*
G01X10658330D02*
X10591670D01*
Y6160000D01*
X10658330D01*
G01X10631670Y6082670D02*
X10591670D01*
G01X10701670Y6000000D02*
Y6160000D01*
X10778330Y6000000D01*
Y6160000D01*
G01X10820000Y6021330D02*
X10833330Y6008000D01*
X10848330Y6000000D01*
X10861670D01*
X10875000Y6008000D01*
X10885000Y6021330D01*
X10890000Y6040000D01*
X10886670Y6058660D01*
X10878330Y6074670D01*
X10863330Y6085330D01*
X10843330Y6090670D01*
X10831670Y6101330D01*
X10826670Y6120000D01*
X10830000Y6138670D01*
X10838330Y6152000D01*
X10850000Y6160000D01*
X10861670D01*
X10873330Y6154670D01*
X10883330Y6141330D01*
G01X10950000Y6160000D02*
X10990000D01*
G01X10970000D02*
Y6000000D01*
G01X10950000D02*
X10990000D01*
G01X11085000D02*
X11071660Y6002670D01*
X11060000Y6013330D01*
X11050000Y6029330D01*
X11043330Y6048000D01*
X11040000Y6069330D01*
Y6090670D01*
X11043330Y6112000D01*
X11050000Y6130670D01*
X11060000Y6146660D01*
X11071660Y6157330D01*
X11085000Y6160000D01*
X11098330Y6157330D01*
X11110000Y6146660D01*
X11120000Y6130670D01*
X11126670Y6112000D01*
X11130000Y6090670D01*
Y6069330D01*
X11126670Y6048000D01*
X11120000Y6029330D01*
X11110000Y6013330D01*
X11098330Y6002670D01*
X11085000Y6000000D01*
G01X11161670D02*
Y6160000D01*
X11238330Y6000000D01*
Y6160000D01*
G01X11280000Y6021330D02*
X11293330Y6008000D01*
X11308330Y6000000D01*
X11321670D01*
X11335000Y6008000D01*
X11345000Y6021330D01*
X11350000Y6040000D01*
X11346670Y6058660D01*
X11338330Y6074670D01*
X11323330Y6085330D01*
X11303330Y6090670D01*
X11291670Y6101330D01*
X11286670Y6120000D01*
X11290000Y6138670D01*
X11298330Y6152000D01*
X11310000Y6160000D01*
X11321670D01*
X11333330Y6154670D01*
X11343330Y6141330D01*
G01X7705830Y6783330D02*
X7715830Y6799330D01*
X7727500Y6807330D01*
X7740830Y6810000D01*
X7757500Y6804670D01*
X7769170Y6791330D01*
X7772500Y6775340D01*
X7770830Y6759330D01*
X7764170Y6746000D01*
X7730830Y6719330D01*
X7715830Y6700670D01*
X7705830Y6673990D01*
X7702500Y6650000D01*
X7772500D01*
G01X7849170D02*
X7852500Y6684660D01*
X7857500Y6714000D01*
X7864170Y6740670D01*
X7872500Y6770000D01*
X7885830Y6810000D01*
X7819170D01*
G01X7945830Y6703330D02*
X7989170D01*
G01X8082500Y6810000D02*
X8069160Y6804670D01*
X8059170Y6791330D01*
X8052500Y6775340D01*
X8047500Y6754000D01*
X8045830Y6730000D01*
X8047500Y6706000D01*
X8052500Y6684660D01*
X8059170Y6668660D01*
X8069160Y6655330D01*
X8082500Y6650000D01*
X8095830Y6655330D01*
X8105830Y6668660D01*
X8112500Y6684660D01*
X8117500Y6706000D01*
X8119170Y6730000D01*
X8117500Y6754000D01*
X8112500Y6775340D01*
X8105830Y6791330D01*
X8095830Y6804670D01*
X8082500Y6810000D01*
G01X8194170Y6650000D02*
X8197500Y6684660D01*
X8202500Y6714000D01*
X8209170Y6740670D01*
X8217500Y6770000D01*
X8230830Y6810000D01*
X8164170D01*
G01X8290830Y6703330D02*
X8334170D01*
G01X8395830Y6783330D02*
X8405830Y6799330D01*
X8417500Y6807330D01*
X8430830Y6810000D01*
X8447500Y6804670D01*
X8459170Y6791330D01*
X8462500Y6775340D01*
X8460830Y6759330D01*
X8454170Y6746000D01*
X8420830Y6719330D01*
X8405830Y6700670D01*
X8395830Y6673990D01*
X8392500Y6650000D01*
X8462500D01*
G01X8542500Y6810000D02*
X8529160Y6804670D01*
X8519170Y6791330D01*
X8512500Y6775340D01*
X8507500Y6754000D01*
X8505830Y6730000D01*
X8507500Y6706000D01*
X8512500Y6684660D01*
X8519170Y6668660D01*
X8529160Y6655330D01*
X8542500Y6650000D01*
X8555830Y6655330D01*
X8565830Y6668660D01*
X8572500Y6684660D01*
X8577500Y6706000D01*
X8579170Y6730000D01*
X8577500Y6754000D01*
X8572500Y6775340D01*
X8565830Y6791330D01*
X8555830Y6804670D01*
X8542500Y6810000D01*
G01X8657500Y6650000D02*
Y6810000D01*
X8637500Y6778000D01*
G01Y6650000D02*
X8677500D01*
G01X8772500D02*
X8784170Y6652670D01*
X8797500Y6660660D01*
X8805830Y6673990D01*
X8809170Y6692670D01*
X8805830Y6711330D01*
X8795830Y6727330D01*
X8780830Y6735330D01*
X8764170D01*
X8754170Y6740670D01*
X8745830Y6754000D01*
X8742500Y6772660D01*
X8747500Y6791330D01*
X8759160Y6804670D01*
X8772500Y6810000D01*
X8785830Y6804670D01*
X8797500Y6791330D01*
X8802500Y6772660D01*
X8799170Y6754000D01*
X8790830Y6740670D01*
X8780830Y6735330D01*
X8764170D01*
X8749170Y6727330D01*
X8739170Y6711330D01*
X8735830Y6692670D01*
X8739170Y6673990D01*
X8747500Y6660660D01*
X8760830Y6652670D01*
X8772500Y6650000D01*
G01X9082500D02*
X9152500Y6810000D01*
G01X9082500D02*
X9152500Y6650000D01*
G01X9210830Y6703330D02*
X9254170D01*
G01X9309170Y6650000D02*
Y6810000D01*
X9385830Y6650000D01*
Y6810000D01*
G01X9425830D02*
Y6695330D01*
X9432500Y6671330D01*
X9445830Y6655330D01*
X9462500Y6650000D01*
X9479170Y6655330D01*
X9492500Y6671330D01*
X9499170Y6695330D01*
Y6810000D01*
G01X9614170Y6796660D02*
X9604170Y6804670D01*
X9592500Y6810000D01*
X9579170D01*
X9564160Y6802000D01*
X9552500Y6788670D01*
X9544170Y6772660D01*
X9537500Y6746000D01*
X9535830Y6722000D01*
X9539170Y6698000D01*
X9544170Y6682000D01*
X9554170Y6666000D01*
X9565830Y6655330D01*
X9577500Y6650000D01*
X9589170D01*
X9600830Y6655330D01*
X9610830Y6663330D01*
X9619170Y6673990D01*
G01X9659170Y6810000D02*
Y6650000D01*
X9725830D01*
G01X9840830D02*
X9774170D01*
Y6810000D01*
X9840830D01*
G01X9814170Y6732670D02*
X9774170D01*
G01X9922500Y6650000D02*
X9909160Y6652670D01*
X9897500Y6663330D01*
X9887500Y6679330D01*
X9880830Y6698000D01*
X9877500Y6719330D01*
Y6740670D01*
X9880830Y6762000D01*
X9887500Y6780670D01*
X9897500Y6796660D01*
X9909160Y6807330D01*
X9922500Y6810000D01*
X9935830Y6807330D01*
X9947500Y6796660D01*
X9957500Y6780670D01*
X9964170Y6762000D01*
X9967500Y6740670D01*
Y6719330D01*
X9964170Y6698000D01*
X9957500Y6679330D01*
X9947500Y6663330D01*
X9935830Y6652670D01*
X9922500Y6650000D01*
G01X10015830Y6703330D02*
X10059170D01*
G01X10162500Y6730000D02*
X10195830D01*
Y6682000D01*
X10185830Y6666000D01*
X10174170Y6655330D01*
X10157500Y6650000D01*
X10140830Y6655330D01*
X10129170Y6666000D01*
X10119170Y6682000D01*
X10112500Y6700670D01*
X10109170Y6722000D01*
Y6740670D01*
X10112500Y6756660D01*
X10119170Y6775340D01*
X10129170Y6791330D01*
X10139160Y6802000D01*
X10152500Y6810000D01*
X10164170D01*
X10177500Y6804670D01*
X10187500Y6794000D01*
G01X10229170Y6650000D02*
Y6810000D01*
X10305830Y6650000D01*
Y6810000D01*
G01X10347500Y6671330D02*
X10360830Y6658000D01*
X10375830Y6650000D01*
X10389170D01*
X10402500Y6658000D01*
X10412500Y6671330D01*
X10417500Y6690000D01*
X10414170Y6708660D01*
X10405830Y6724670D01*
X10390830Y6735330D01*
X10370830Y6740670D01*
X10359170Y6751330D01*
X10354170Y6770000D01*
X10357500Y6788670D01*
X10365830Y6802000D01*
X10377500Y6810000D01*
X10389170D01*
X10400830Y6804670D01*
X10410830Y6791330D01*
G01X10462500Y6671330D02*
X10475830Y6658000D01*
X10490830Y6650000D01*
X10504170D01*
X10517500Y6658000D01*
X10527500Y6671330D01*
X10532500Y6690000D01*
X10529170Y6708660D01*
X10520830Y6724670D01*
X10505830Y6735330D01*
X10485830Y6740670D01*
X10474170Y6751330D01*
X10469170Y6770000D01*
X10472500Y6788670D01*
X10480830Y6802000D01*
X10492500Y6810000D01*
X10504170D01*
X10515830Y6804670D01*
X10525830Y6791330D01*
G01X10612500Y6650000D02*
Y6810000D01*
X10592500Y6778000D01*
G01Y6650000D02*
X10632500D01*
G01X10685830D02*
X10727500Y6810000D01*
X10769170Y6650000D01*
G01X10754170Y6706000D02*
X10700830D01*
G01X10842500Y6650000D02*
Y6810000D01*
X10822500Y6778000D01*
G01Y6650000D02*
X10862500D01*
G54D15*
G01X-2910000Y9924000D02*
Y14390000D01*
X9376000D01*
Y9924000D01*
X-2910000D01*
G01Y10560000D02*
X9376000D01*
G01X-2910000Y11196000D02*
X9376000D01*
G01X-2910000Y11832000D02*
X9376000D01*
G01X-2910000Y12468000D02*
X9376000D01*
G01X-2910000Y13104000D02*
X9376000D01*
G01X-2910000Y13740000D02*
X9376000D01*
G01X-2630240Y12627000D02*
Y12945000D01*
X-2480760D01*
G01X-2535830Y12791300D02*
X-2630240D01*
G01X-2287700Y12945000D02*
X-2193310D01*
G01X-2240500D02*
Y12627000D01*
G01X-2287700D02*
X-2193310D01*
G01X-1901900Y12786000D02*
X-1823230D01*
Y12690600D01*
X-1846830Y12658790D01*
X-1874370Y12637600D01*
X-1913700Y12627000D01*
X-1953030Y12637600D01*
X-1980570Y12658790D01*
X-2004170Y12690600D01*
X-2019910Y12727700D01*
X-2027770Y12770100D01*
Y12807200D01*
X-2019910Y12838990D01*
X-2004170Y12876110D01*
X-1980570Y12907900D01*
X-1956970Y12929090D01*
X-1925500Y12945000D01*
X-1897970D01*
X-1866500Y12934400D01*
X-1842900Y12913200D01*
G01X-1697030Y12945000D02*
Y12717100D01*
X-1681300Y12669390D01*
X-1649840Y12637600D01*
X-1610500Y12627000D01*
X-1571160Y12637600D01*
X-1539700Y12669390D01*
X-1523970Y12717100D01*
Y12945000D01*
G01X-1374170Y12627000D02*
Y12945000D01*
X-1275830D01*
X-1244370Y12929090D01*
X-1224700Y12907900D01*
X-1216830Y12865500D01*
X-1224700Y12823100D01*
X-1248300Y12796600D01*
X-1275830Y12780700D01*
X-1374170D01*
G01X-1275830D02*
X-1216830Y12627000D01*
G01X-901830D02*
X-1059170D01*
Y12945000D01*
X-901830D01*
G01X-964770Y12791300D02*
X-1059170D01*
G01X-1683330Y2282500D02*
X-1706670Y2300000D01*
X-1720000Y2315000D01*
X-1726660Y2335000D01*
X-1720000Y2352500D01*
X-1706670Y2365000D01*
X-1686670Y2375000D01*
X-1663330Y2377500D01*
X-1643330Y2375000D01*
X-1623330Y2365000D01*
X-1606670Y2350000D01*
X-1600000Y2332500D01*
X-1606670Y2312500D01*
X-1626660Y2295000D01*
X-1656670Y2285000D01*
X-1690000Y2282500D01*
X-1733330Y2287500D01*
X-1756670Y2295000D01*
X-1780000Y2307500D01*
X-1796670Y2325000D01*
X-1800000Y2342500D01*
X-1793330Y2360000D01*
X-1776670Y2372500D01*
G01X-1800000Y2510000D02*
X-1793330Y2490000D01*
X-1776670Y2475000D01*
X-1756670Y2465000D01*
X-1730000Y2457500D01*
X-1700000Y2455000D01*
X-1670000Y2457500D01*
X-1643330Y2465000D01*
X-1623330Y2475000D01*
X-1606670Y2490000D01*
X-1600000Y2510000D01*
X-1606670Y2530000D01*
X-1623330Y2545000D01*
X-1643330Y2555000D01*
X-1670000Y2562500D01*
X-1700000Y2565000D01*
X-1730000Y2562500D01*
X-1756670Y2555000D01*
X-1776670Y2545000D01*
X-1793330Y2530000D01*
X-1800000Y2510000D01*
G01X-1593330Y2690000D02*
X-1596670Y2685000D01*
X-1603330D01*
X-1606670Y2690000D01*
X-1603330Y2695000D01*
X-1596670D01*
X-1593330Y2690000D01*
G01X-1629990Y2815000D02*
X-1613330Y2830000D01*
X-1603330Y2847500D01*
X-1600000Y2870000D01*
X-1606670Y2892500D01*
X-1620000Y2910000D01*
X-1643330Y2922500D01*
X-1670000Y2925000D01*
X-1696660Y2920000D01*
X-1713330Y2907500D01*
X-1726660Y2890000D01*
X-1730000Y2872500D01*
X-1726660Y2855000D01*
X-1713330Y2832500D01*
X-1800000Y2840000D01*
Y2907500D01*
G01X850000Y0D02*
X-1750000D01*
G01X-1500000Y2600000D02*
Y0D01*
G01X-1562500Y400000D02*
X-1500000Y0D01*
X-1437500Y400000D01*
X-1562500D01*
G01X-1500000Y2600000D02*
Y6050000D01*
G01X-1437500Y5650000D02*
X-1500000Y6050000D01*
X-1562500Y5650000D01*
X-1437500D01*
G01X-250000Y6050000D02*
X-1750000D01*
G01X-800000Y-1105000D02*
Y0D01*
G01X-983330Y-927500D02*
X-1006670Y-910000D01*
X-1020000Y-895000D01*
X-1026660Y-875000D01*
X-1020000Y-857500D01*
X-1006670Y-845000D01*
X-986670Y-835000D01*
X-963330Y-832500D01*
X-943330Y-835000D01*
X-923330Y-845000D01*
X-906670Y-860000D01*
X-900000Y-877500D01*
X-906670Y-897500D01*
X-926660Y-915000D01*
X-956670Y-925000D01*
X-990000Y-927500D01*
X-1033330Y-922500D01*
X-1056670Y-915000D01*
X-1080000Y-902500D01*
X-1096670Y-885000D01*
X-1100000Y-867500D01*
X-1093330Y-850000D01*
X-1076670Y-837500D01*
G01X-893330Y-700000D02*
X-896670Y-705000D01*
X-903330D01*
X-906670Y-700000D01*
X-903330Y-695000D01*
X-896670D01*
X-893330Y-700000D01*
G01X-1100000Y-520000D02*
X-1093330Y-540000D01*
X-1076670Y-555000D01*
X-1056670Y-565000D01*
X-1030000Y-572500D01*
X-1000000Y-575000D01*
X-970000Y-572500D01*
X-943330Y-565000D01*
X-923330Y-555000D01*
X-906670Y-540000D01*
X-900000Y-520000D01*
X-906670Y-500000D01*
X-923330Y-485000D01*
X-943330Y-475000D01*
X-970000Y-467500D01*
X-1000000Y-465000D01*
X-1030000Y-467500D01*
X-1056670Y-475000D01*
X-1076670Y-485000D01*
X-1093330Y-500000D01*
X-1100000Y-520000D01*
G01X850000Y0D02*
X-1050000D01*
G01X-737500Y-400000D02*
X-800000Y0D01*
X-862500Y-400000D01*
X-737500D01*
G01X-800000Y0D02*
Y600000D01*
G01X-250000D02*
X-1050000D01*
G01X-800000Y1400000D02*
Y600000D01*
G01X-862500Y1000000D02*
X-800000Y600000D01*
X-737500Y1000000D01*
X-862500D01*
G01X-250000Y600000D02*
X-1050000D01*
G01X-800000Y3100000D02*
Y600000D01*
G01X-862500Y1000000D02*
X-800000Y600000D01*
X-737500Y1000000D01*
X-862500D01*
G01X-929990Y2775000D02*
X-913330Y2790000D01*
X-903330Y2807500D01*
X-900000Y2830000D01*
X-906670Y2852500D01*
X-920000Y2870000D01*
X-943330Y2882500D01*
X-970000Y2885000D01*
X-996660Y2880000D01*
X-1013330Y2867500D01*
X-1026660Y2850000D01*
X-1030000Y2832500D01*
X-1026660Y2815000D01*
X-1013330Y2792500D01*
X-1100000Y2800000D01*
Y2867500D01*
G01X-900000Y3040000D02*
X-1100000D01*
X-956670Y2947500D01*
Y3072500D01*
G01X-893330Y3190000D02*
X-896670Y3185000D01*
X-903330D01*
X-906670Y3190000D01*
X-903330Y3195000D01*
X-896670D01*
X-893330Y3190000D01*
G01X-929990Y3315000D02*
X-913330Y3330000D01*
X-903330Y3347500D01*
X-900000Y3370000D01*
X-906670Y3392500D01*
X-920000Y3410000D01*
X-943330Y3422500D01*
X-970000Y3425000D01*
X-996660Y3420000D01*
X-1013330Y3407500D01*
X-1026660Y3390000D01*
X-1030000Y3372500D01*
X-1026660Y3355000D01*
X-1013330Y3332500D01*
X-1100000Y3340000D01*
Y3407500D01*
G01X-800000Y3100000D02*
Y6050000D01*
G01X-737500Y5650000D02*
X-800000Y6050000D01*
X-862500Y5650000D01*
X-737500D01*
G01X-250000Y6050000D02*
X-1050000D01*
G01X-1117840Y13263000D02*
X-1019500Y13581000D01*
X-921160Y13263000D01*
G01X-956570Y13374300D02*
X-1082440D01*
G01X-783170Y13581000D02*
Y13263000D01*
X-625830D01*
G01X-468170Y13581000D02*
Y13263000D01*
X-310830D01*
G01X153970Y13581000D02*
Y13353100D01*
X169700Y13305390D01*
X201160Y13273600D01*
X240500Y13263000D01*
X279840Y13273600D01*
X311300Y13305390D01*
X327030Y13353100D01*
Y13581000D01*
G01X465030Y13263000D02*
Y13581000D01*
X645970Y13263000D01*
Y13581000D01*
G01X823300D02*
X917690D01*
G01X870500D02*
Y13263000D01*
G01X823300D02*
X917690D01*
G01X1185500Y13581000D02*
Y13263000D01*
G01X1095030Y13581000D02*
X1275970D01*
G01X1417900Y13305390D02*
X1449370Y13278900D01*
X1484770Y13263000D01*
X1516230D01*
X1547700Y13278900D01*
X1571300Y13305390D01*
X1583100Y13342500D01*
X1575240Y13379590D01*
X1555570Y13411400D01*
X1520170Y13432600D01*
X1472970Y13443200D01*
X1445430Y13464400D01*
X1433630Y13501500D01*
X1441500Y13538600D01*
X1461160Y13565090D01*
X1488700Y13581000D01*
X1516230D01*
X1543770Y13570400D01*
X1567370Y13543900D01*
G01X2032160Y13263000D02*
X2130500Y13581000D01*
X2228840Y13263000D01*
G01X2193430Y13374300D02*
X2067560D01*
G01X2366830Y13263000D02*
Y13581000D01*
X2465170D01*
X2496630Y13565090D01*
X2516300Y13543900D01*
X2524170Y13501500D01*
X2516300Y13459100D01*
X2492700Y13432600D01*
X2465170Y13416700D01*
X2366830D01*
G01X2465170D02*
X2524170Y13263000D01*
G01X2839170D02*
X2681830D01*
Y13581000D01*
X2839170D01*
G01X2776230Y13427300D02*
X2681830D01*
G01X3343300Y13581000D02*
X3437690D01*
G01X3390500D02*
Y13263000D01*
G01X3343300D02*
X3437690D01*
G01X3615030D02*
Y13581000D01*
X3795970Y13263000D01*
Y13581000D01*
G01X4233230Y13263000D02*
Y13581000D01*
X4335500Y13316000D01*
X4437770Y13581000D01*
Y13263000D01*
G01X4603300Y13581000D02*
X4697690D01*
G01X4650500D02*
Y13263000D01*
G01X4603300D02*
X4697690D01*
G01X4886830Y13581000D02*
Y13263000D01*
X5044170D01*
G01X5201830Y13581000D02*
Y13263000D01*
X5359170D01*
G01X5548300Y13581000D02*
X5642690D01*
G01X5595500D02*
Y13263000D01*
G01X5548300D02*
X5642690D01*
G01X5808230D02*
Y13581000D01*
X5910500Y13316000D01*
X6012770Y13581000D01*
Y13263000D01*
G01X6304170D02*
X6146830D01*
Y13581000D01*
X6304170D01*
G01X6241230Y13427300D02*
X6146830D01*
G01X6540500Y13581000D02*
Y13263000D01*
G01X6450030Y13581000D02*
X6630970D01*
G01X6934170Y13263000D02*
X6776830D01*
Y13581000D01*
X6934170D01*
G01X6871230Y13427300D02*
X6776830D01*
G01X7091830Y13263000D02*
Y13581000D01*
X7190170D01*
X7221630Y13565090D01*
X7241300Y13543900D01*
X7249170Y13501500D01*
X7241300Y13459100D01*
X7217700Y13432600D01*
X7190170Y13416700D01*
X7091830D01*
G01X7190170D02*
X7249170Y13263000D01*
G01X7402900Y13305390D02*
X7434370Y13278900D01*
X7469770Y13263000D01*
X7501230D01*
X7532700Y13278900D01*
X7556300Y13305390D01*
X7568100Y13342500D01*
X7560240Y13379590D01*
X7540570Y13411400D01*
X7505170Y13432600D01*
X7457970Y13443200D01*
X7430430Y13464400D01*
X7418630Y13501500D01*
X7426500Y13538600D01*
X7446160Y13565090D01*
X7473700Y13581000D01*
X7501230D01*
X7528770Y13570400D01*
X7552370Y13543900D01*
G01X-791030Y13913000D02*
Y14231000D01*
X-712370D01*
X-680900Y14215090D01*
X-657300Y14193900D01*
X-637630Y14162110D01*
X-621900Y14124990D01*
X-617970Y14072000D01*
X-621900Y14019000D01*
X-637630Y13981890D01*
X-657300Y13950090D01*
X-680900Y13928900D01*
X-712370Y13913000D01*
X-791030D01*
G01X-468170D02*
Y14231000D01*
X-369830D01*
X-338370Y14215090D01*
X-318700Y14193900D01*
X-310830Y14151500D01*
X-318700Y14109100D01*
X-342300Y14082600D01*
X-369830Y14066700D01*
X-468170D01*
G01X-369830D02*
X-310830Y13913000D01*
G01X-121700Y14231000D02*
X-27310D01*
G01X-74500D02*
Y13913000D01*
G01X-121700D02*
X-27310D01*
G01X161830Y14231000D02*
Y13913000D01*
X319170D01*
G01X476830Y14231000D02*
Y13913000D01*
X634170D01*
G01X1272030Y14204500D02*
X1248430Y14220400D01*
X1220900Y14231000D01*
X1189440D01*
X1154030Y14215090D01*
X1126500Y14188600D01*
X1106830Y14156800D01*
X1091090Y14103800D01*
X1087160Y14056100D01*
X1095030Y14008400D01*
X1106830Y13976600D01*
X1130430Y13944790D01*
X1157970Y13923600D01*
X1185500Y13913000D01*
X1213030D01*
X1240570Y13923600D01*
X1264170Y13939490D01*
X1283840Y13960690D01*
G01X1417900Y13913000D02*
Y14231000D01*
G01X1583100D02*
Y13913000D01*
G01Y14072000D02*
X1417900D01*
G01X1717160Y13913000D02*
X1815500Y14231000D01*
X1913840Y13913000D01*
G01X1878430Y14024300D02*
X1752560D01*
G01X2051830Y13913000D02*
Y14231000D01*
X2150170D01*
X2181630Y14215090D01*
X2201300Y14193900D01*
X2209170Y14151500D01*
X2201300Y14109100D01*
X2177700Y14082600D01*
X2150170Y14066700D01*
X2051830D01*
G01X2150170D02*
X2209170Y13913000D01*
G01X2445500Y14231000D02*
Y13913000D01*
G01X2355030Y14231000D02*
X2535970D01*
G01X2760500Y13902400D02*
X2752630Y13907700D01*
Y13918300D01*
X2760500Y13923600D01*
X2768370Y13918300D01*
Y13907700D01*
X2760500Y13902400D01*
G01Y14045490D02*
X2752630Y14050800D01*
Y14061400D01*
X2760500Y14066700D01*
X2768370Y14061400D01*
Y14050800D01*
X2760500Y14045490D01*
G01X3390500Y14231000D02*
Y13913000D01*
G01X3300030Y14231000D02*
X3480970D01*
G01X3705500Y13913000D02*
X3674030Y13918300D01*
X3646500Y13939490D01*
X3622900Y13971300D01*
X3607160Y14008400D01*
X3599300Y14050800D01*
Y14093200D01*
X3607160Y14135600D01*
X3622900Y14172700D01*
X3646500Y14204500D01*
X3674030Y14225700D01*
X3705500Y14231000D01*
X3736960Y14225700D01*
X3764500Y14204500D01*
X3788100Y14172700D01*
X3803840Y14135600D01*
X3811700Y14093200D01*
Y14050800D01*
X3803840Y14008400D01*
X3788100Y13971300D01*
X3764500Y13939490D01*
X3736960Y13918300D01*
X3705500Y13913000D01*
G01X3941830D02*
Y14231000D01*
X4036230D01*
X4067700Y14215090D01*
X4091300Y14178000D01*
X4099170Y14135600D01*
X4091300Y14093200D01*
X4071630Y14061400D01*
X4036230Y14045490D01*
X3941830D01*
G01X4650500Y14231000D02*
Y13913000D01*
G01X4595430Y14124990D02*
X4705570D01*
G01X4965500Y13913000D02*
X4941900Y13918300D01*
X4918300Y13939490D01*
X4902560Y13976600D01*
X4894700Y14019000D01*
X4902560Y14061400D01*
X4918300Y14098500D01*
X4941900Y14119690D01*
X4965500Y14124990D01*
X4989100Y14119690D01*
X5012700Y14098500D01*
X5028430Y14061400D01*
X5032370Y14019000D01*
X5028430Y13976600D01*
X5012700Y13939490D01*
X4989100Y13918300D01*
X4965500Y13913000D01*
G01X5626960Y14082600D02*
X5642700Y14098500D01*
X5654500Y14124990D01*
X5662370Y14162110D01*
X5654500Y14193900D01*
X5638770Y14215090D01*
X5611230Y14231000D01*
X5505030D01*
Y13913000D01*
X5634840D01*
X5662370Y13934200D01*
X5678100Y13966000D01*
X5685970Y14003100D01*
X5678100Y14040190D01*
X5654500Y14072000D01*
X5626960Y14082600D01*
X5505030D01*
G01X5910500Y13913000D02*
X5879030Y13918300D01*
X5851500Y13939490D01*
X5827900Y13971300D01*
X5812160Y14008400D01*
X5804300Y14050800D01*
Y14093200D01*
X5812160Y14135600D01*
X5827900Y14172700D01*
X5851500Y14204500D01*
X5879030Y14225700D01*
X5910500Y14231000D01*
X5941960Y14225700D01*
X5969500Y14204500D01*
X5993100Y14172700D01*
X6008840Y14135600D01*
X6016700Y14093200D01*
Y14050800D01*
X6008840Y14008400D01*
X5993100Y13971300D01*
X5969500Y13939490D01*
X5941960Y13918300D01*
X5910500Y13913000D01*
G01X6225500Y14231000D02*
Y13913000D01*
G01X6135030Y14231000D02*
X6315970D01*
G01X6540500D02*
Y13913000D01*
G01X6450030Y14231000D02*
X6630970D01*
G01X6855500Y13913000D02*
X6824030Y13918300D01*
X6796500Y13939490D01*
X6772900Y13971300D01*
X6757160Y14008400D01*
X6749300Y14050800D01*
Y14093200D01*
X6757160Y14135600D01*
X6772900Y14172700D01*
X6796500Y14204500D01*
X6824030Y14225700D01*
X6855500Y14231000D01*
X6886960Y14225700D01*
X6914500Y14204500D01*
X6938100Y14172700D01*
X6953840Y14135600D01*
X6961700Y14093200D01*
Y14050800D01*
X6953840Y14008400D01*
X6938100Y13971300D01*
X6914500Y13939490D01*
X6886960Y13918300D01*
X6855500Y13913000D01*
G01X7068230D02*
Y14231000D01*
X7170500Y13966000D01*
X7272770Y14231000D01*
Y13913000D01*
G01X-626000Y13104000D02*
Y9924000D01*
G01X0Y-250000D02*
Y-1250000D01*
G01X550000Y-1000000D02*
X0D01*
G01X400000Y-937500D02*
X0Y-1000000D01*
X400000Y-1062500D01*
Y-937500D01*
G01X280000Y-900000D02*
Y-700000D01*
X250000Y-740000D01*
G01Y-900000D02*
X310000D01*
G01X460000D02*
Y-700000D01*
X430000Y-740000D01*
G01Y-900000D02*
X490000D01*
G01X640000Y-906670D02*
X635000Y-903330D01*
Y-896670D01*
X640000Y-893330D01*
X645000Y-896670D01*
Y-903330D01*
X640000Y-906670D01*
G01X820000Y-700000D02*
X800000Y-706670D01*
X785000Y-723330D01*
X775000Y-743330D01*
X767500Y-770000D01*
X765000Y-800000D01*
X767500Y-830000D01*
X775000Y-856670D01*
X785000Y-876670D01*
X800000Y-893330D01*
X820000Y-900000D01*
X840000Y-893330D01*
X855000Y-876670D01*
X865000Y-856670D01*
X872500Y-830000D01*
X875000Y-800000D01*
X872500Y-770000D01*
X865000Y-743330D01*
X855000Y-723330D01*
X840000Y-706670D01*
X820000Y-700000D01*
G01X6000000Y600000D02*
X7000000D01*
Y6050000D01*
X5100000D01*
Y4900000D01*
G02X5000000Y4800000I-100000J0D01*
G01X2100000D01*
G02X2000000Y4900000I0J100000D01*
G01Y6050000D01*
X0D01*
Y600000D01*
X1000000D01*
G02X1100000Y500000I0J-100000D01*
G01Y0D01*
X5900000D01*
Y500000D01*
G02X6000000Y600000I100000J0D01*
G01X0Y6300000D02*
Y7750000D01*
G01Y6300000D02*
Y7050000D01*
G01X1100000Y6800000D02*
X0D01*
G01X400000Y6862500D02*
X0Y6800000D01*
X400000Y6737500D01*
Y6862500D01*
G01X3599400Y7500000D02*
X0D01*
G01X400000Y7562500D02*
X0Y7500000D01*
X400000Y7437500D01*
Y7562500D01*
G01X550000Y-1000000D02*
X1100000D01*
G01X700000Y-1062500D02*
X1100000Y-1000000D01*
X700000Y-937500D01*
Y-1062500D01*
G01X782500Y7066670D02*
X797500Y7086660D01*
X815000Y7096670D01*
X835000Y7100000D01*
X860000Y7093330D01*
X877500Y7076670D01*
X882500Y7056670D01*
X880000Y7036660D01*
X870000Y7020000D01*
X820000Y6986670D01*
X797500Y6963330D01*
X782500Y6929990D01*
X777500Y6900000D01*
X882500D01*
G01X1010000Y7100000D02*
X990000Y7093330D01*
X975000Y7076670D01*
X965000Y7056670D01*
X957500Y7030000D01*
X955000Y7000000D01*
X957500Y6970000D01*
X965000Y6943330D01*
X975000Y6923330D01*
X990000Y6906670D01*
X1010000Y6900000D01*
X1030000Y6906670D01*
X1045000Y6923330D01*
X1055000Y6943330D01*
X1062500Y6970000D01*
X1065000Y7000000D01*
X1062500Y7030000D01*
X1055000Y7056670D01*
X1045000Y7076670D01*
X1030000Y7093330D01*
X1010000Y7100000D01*
G01X1190000Y6893330D02*
X1185000Y6896670D01*
Y6903330D01*
X1190000Y6906670D01*
X1195000Y6903330D01*
Y6896670D01*
X1190000Y6893330D01*
G01X1370000Y7100000D02*
X1350000Y7093330D01*
X1335000Y7076670D01*
X1325000Y7056670D01*
X1317500Y7030000D01*
X1315000Y7000000D01*
X1317500Y6970000D01*
X1325000Y6943330D01*
X1335000Y6923330D01*
X1350000Y6906670D01*
X1370000Y6900000D01*
X1390000Y6906670D01*
X1405000Y6923330D01*
X1415000Y6943330D01*
X1422500Y6970000D01*
X1425000Y7000000D01*
X1422500Y7030000D01*
X1415000Y7056670D01*
X1405000Y7076670D01*
X1390000Y7093330D01*
X1370000Y7100000D01*
G01X1100000Y-250000D02*
Y-1250000D01*
G01X3300000Y-1000000D02*
X1100000D01*
G01X1500000Y-937500D02*
X1100000Y-1000000D01*
X1500000Y-1062500D01*
Y-937500D01*
G01X1100000Y-250000D02*
Y-1250000D01*
G01Y6800000D02*
X2000000D01*
G01X1461000Y10083000D02*
Y10401000D01*
X1413800Y10337400D01*
G01Y10083000D02*
X1508190D01*
G01X1776000Y10072400D02*
X1768130Y10077700D01*
Y10088300D01*
X1776000Y10093600D01*
X1783870Y10088300D01*
Y10077700D01*
X1776000Y10072400D01*
G01X2091000Y10401000D02*
X2059530Y10390400D01*
X2035930Y10363900D01*
X2020200Y10332110D01*
X2008400Y10289690D01*
X2004470Y10242000D01*
X2008400Y10194300D01*
X2020200Y10151890D01*
X2035930Y10120090D01*
X2059530Y10093600D01*
X2091000Y10083000D01*
X2122460Y10093600D01*
X2146070Y10120090D01*
X2161800Y10151890D01*
X2173600Y10194300D01*
X2177530Y10242000D01*
X2173600Y10289690D01*
X2161800Y10332110D01*
X2146070Y10363900D01*
X2122460Y10390400D01*
X2091000Y10401000D01*
G01X1461000Y11037000D02*
X1429530Y11026400D01*
X1405930Y10999900D01*
X1390200Y10968110D01*
X1378400Y10925690D01*
X1374470Y10878000D01*
X1378400Y10830300D01*
X1390200Y10787890D01*
X1405930Y10756090D01*
X1429530Y10729600D01*
X1461000Y10719000D01*
X1492460Y10729600D01*
X1516070Y10756090D01*
X1531800Y10787890D01*
X1543600Y10830300D01*
X1547530Y10878000D01*
X1543600Y10925690D01*
X1531800Y10968110D01*
X1516070Y10999900D01*
X1492460Y11026400D01*
X1461000Y11037000D01*
G01X1776000Y10708400D02*
X1768130Y10713700D01*
Y10724300D01*
X1776000Y10729600D01*
X1783870Y10724300D01*
Y10713700D01*
X1776000Y10708400D01*
G01X2024130Y10756090D02*
X2051660Y10729600D01*
X2083130Y10719000D01*
X2114600Y10729600D01*
X2142130Y10761390D01*
X2161800Y10809100D01*
X2169670Y10856800D01*
Y10915100D01*
X2161800Y10962800D01*
X2142130Y11005200D01*
X2118530Y11026400D01*
X2091000Y11037000D01*
X2059530Y11026400D01*
X2035930Y11005200D01*
X2020200Y10973400D01*
X2012330Y10930990D01*
X2020200Y10893900D01*
X2039870Y10856800D01*
X2063470Y10835590D01*
X2091000Y10830300D01*
X2122460Y10840890D01*
X2146070Y10867400D01*
X2169670Y10915100D01*
G01X1461000Y11673000D02*
X1429530Y11662400D01*
X1405930Y11635900D01*
X1390200Y11604110D01*
X1378400Y11561690D01*
X1374470Y11514000D01*
X1378400Y11466300D01*
X1390200Y11423890D01*
X1405930Y11392090D01*
X1429530Y11365600D01*
X1461000Y11355000D01*
X1492460Y11365600D01*
X1516070Y11392090D01*
X1531800Y11423890D01*
X1543600Y11466300D01*
X1547530Y11514000D01*
X1543600Y11561690D01*
X1531800Y11604110D01*
X1516070Y11635900D01*
X1492460Y11662400D01*
X1461000Y11673000D01*
G01X1776000Y11344400D02*
X1768130Y11349700D01*
Y11360300D01*
X1776000Y11365600D01*
X1783870Y11360300D01*
Y11349700D01*
X1776000Y11344400D01*
G01X2004470Y11418600D02*
X2028060Y11381490D01*
X2059530Y11360300D01*
X2094940Y11355000D01*
X2126400Y11360300D01*
X2157870Y11386790D01*
X2177530Y11418600D01*
X2181470Y11450400D01*
X2173600Y11487490D01*
X2146070Y11514000D01*
X2118530Y11524600D01*
X2083130D01*
G01X2118530D02*
X2142130Y11540500D01*
X2161800Y11566990D01*
X2169670Y11598800D01*
X2161800Y11630600D01*
X2142130Y11657090D01*
X2106730Y11673000D01*
X2071330Y11667700D01*
X2035930Y11646500D01*
G01X1461000Y12309000D02*
X1429530Y12298400D01*
X1405930Y12271900D01*
X1390200Y12240110D01*
X1378400Y12197690D01*
X1374470Y12150000D01*
X1378400Y12102300D01*
X1390200Y12059890D01*
X1405930Y12028090D01*
X1429530Y12001600D01*
X1461000Y11991000D01*
X1492460Y12001600D01*
X1516070Y12028090D01*
X1531800Y12059890D01*
X1543600Y12102300D01*
X1547530Y12150000D01*
X1543600Y12197690D01*
X1531800Y12240110D01*
X1516070Y12271900D01*
X1492460Y12298400D01*
X1461000Y12309000D01*
G01X1776000Y11980400D02*
X1768130Y11985700D01*
Y11996300D01*
X1776000Y12001600D01*
X1783870Y11996300D01*
Y11985700D01*
X1776000Y11980400D01*
G01X2016260Y12256000D02*
X2039870Y12287790D01*
X2067400Y12303700D01*
X2098870Y12309000D01*
X2138200Y12298400D01*
X2165740Y12271900D01*
X2173600Y12240110D01*
X2169670Y12208290D01*
X2153930Y12181800D01*
X2075270Y12128800D01*
X2039870Y12091700D01*
X2016260Y12038690D01*
X2008400Y11991000D01*
X2173600D01*
G01X1220900Y12669390D02*
X1252370Y12642900D01*
X1287770Y12627000D01*
X1319230D01*
X1350700Y12642900D01*
X1374300Y12669390D01*
X1386100Y12706500D01*
X1378240Y12743590D01*
X1358570Y12775400D01*
X1323170Y12796600D01*
X1275970Y12807200D01*
X1248430Y12828400D01*
X1236630Y12865500D01*
X1244500Y12902600D01*
X1264160Y12929090D01*
X1291700Y12945000D01*
X1319230D01*
X1346770Y12934400D01*
X1370370Y12907900D01*
G01X1571300Y12945000D02*
X1665690D01*
G01X1618500D02*
Y12627000D01*
G01X1571300D02*
X1665690D01*
G01X1858760Y12945000D02*
X2008240D01*
X1858760Y12627000D01*
X2008240D01*
G01X2327170D02*
X2169830D01*
Y12945000D01*
X2327170D01*
G01X2264230Y12791300D02*
X2169830D01*
G01X1600000Y6737500D02*
X2000000Y6800000D01*
X1600000Y6862500D01*
Y6737500D01*
G01X2350000Y4800000D02*
X3150000D01*
G01X2000000Y6300000D02*
Y7050000D01*
G01Y6300000D02*
Y7050000D01*
G01X2250000Y6050000D02*
X3150000D01*
G01X3399960Y6800000D02*
X2000000D01*
G01X2400000Y6862500D02*
X2000000Y6800000D01*
X2400000Y6737500D01*
Y6862500D01*
G01X3060000Y-900000D02*
Y-700000D01*
X2967500Y-843330D01*
X3092500D01*
G01X3210000Y-900000D02*
X3227500Y-896670D01*
X3247500Y-886670D01*
X3260000Y-870010D01*
X3265000Y-846670D01*
X3260000Y-823340D01*
X3245000Y-803340D01*
X3222500Y-793330D01*
X3197500D01*
X3182500Y-786670D01*
X3170000Y-770000D01*
X3165000Y-746670D01*
X3172500Y-723330D01*
X3190000Y-706670D01*
X3210000Y-700000D01*
X3230000Y-706670D01*
X3247500Y-723330D01*
X3255000Y-746670D01*
X3250000Y-770000D01*
X3237500Y-786670D01*
X3222500Y-793330D01*
X3197500D01*
X3175000Y-803340D01*
X3160000Y-823340D01*
X3155000Y-846670D01*
X3160000Y-870010D01*
X3172500Y-886670D01*
X3192500Y-896670D01*
X3210000Y-900000D01*
G01X3390000Y-906670D02*
X3385000Y-903330D01*
Y-896670D01*
X3390000Y-893330D01*
X3395000Y-896670D01*
Y-903330D01*
X3390000Y-906670D01*
G01X3570000Y-700000D02*
X3550000Y-706670D01*
X3535000Y-723330D01*
X3525000Y-743330D01*
X3517500Y-770000D01*
X3515000Y-800000D01*
X3517500Y-830000D01*
X3525000Y-856670D01*
X3535000Y-876670D01*
X3550000Y-893330D01*
X3570000Y-900000D01*
X3590000Y-893330D01*
X3605000Y-876670D01*
X3615000Y-856670D01*
X3622500Y-830000D01*
X3625000Y-800000D01*
X3622500Y-770000D01*
X3615000Y-743330D01*
X3605000Y-723330D01*
X3590000Y-706670D01*
X3570000Y-700000D01*
G01X2900000Y5400000D02*
Y4800000D01*
G01X2837500Y5200000D02*
X2900000Y4800000D01*
X2962500Y5200000D01*
X2837500D01*
G01X2800000Y5130000D02*
X2600000D01*
X2640000Y5100000D01*
G01X2800000D02*
Y5160000D01*
G01X2633330Y5262500D02*
X2613340Y5277500D01*
X2603330Y5295000D01*
X2600000Y5315000D01*
X2606670Y5340000D01*
X2623330Y5357500D01*
X2643330Y5362500D01*
X2663340Y5360000D01*
X2680000Y5350000D01*
X2713330Y5300000D01*
X2736670Y5277500D01*
X2770010Y5262500D01*
X2800000Y5257500D01*
Y5362500D01*
G01X2806670Y5490000D02*
X2803330Y5485000D01*
X2796670D01*
X2793330Y5490000D01*
X2796670Y5495000D01*
X2803330D01*
X2806670Y5490000D01*
G01X2770010Y5615000D02*
X2786670Y5630000D01*
X2796670Y5647500D01*
X2800000Y5670000D01*
X2793330Y5692500D01*
X2780000Y5710000D01*
X2756670Y5722500D01*
X2730000Y5725000D01*
X2703340Y5720000D01*
X2686670Y5707500D01*
X2673340Y5690000D01*
X2670000Y5672500D01*
X2673340Y5655000D01*
X2686670Y5632500D01*
X2600000Y5640000D01*
Y5707500D01*
G01X2900000Y5400000D02*
Y6050000D01*
G01X2962500Y5650000D02*
X2900000Y6050000D01*
X2837500Y5650000D01*
X2962500D01*
G01X3300000Y-1000000D02*
X5900000D01*
G01X3580000Y5400000D02*
Y5600000D01*
X3642500D01*
X3662500Y5590000D01*
X3675000Y5576670D01*
X3680000Y5550000D01*
X3675000Y5523330D01*
X3660000Y5506670D01*
X3642500Y5496660D01*
X3580000D01*
G01X3642500D02*
X3680000Y5400000D01*
G01X3810000D02*
Y5600000D01*
X3780000Y5560000D01*
G01Y5400000D02*
X3840000D01*
G01X3990000Y5393330D02*
X3985000Y5396670D01*
Y5403330D01*
X3990000Y5406670D01*
X3995000Y5403330D01*
Y5396670D01*
X3990000Y5393330D01*
G01X4170000Y5600000D02*
X4150000Y5593330D01*
X4135000Y5576670D01*
X4125000Y5556670D01*
X4117500Y5530000D01*
X4115000Y5500000D01*
X4117500Y5470000D01*
X4125000Y5443330D01*
X4135000Y5423330D01*
X4150000Y5406670D01*
X4170000Y5400000D01*
X4190000Y5406670D01*
X4205000Y5423330D01*
X4215000Y5443330D01*
X4222500Y5470000D01*
X4225000Y5500000D01*
X4222500Y5530000D01*
X4215000Y5556670D01*
X4205000Y5576670D01*
X4190000Y5593330D01*
X4170000Y5600000D01*
G01X5083230Y4844570D02*
X4500000Y5300000D01*
X3405000D01*
G01X3074960Y6940000D02*
X3089960Y6916660D01*
X3109960Y6903330D01*
X3132460Y6900000D01*
X3152460Y6903330D01*
X3172460Y6920000D01*
X3184960Y6940000D01*
X3187460Y6960000D01*
X3182460Y6983330D01*
X3164960Y7000000D01*
X3147460Y7006670D01*
X3124960D01*
G01X3147460D02*
X3162460Y7016670D01*
X3174960Y7033330D01*
X3179960Y7053330D01*
X3174960Y7073330D01*
X3162460Y7090000D01*
X3139960Y7100000D01*
X3117460Y7096670D01*
X3094960Y7083330D01*
G01X3309960Y6900000D02*
Y7100000D01*
X3279960Y7060000D01*
G01Y6900000D02*
X3339960D01*
G01X3489960Y6893330D02*
X3484960Y6896670D01*
Y6903330D01*
X3489960Y6906670D01*
X3494960Y6903330D01*
Y6896670D01*
X3489960Y6893330D01*
G01X3669960Y7100000D02*
X3649960Y7093330D01*
X3634960Y7076670D01*
X3624960Y7056670D01*
X3617460Y7030000D01*
X3614960Y7000000D01*
X3617460Y6970000D01*
X3624960Y6943330D01*
X3634960Y6923330D01*
X3649960Y6906670D01*
X3669960Y6900000D01*
X3689960Y6906670D01*
X3704960Y6923330D01*
X3714960Y6943330D01*
X3722460Y6970000D01*
X3724960Y7000000D01*
X3722460Y7030000D01*
X3714960Y7056670D01*
X3704960Y7076670D01*
X3689960Y7093330D01*
X3669960Y7100000D01*
G01X3399960Y6800000D02*
X5100000D01*
G01X3324400Y7600000D02*
X3329400Y7643330D01*
X3336900Y7680000D01*
X3346900Y7713330D01*
X3359400Y7750000D01*
X3379400Y7800000D01*
X3279400D01*
G01X3509400D02*
X3489400Y7793330D01*
X3474400Y7776670D01*
X3464400Y7756670D01*
X3456900Y7730000D01*
X3454400Y7700000D01*
X3456900Y7670000D01*
X3464400Y7643330D01*
X3474400Y7623330D01*
X3489400Y7606670D01*
X3509400Y7600000D01*
X3529400Y7606670D01*
X3544400Y7623330D01*
X3554400Y7643330D01*
X3561900Y7670000D01*
X3564400Y7700000D01*
X3561900Y7730000D01*
X3554400Y7756670D01*
X3544400Y7776670D01*
X3529400Y7793330D01*
X3509400Y7800000D01*
G01X3689400Y7593330D02*
X3684400Y7596670D01*
Y7603330D01*
X3689400Y7606670D01*
X3694400Y7603330D01*
Y7596670D01*
X3689400Y7593330D01*
G01X3869400Y7800000D02*
X3849400Y7793330D01*
X3834400Y7776670D01*
X3824400Y7756670D01*
X3816900Y7730000D01*
X3814400Y7700000D01*
X3816900Y7670000D01*
X3824400Y7643330D01*
X3834400Y7623330D01*
X3849400Y7606670D01*
X3869400Y7600000D01*
X3889400Y7606670D01*
X3904400Y7623330D01*
X3914400Y7643330D01*
X3921900Y7670000D01*
X3924400Y7700000D01*
X3921900Y7730000D01*
X3914400Y7756670D01*
X3904400Y7776670D01*
X3889400Y7793330D01*
X3869400Y7800000D01*
G01X3599400Y7500000D02*
X7000000D01*
G01X4178000Y13104000D02*
Y9924000D01*
G01X4729500Y5041490D02*
X5083230Y4844570D01*
X4806430Y5140010D01*
X4729500Y5041490D01*
G01X5100000Y6300000D02*
Y7050000D01*
G01Y6300000D02*
Y7050000D01*
G01X4700000Y6737500D02*
X5100000Y6800000D01*
X4700000Y6862500D01*
Y6737500D01*
G01X6000000Y6800000D02*
X5100000D01*
G01X5500000Y6862500D02*
X5100000Y6800000D01*
X5500000Y6737500D01*
Y6862500D01*
G01X4926330Y10083000D02*
Y10401000D01*
X5020730D01*
X5052200Y10385090D01*
X5075800Y10348000D01*
X5083670Y10305600D01*
X5075800Y10263200D01*
X5056130Y10231400D01*
X5020730Y10215490D01*
X4926330D01*
G01X5241330Y10401000D02*
Y10083000D01*
X5398670D01*
G01X5536660D02*
X5635000Y10401000D01*
X5733340Y10083000D01*
G01X5697930Y10194300D02*
X5572060D01*
G01X5950000Y10401000D02*
Y10083000D01*
G01X5859530Y10401000D02*
X6040470D01*
G01X6343670Y10083000D02*
X6186330D01*
Y10401000D01*
X6343670D01*
G01X6280730Y10247300D02*
X6186330D01*
G01X6493470Y10083000D02*
Y10401000D01*
X6572130D01*
X6603600Y10385090D01*
X6627200Y10363900D01*
X6646870Y10332110D01*
X6662600Y10294990D01*
X6666530Y10242000D01*
X6662600Y10189000D01*
X6646870Y10151890D01*
X6627200Y10120090D01*
X6603600Y10098900D01*
X6572130Y10083000D01*
X6493470D01*
G01X4926330Y10719000D02*
Y11037000D01*
X5020730D01*
X5052200Y11021090D01*
X5075800Y10984000D01*
X5083670Y10941600D01*
X5075800Y10899200D01*
X5056130Y10867400D01*
X5020730Y10851490D01*
X4926330D01*
G01X5241330Y11037000D02*
Y10719000D01*
X5398670D01*
G01X5536660D02*
X5635000Y11037000D01*
X5733340Y10719000D01*
G01X5697930Y10830300D02*
X5572060D01*
G01X5950000Y11037000D02*
Y10719000D01*
G01X5859530Y11037000D02*
X6040470D01*
G01X6343670Y10719000D02*
X6186330D01*
Y11037000D01*
X6343670D01*
G01X6280730Y10883300D02*
X6186330D01*
G01X6493470Y10719000D02*
Y11037000D01*
X6572130D01*
X6603600Y11021090D01*
X6627200Y10999900D01*
X6646870Y10968110D01*
X6662600Y10930990D01*
X6666530Y10878000D01*
X6662600Y10825000D01*
X6646870Y10787890D01*
X6627200Y10756090D01*
X6603600Y10734900D01*
X6572130Y10719000D01*
X6493470D01*
G01X4926330Y11355000D02*
Y11673000D01*
X5020730D01*
X5052200Y11657090D01*
X5075800Y11620000D01*
X5083670Y11577600D01*
X5075800Y11535200D01*
X5056130Y11503400D01*
X5020730Y11487490D01*
X4926330D01*
G01X5241330Y11673000D02*
Y11355000D01*
X5398670D01*
G01X5536660D02*
X5635000Y11673000D01*
X5733340Y11355000D01*
G01X5697930Y11466300D02*
X5572060D01*
G01X5950000Y11673000D02*
Y11355000D01*
G01X5859530Y11673000D02*
X6040470D01*
G01X6343670Y11355000D02*
X6186330D01*
Y11673000D01*
X6343670D01*
G01X6280730Y11519300D02*
X6186330D01*
G01X6493470Y11355000D02*
Y11673000D01*
X6572130D01*
X6603600Y11657090D01*
X6627200Y11635900D01*
X6646870Y11604110D01*
X6662600Y11566990D01*
X6666530Y11514000D01*
X6662600Y11461000D01*
X6646870Y11423890D01*
X6627200Y11392090D01*
X6603600Y11370900D01*
X6572130Y11355000D01*
X6493470D01*
G01X4926330Y11991000D02*
Y12309000D01*
X5020730D01*
X5052200Y12293090D01*
X5075800Y12256000D01*
X5083670Y12213600D01*
X5075800Y12171200D01*
X5056130Y12139400D01*
X5020730Y12123490D01*
X4926330D01*
G01X5241330Y12309000D02*
Y11991000D01*
X5398670D01*
G01X5536660D02*
X5635000Y12309000D01*
X5733340Y11991000D01*
G01X5697930Y12102300D02*
X5572060D01*
G01X5950000Y12309000D02*
Y11991000D01*
G01X5859530Y12309000D02*
X6040470D01*
G01X6343670Y11991000D02*
X6186330D01*
Y12309000D01*
X6343670D01*
G01X6280730Y12155300D02*
X6186330D01*
G01X6493470Y11991000D02*
Y12309000D01*
X6572130D01*
X6603600Y12293090D01*
X6627200Y12271900D01*
X6646870Y12240110D01*
X6662600Y12202990D01*
X6666530Y12150000D01*
X6662600Y12097000D01*
X6646870Y12059890D01*
X6627200Y12028090D01*
X6603600Y12006900D01*
X6572130Y11991000D01*
X6493470D01*
G01X4926330Y12627000D02*
Y12945000D01*
X5020730D01*
X5052200Y12929090D01*
X5075800Y12892000D01*
X5083670Y12849600D01*
X5075800Y12807200D01*
X5056130Y12775400D01*
X5020730Y12759490D01*
X4926330D01*
G01X5241330Y12945000D02*
Y12627000D01*
X5398670D01*
G01X5536660D02*
X5635000Y12945000D01*
X5733340Y12627000D01*
G01X5697930Y12738300D02*
X5572060D01*
G01X5950000Y12945000D02*
Y12627000D01*
G01X5859530Y12945000D02*
X6040470D01*
G01X6343670Y12627000D02*
X6186330D01*
Y12945000D01*
X6343670D01*
G01X6280730Y12791300D02*
X6186330D01*
G01X6493470Y12627000D02*
Y12945000D01*
X6572130D01*
X6603600Y12929090D01*
X6627200Y12907900D01*
X6646870Y12876110D01*
X6662600Y12838990D01*
X6666530Y12786000D01*
X6662600Y12733000D01*
X6646870Y12695890D01*
X6627200Y12664090D01*
X6603600Y12642900D01*
X6572130Y12627000D01*
X6493470D01*
G01X5500000Y-1062500D02*
X5900000Y-1000000D01*
X5500000Y-937500D01*
Y-1062500D01*
G01X5730000Y6900000D02*
Y7100000D01*
X5700000Y7060000D01*
G01Y6900000D02*
X5760000D01*
G01X5867500Y6923330D02*
X5885000Y6906670D01*
X5905000Y6900000D01*
X5925000Y6906670D01*
X5942500Y6926660D01*
X5955000Y6956670D01*
X5960000Y6986670D01*
Y7023330D01*
X5955000Y7053330D01*
X5942500Y7080000D01*
X5927500Y7093330D01*
X5910000Y7100000D01*
X5890000Y7093330D01*
X5875000Y7080000D01*
X5865000Y7060000D01*
X5860000Y7033330D01*
X5865000Y7010000D01*
X5877500Y6986670D01*
X5892500Y6973330D01*
X5910000Y6970000D01*
X5930000Y6976660D01*
X5945000Y6993330D01*
X5960000Y7023330D01*
G01X6090000Y6893330D02*
X6085000Y6896670D01*
Y6903330D01*
X6090000Y6906670D01*
X6095000Y6903330D01*
Y6896670D01*
X6090000Y6893330D01*
G01X6270000Y7100000D02*
X6250000Y7093330D01*
X6235000Y7076670D01*
X6225000Y7056670D01*
X6217500Y7030000D01*
X6215000Y7000000D01*
X6217500Y6970000D01*
X6225000Y6943330D01*
X6235000Y6923330D01*
X6250000Y6906670D01*
X6270000Y6900000D01*
X6290000Y6906670D01*
X6305000Y6923330D01*
X6315000Y6943330D01*
X6322500Y6970000D01*
X6325000Y7000000D01*
X6322500Y7030000D01*
X6315000Y7056670D01*
X6305000Y7076670D01*
X6290000Y7093330D01*
X6270000Y7100000D01*
G01X5900000Y-250000D02*
Y-1250000D01*
G01Y-250000D02*
Y-1250000D01*
G01X6400000Y-1000000D02*
X5900000D01*
G01X6300000Y-937500D02*
X5900000Y-1000000D01*
X6300000Y-1062500D01*
Y-937500D01*
G01X6130000Y-900000D02*
Y-700000D01*
X6100000Y-740000D01*
G01Y-900000D02*
X6160000D01*
G01X6310000D02*
Y-700000D01*
X6280000Y-740000D01*
G01Y-900000D02*
X6340000D01*
G01X6490000Y-906670D02*
X6485000Y-903330D01*
Y-896670D01*
X6490000Y-893330D01*
X6495000Y-896670D01*
Y-903330D01*
X6490000Y-906670D01*
G01X6670000Y-700000D02*
X6650000Y-706670D01*
X6635000Y-723330D01*
X6625000Y-743330D01*
X6617500Y-770000D01*
X6615000Y-800000D01*
X6617500Y-830000D01*
X6625000Y-856670D01*
X6635000Y-876670D01*
X6650000Y-893330D01*
X6670000Y-900000D01*
X6690000Y-893330D01*
X6705000Y-876670D01*
X6715000Y-856670D01*
X6722500Y-830000D01*
X6725000Y-800000D01*
X6722500Y-770000D01*
X6715000Y-743330D01*
X6705000Y-723330D01*
X6690000Y-706670D01*
X6670000Y-700000D01*
G01X6000000Y6800000D02*
X7000000D01*
G01X6400000Y-1000000D02*
X7000000D01*
G01X6600000Y-1062500D02*
X7000000Y-1000000D01*
X6600000Y-937500D01*
Y-1062500D01*
G01Y6737500D02*
X7000000Y6800000D01*
X6600000Y6862500D01*
Y6737500D01*
G01Y7437500D02*
X7000000Y7500000D01*
X6600000Y7562500D01*
Y7437500D01*
G01X7000000Y350000D02*
Y-1250000D01*
G01Y6300000D02*
Y7750000D01*
G01Y6300000D02*
Y7050000D01*
G01X7407000Y13104000D02*
Y9924000D01*
G01X8076500Y10083000D02*
Y10401000D01*
X8029300Y10337400D01*
G01Y10083000D02*
X8123690D01*
G01X8391500Y10401000D02*
X8360030Y10390400D01*
X8336430Y10363900D01*
X8320700Y10332110D01*
X8308900Y10289690D01*
X8304970Y10242000D01*
X8308900Y10194300D01*
X8320700Y10151890D01*
X8336430Y10120090D01*
X8360030Y10093600D01*
X8391500Y10083000D01*
X8422960Y10093600D01*
X8446570Y10120090D01*
X8462300Y10151890D01*
X8474100Y10194300D01*
X8478030Y10242000D01*
X8474100Y10289690D01*
X8462300Y10332110D01*
X8446570Y10363900D01*
X8422960Y10390400D01*
X8391500Y10401000D01*
G01X8639630Y10120090D02*
X8667160Y10093600D01*
X8698630Y10083000D01*
X8730100Y10093600D01*
X8757630Y10125390D01*
X8777300Y10173100D01*
X8785170Y10220800D01*
Y10279100D01*
X8777300Y10326800D01*
X8757630Y10369200D01*
X8734030Y10390400D01*
X8706500Y10401000D01*
X8675030Y10390400D01*
X8651430Y10369200D01*
X8635700Y10337400D01*
X8627830Y10294990D01*
X8635700Y10257900D01*
X8655370Y10220800D01*
X8678970Y10199590D01*
X8706500Y10194300D01*
X8737960Y10204890D01*
X8761570Y10231400D01*
X8785170Y10279100D01*
G01X8159260Y10984000D02*
X8182870Y11015790D01*
X8210400Y11031700D01*
X8241870Y11037000D01*
X8281200Y11026400D01*
X8308740Y10999900D01*
X8316600Y10968110D01*
X8312670Y10936290D01*
X8296930Y10909800D01*
X8218270Y10856800D01*
X8182870Y10819700D01*
X8159260Y10766690D01*
X8151400Y10719000D01*
X8316600D01*
G01X8549000D02*
X8576530Y10724300D01*
X8608000Y10740200D01*
X8627670Y10766690D01*
X8635530Y10803800D01*
X8627670Y10840890D01*
X8604070Y10872700D01*
X8568670Y10888600D01*
X8529330D01*
X8505730Y10899200D01*
X8486060Y10925690D01*
X8478200Y10962800D01*
X8490000Y10999900D01*
X8517530Y11026400D01*
X8549000Y11037000D01*
X8580460Y11026400D01*
X8608000Y10999900D01*
X8619800Y10962800D01*
X8611930Y10925690D01*
X8592270Y10899200D01*
X8568670Y10888600D01*
X8529330D01*
X8493930Y10872700D01*
X8470330Y10840890D01*
X8462470Y10803800D01*
X8470330Y10766690D01*
X8490000Y10740200D01*
X8521470Y10724300D01*
X8549000Y10719000D01*
G01X8147470Y11418600D02*
X8171060Y11381490D01*
X8202530Y11360300D01*
X8237940Y11355000D01*
X8269400Y11360300D01*
X8300870Y11386790D01*
X8320530Y11418600D01*
X8324470Y11450400D01*
X8316600Y11487490D01*
X8289070Y11514000D01*
X8261530Y11524600D01*
X8226130D01*
G01X8261530D02*
X8285130Y11540500D01*
X8304800Y11566990D01*
X8312670Y11598800D01*
X8304800Y11630600D01*
X8285130Y11657090D01*
X8249730Y11673000D01*
X8214330Y11667700D01*
X8178930Y11646500D01*
G01X8474260Y11620000D02*
X8497870Y11651790D01*
X8525400Y11667700D01*
X8556870Y11673000D01*
X8596200Y11662400D01*
X8623740Y11635900D01*
X8631600Y11604110D01*
X8627670Y11572290D01*
X8611930Y11545800D01*
X8533270Y11492800D01*
X8497870Y11455700D01*
X8474260Y11402690D01*
X8466400Y11355000D01*
X8631600D01*
G01X8123700Y11991000D02*
Y12309000D01*
X7978160Y12081100D01*
X8174840D01*
G01X8438700Y11991000D02*
Y12309000D01*
X8293160Y12081100D01*
X8489840D01*
G01X8631760Y12256000D02*
X8655370Y12287790D01*
X8682900Y12303700D01*
X8714370Y12309000D01*
X8753700Y12298400D01*
X8781240Y12271900D01*
X8789100Y12240110D01*
X8785170Y12208290D01*
X8769430Y12181800D01*
X8690770Y12128800D01*
X8655370Y12091700D01*
X8631760Y12038690D01*
X8623900Y11991000D01*
X8789100D01*
G01X8076500Y12627000D02*
X8045030Y12632300D01*
X8017500Y12653490D01*
X7993900Y12685300D01*
X7978160Y12722400D01*
X7970300Y12764800D01*
Y12807200D01*
X7978160Y12849600D01*
X7993900Y12886700D01*
X8017500Y12918500D01*
X8045030Y12939700D01*
X8076500Y12945000D01*
X8107960Y12939700D01*
X8135500Y12918500D01*
X8159100Y12886700D01*
X8174840Y12849600D01*
X8182700Y12807200D01*
Y12764800D01*
X8174840Y12722400D01*
X8159100Y12685300D01*
X8135500Y12653490D01*
X8107960Y12632300D01*
X8076500Y12627000D01*
G01X8107960Y12711800D02*
X8155170Y12627000D01*
G01X8391500Y12945000D02*
Y12627000D01*
G01X8301030Y12945000D02*
X8481970D01*
G01X8706500Y12627000D02*
Y12770100D01*
X8627830Y12945000D01*
G01X8785170D02*
X8706500Y12770100D01*
M02*
